%TF.GenerationSoftware,KiCad,Pcbnew,(6.0.9)*%
%TF.CreationDate,2023-01-24T23:05:38+01:00*%
%TF.ProjectId,Projekt,50726f6a-656b-4742-9e6b-696361645f70,rev?*%
%TF.SameCoordinates,Original*%
%TF.FileFunction,Soldermask,Top*%
%TF.FilePolarity,Negative*%
%FSLAX46Y46*%
G04 Gerber Fmt 4.6, Leading zero omitted, Abs format (unit mm)*
G04 Created by KiCad (PCBNEW (6.0.9)) date 2023-01-24 23:05:38*
%MOMM*%
%LPD*%
G01*
G04 APERTURE LIST*
G04 Aperture macros list*
%AMRoundRect*
0 Rectangle with rounded corners*
0 $1 Rounding radius*
0 $2 $3 $4 $5 $6 $7 $8 $9 X,Y pos of 4 corners*
0 Add a 4 corners polygon primitive as box body*
4,1,4,$2,$3,$4,$5,$6,$7,$8,$9,$2,$3,0*
0 Add four circle primitives for the rounded corners*
1,1,$1+$1,$2,$3*
1,1,$1+$1,$4,$5*
1,1,$1+$1,$6,$7*
1,1,$1+$1,$8,$9*
0 Add four rect primitives between the rounded corners*
20,1,$1+$1,$2,$3,$4,$5,0*
20,1,$1+$1,$4,$5,$6,$7,0*
20,1,$1+$1,$6,$7,$8,$9,0*
20,1,$1+$1,$8,$9,$2,$3,0*%
G04 Aperture macros list end*
%ADD10R,0.600000X1.750000*%
%ADD11R,2.400000X2.400000*%
%ADD12C,2.400000*%
%ADD13RoundRect,0.140000X0.140000X0.170000X-0.140000X0.170000X-0.140000X-0.170000X0.140000X-0.170000X0*%
%ADD14RoundRect,0.200000X0.275000X-0.200000X0.275000X0.200000X-0.275000X0.200000X-0.275000X-0.200000X0*%
%ADD15R,0.900000X1.850000*%
%ADD16R,0.650000X0.650000*%
%ADD17R,1.000000X1.350000*%
%ADD18R,0.650000X1.350000*%
%ADD19RoundRect,0.150000X0.725000X0.150000X-0.725000X0.150000X-0.725000X-0.150000X0.725000X-0.150000X0*%
%ADD20R,2.500000X2.000000*%
%ADD21RoundRect,0.225000X-0.250000X0.225000X-0.250000X-0.225000X0.250000X-0.225000X0.250000X0.225000X0*%
%ADD22RoundRect,0.150000X0.150000X-0.725000X0.150000X0.725000X-0.150000X0.725000X-0.150000X-0.725000X0*%
%ADD23RoundRect,0.200000X-0.275000X0.200000X-0.275000X-0.200000X0.275000X-0.200000X0.275000X0.200000X0*%
%ADD24RoundRect,0.225000X0.250000X-0.225000X0.250000X0.225000X-0.250000X0.225000X-0.250000X-0.225000X0*%
%ADD25RoundRect,0.218750X0.256250X-0.218750X0.256250X0.218750X-0.256250X0.218750X-0.256250X-0.218750X0*%
%ADD26RoundRect,0.225000X-0.225000X-0.250000X0.225000X-0.250000X0.225000X0.250000X-0.225000X0.250000X0*%
%ADD27RoundRect,0.200000X-0.200000X-0.275000X0.200000X-0.275000X0.200000X0.275000X-0.200000X0.275000X0*%
%ADD28RoundRect,0.218750X-0.218750X-0.256250X0.218750X-0.256250X0.218750X0.256250X-0.218750X0.256250X0*%
%ADD29RoundRect,0.125000X-0.625000X-0.125000X0.625000X-0.125000X0.625000X0.125000X-0.625000X0.125000X0*%
%ADD30RoundRect,0.125000X-0.125000X-0.625000X0.125000X-0.625000X0.125000X0.625000X-0.125000X0.625000X0*%
%ADD31R,1.550000X1.300000*%
%ADD32R,1.000000X2.500000*%
%ADD33R,1.800000X1.000000*%
%ADD34C,2.500000*%
%ADD35C,2.540000*%
%ADD36R,1.850000X1.850000*%
%ADD37C,1.850000*%
%ADD38RoundRect,0.225000X0.225000X0.250000X-0.225000X0.250000X-0.225000X-0.250000X0.225000X-0.250000X0*%
%ADD39RoundRect,0.250000X-0.550000X-0.550000X0.550000X-0.550000X0.550000X0.550000X-0.550000X0.550000X0*%
%ADD40C,1.600000*%
%ADD41R,2.800000X1.400000*%
%ADD42R,4.000000X4.000000*%
%ADD43C,3.300000*%
%ADD44C,3.500000*%
%ADD45RoundRect,0.125000X-0.537500X-0.125000X0.537500X-0.125000X0.537500X0.125000X-0.537500X0.125000X0*%
%ADD46O,2.200000X3.500000*%
%ADD47R,1.500000X2.500000*%
%ADD48O,1.500000X2.500000*%
%ADD49R,3.000000X2.800000*%
%ADD50C,2.000000*%
%ADD51R,1.500000X1.500000*%
%ADD52C,1.500000*%
G04 APERTURE END LIST*
D10*
%TO.C,J3*%
X125500000Y-97875000D03*
X124500000Y-96125000D03*
X123500000Y-97875000D03*
X122500000Y-96125000D03*
X121500000Y-97875000D03*
X120500000Y-96125000D03*
%TD*%
D11*
%TO.C,J2*%
X69950000Y-76250000D03*
D12*
X69950000Y-79750000D03*
X69950000Y-83250000D03*
X69950000Y-86750000D03*
%TD*%
D11*
%TO.C,J1*%
X78000000Y-86750000D03*
D12*
X78000000Y-83250000D03*
X78000000Y-79750000D03*
X78000000Y-76250000D03*
%TD*%
D13*
%TO.C,C11*%
X72328884Y-135480000D03*
X71368884Y-135480000D03*
%TD*%
D14*
%TO.C,R3*%
X98250000Y-94605000D03*
X98250000Y-92955000D03*
%TD*%
D15*
%TO.C,Q2*%
X90050000Y-83180000D03*
X96450000Y-80830000D03*
X96450000Y-83180000D03*
X90050000Y-80830000D03*
D16*
X91700000Y-80805000D03*
D17*
X93075000Y-82855000D03*
D18*
X91700000Y-82855000D03*
D17*
X93075000Y-81155000D03*
%TD*%
D19*
%TO.C,U1*%
X135825000Y-79905000D03*
X135825000Y-78635000D03*
X135825000Y-77365000D03*
X135825000Y-76095000D03*
X130675000Y-76095000D03*
X130675000Y-77365000D03*
X130675000Y-78635000D03*
X130675000Y-79905000D03*
%TD*%
D20*
%TO.C,RV1*%
X105425000Y-97900000D03*
X114075000Y-95750000D03*
X105425000Y-93600000D03*
%TD*%
D21*
%TO.C,C6*%
X157500000Y-92725000D03*
X157500000Y-94275000D03*
%TD*%
D22*
%TO.C,U3*%
X159305000Y-98325000D03*
X160575000Y-98325000D03*
X161845000Y-98325000D03*
X163115000Y-98325000D03*
X164385000Y-98325000D03*
X165655000Y-98325000D03*
X166925000Y-98325000D03*
X168195000Y-98325000D03*
X168195000Y-93175000D03*
X166925000Y-93175000D03*
X165655000Y-93175000D03*
X164385000Y-93175000D03*
X163115000Y-93175000D03*
X161845000Y-93175000D03*
X160575000Y-93175000D03*
X159305000Y-93175000D03*
%TD*%
D23*
%TO.C,R1*%
X128250000Y-75425000D03*
X128250000Y-77075000D03*
%TD*%
%TO.C,R10*%
X115250000Y-89425000D03*
X115250000Y-91075000D03*
%TD*%
D24*
%TO.C,C9*%
X113250000Y-86525000D03*
X113250000Y-84975000D03*
%TD*%
D25*
%TO.C,D2*%
X106500000Y-91037500D03*
X106500000Y-89462500D03*
%TD*%
D14*
%TO.C,R8*%
X104500000Y-91075000D03*
X104500000Y-89425000D03*
%TD*%
D24*
%TO.C,C10*%
X113250000Y-91025000D03*
X113250000Y-89475000D03*
%TD*%
D26*
%TO.C,C3*%
X131225000Y-81750000D03*
X132775000Y-81750000D03*
%TD*%
D27*
%TO.C,R7*%
X162675000Y-71000000D03*
X164325000Y-71000000D03*
%TD*%
D14*
%TO.C,R9*%
X104500000Y-86825000D03*
X104500000Y-85175000D03*
%TD*%
D28*
%TO.C,L1*%
X67561384Y-135480000D03*
X69136384Y-135480000D03*
%TD*%
D29*
%TO.C,U2*%
X119075000Y-85700000D03*
X119075000Y-86500000D03*
X119075000Y-87300000D03*
X119075000Y-88100000D03*
X119075000Y-88900000D03*
X119075000Y-89700000D03*
X119075000Y-90500000D03*
X119075000Y-91300000D03*
D30*
X120450000Y-92675000D03*
X121250000Y-92675000D03*
X122050000Y-92675000D03*
X122850000Y-92675000D03*
X123650000Y-92675000D03*
X124450000Y-92675000D03*
X125250000Y-92675000D03*
X126050000Y-92675000D03*
D29*
X127425000Y-91300000D03*
X127425000Y-90500000D03*
X127425000Y-89700000D03*
X127425000Y-88900000D03*
X127425000Y-88100000D03*
X127425000Y-87300000D03*
X127425000Y-86500000D03*
X127425000Y-85700000D03*
D30*
X126050000Y-84325000D03*
X125250000Y-84325000D03*
X124450000Y-84325000D03*
X123650000Y-84325000D03*
X122850000Y-84325000D03*
X122050000Y-84325000D03*
X121250000Y-84325000D03*
X120450000Y-84325000D03*
%TD*%
D31*
%TO.C,SW5*%
X139025000Y-139250000D03*
X139025000Y-143750000D03*
X146975000Y-139250000D03*
X146975000Y-143750000D03*
%TD*%
%TO.C,SW6*%
X150025000Y-139250000D03*
X150025000Y-143750000D03*
X157975000Y-139250000D03*
X157975000Y-143750000D03*
%TD*%
D32*
%TO.C,U5*%
X171200000Y-73400000D03*
X169200000Y-73400000D03*
X167200000Y-73400000D03*
X165200000Y-73400000D03*
X163200000Y-73400000D03*
X161200000Y-73400000D03*
X159200000Y-73400000D03*
X157200000Y-73400000D03*
D33*
X155700000Y-76000000D03*
X155700000Y-78000000D03*
X155700000Y-80000000D03*
X155700000Y-82000000D03*
X155700000Y-84000000D03*
X155700000Y-86000000D03*
D32*
X157200000Y-88600000D03*
X159200000Y-88600000D03*
X161200000Y-88600000D03*
X163200000Y-88600000D03*
X165200000Y-88600000D03*
X167200000Y-88600000D03*
X169200000Y-88600000D03*
X171200000Y-88600000D03*
%TD*%
D34*
%TO.C,BT1*%
X135753395Y-91000000D03*
D35*
X145283395Y-91000000D03*
%TD*%
D36*
%TO.C,PS1*%
X68500000Y-139605000D03*
D37*
X71040000Y-139605000D03*
X76120000Y-139605000D03*
X78660000Y-139605000D03*
X81200000Y-139605000D03*
%TD*%
D15*
%TO.C,Q1*%
X90050000Y-93825000D03*
X90050000Y-96175000D03*
X96450000Y-96175000D03*
X96450000Y-93825000D03*
D16*
X91700000Y-93800000D03*
D17*
X93075000Y-95850000D03*
X93075000Y-94150000D03*
D18*
X91700000Y-95850000D03*
%TD*%
D21*
%TO.C,C1*%
X139750000Y-74725000D03*
X139750000Y-76275000D03*
%TD*%
D31*
%TO.C,SW1*%
X95025000Y-139250000D03*
X95025000Y-143750000D03*
X102975000Y-139250000D03*
X102975000Y-143750000D03*
%TD*%
D26*
%TO.C,C5*%
X119750000Y-81000000D03*
X121300000Y-81000000D03*
%TD*%
D14*
%TO.C,R6*%
X98100000Y-74925000D03*
X98100000Y-73275000D03*
%TD*%
D38*
%TO.C,C7*%
X86775000Y-110500000D03*
X85225000Y-110500000D03*
%TD*%
D39*
%TO.C,J4*%
X83750000Y-95755000D03*
D40*
X87350000Y-95755000D03*
%TD*%
D31*
%TO.C,SW2*%
X106025000Y-139250000D03*
X106025000Y-143750000D03*
X113975000Y-139250000D03*
X113975000Y-143750000D03*
%TD*%
D41*
%TO.C,U7*%
X68250000Y-113110000D03*
X68250000Y-115650000D03*
X68250000Y-128350000D03*
X68250000Y-130890000D03*
X84750000Y-130890000D03*
X84750000Y-128350000D03*
X84750000Y-113110000D03*
%TD*%
D15*
%TO.C,Q4*%
X96300000Y-74145000D03*
X89900000Y-74145000D03*
X96300000Y-76495000D03*
X89900000Y-76495000D03*
D16*
X91550000Y-74120000D03*
D17*
X92925000Y-76170000D03*
D18*
X91550000Y-76170000D03*
D17*
X92925000Y-74470000D03*
%TD*%
D14*
%TO.C,R2*%
X128250000Y-80325000D03*
X128250000Y-78675000D03*
%TD*%
D40*
%TO.C,J5*%
X68500000Y-97250000D03*
D42*
X77500000Y-97250000D03*
D43*
X71500000Y-97250000D03*
D44*
X70500000Y-101750000D03*
X70500000Y-92750000D03*
%TD*%
D15*
%TO.C,Q3*%
X96450000Y-90175000D03*
X90050000Y-90175000D03*
X90050000Y-87825000D03*
X96450000Y-87825000D03*
D16*
X91700000Y-87800000D03*
D17*
X93075000Y-88150000D03*
D18*
X91700000Y-89850000D03*
D17*
X93075000Y-89850000D03*
%TD*%
D45*
%TO.C,U6*%
X108862500Y-88775000D03*
X108862500Y-89425000D03*
X108862500Y-90075000D03*
X108862500Y-90725000D03*
X111137500Y-90725000D03*
X111137500Y-90075000D03*
X111137500Y-89425000D03*
X111137500Y-88775000D03*
%TD*%
D14*
%TO.C,R5*%
X98250000Y-88605000D03*
X98250000Y-86955000D03*
%TD*%
D46*
%TO.C,SW7*%
X68150000Y-106547500D03*
X76350000Y-106547500D03*
D47*
X70250000Y-106547500D03*
D48*
X72250000Y-106547500D03*
X74250000Y-106547500D03*
%TD*%
D31*
%TO.C,SW3*%
X117025000Y-139250000D03*
X117025000Y-143750000D03*
X124975000Y-139250000D03*
X124975000Y-143750000D03*
%TD*%
D38*
%TO.C,C8*%
X160775000Y-91000000D03*
X159225000Y-91000000D03*
%TD*%
D14*
%TO.C,R4*%
X98250000Y-81610000D03*
X98250000Y-79960000D03*
%TD*%
D21*
%TO.C,C2*%
X139750000Y-78975000D03*
X139750000Y-80525000D03*
%TD*%
D49*
%TO.C,Y1*%
X143750000Y-80350000D03*
X143750000Y-75150000D03*
%TD*%
D31*
%TO.C,SW4*%
X128025000Y-139250000D03*
X128025000Y-143750000D03*
X135975000Y-139250000D03*
X135975000Y-143750000D03*
%TD*%
D50*
%TO.C,U4*%
X166642500Y-102500000D03*
X91642500Y-134500000D03*
D51*
X91642500Y-109610000D03*
D52*
X91642500Y-112150000D03*
X91642500Y-114690000D03*
X91642500Y-117230000D03*
X91642500Y-119770000D03*
X91642500Y-122310000D03*
X91642500Y-124850000D03*
X91642500Y-127390000D03*
X166642500Y-109610000D03*
X166642500Y-112150000D03*
X166642500Y-114690000D03*
X166642500Y-117230000D03*
X166642500Y-119770000D03*
X166642500Y-122310000D03*
X166642500Y-124850000D03*
X166642500Y-127390000D03*
%TD*%
D21*
%TO.C,C4*%
X115250000Y-84975000D03*
X115250000Y-86525000D03*
%TD*%
D25*
%TO.C,D1*%
X106540000Y-86730000D03*
X106540000Y-85155000D03*
%TD*%
M02*
