M48
; DRILL file {KiCad (6.0.9)} date Tue Jan 24 23:06:19 2023
; FORMAT={-:-/ absolute / metric / decimal}
; #@! TF.CreationDate,2023-01-24T23:06:19+01:00
; #@! TF.GenerationSoftware,Kicad,Pcbnew,(6.0.9)
; #@! TF.FileFunction,Plated,1,2,PTH
FMAT,2
METRIC
; #@! TA.AperFunction,Plated,PTH,ViaDrill
T1C0.500
; #@! TA.AperFunction,Plated,PTH,ComponentDrill
T2C0.600
; #@! TA.AperFunction,Plated,PTH,ComponentDrill
T3C0.800
; #@! TA.AperFunction,Plated,PTH,ComponentDrill
T4C0.850
; #@! TA.AperFunction,Plated,PTH,ComponentDrill
T5C1.000
; #@! TA.AperFunction,Plated,PTH,ComponentDrill
T6C1.020
; #@! TA.AperFunction,Plated,PTH,ComponentDrill
T7C1.200
; #@! TA.AperFunction,Plated,PTH,ComponentDrill
T8C1.500
; #@! TA.AperFunction,Plated,PTH,ComponentDrill
T9C2.300
; #@! TA.AperFunction,Plated,PTH,ComponentDrill
T10C2.500
; #@! TA.AperFunction,Plated,PTH,ComponentDrill
T11C3.000
%
G90
G05
T1
X86.0Y-133.0
X94.75Y-76.0
X95.25Y-83.0
X95.25Y-89.75
X95.25Y-96.0
X95.5Y-137.25
X100.5Y-87.25
X101.25Y-91.25
X102.25Y-82.5
X103.0Y-89.5
X103.0Y-99.5
X106.5Y-137.25
X107.0Y-92.0
X107.5Y-90.0
X108.75Y-91.626
X109.431Y-87.952
X111.25Y-87.624
X112.0Y-86.5
X112.496Y-90.245
X112.75Y-88.0
X113.25Y-92.0
X114.0Y-88.124
X114.0Y-99.376
X114.254Y-89.746
X115.5Y-100.0
X115.75Y-92.0
X116.25Y-90.751
X117.0Y-85.5
X117.0Y-137.25
X117.15Y-90.75
X117.25Y-87.75
X117.5Y-100.25
X117.75Y-82.75
X117.75Y-89.25
X118.067Y-93.433
X118.25Y-92.5
X118.75Y-95.75
X119.75Y-94.874
X121.0Y-86.75
X121.9Y-86.75
X122.799Y-86.75
X123.699Y-86.75
X124.325Y-98.5
X124.5Y-81.25
X124.5Y-82.75
X124.598Y-86.75
X125.498Y-86.75
X125.75Y-90.25
X125.927Y-89.249
X126.0Y-88.0
X126.0Y-91.4
X127.5Y-84.25
X128.0Y-137.0
X128.5Y-84.25
X128.75Y-88.876
X129.0Y-87.25
X129.25Y-79.25
X129.5Y-88.25
X129.5Y-91.0
X129.75Y-92.5
X130.5Y-74.75
X131.25Y-91.25
X133.5Y-93.0
X134.0Y-92.25
X136.0Y-81.5
X136.75Y-85.0
X137.375Y-78.0
X138.0Y-77.0
X138.25Y-81.5
X138.5Y-84.25
X138.75Y-137.0
X139.75Y-87.75
X141.25Y-77.75
X141.5Y-84.25
X149.75Y-137.25
X155.5Y-94.25
X157.5Y-91.725
X159.5Y-71.0
X159.5Y-71.0
X167.5Y-96.25
T2
X83.75Y-95.755
X87.35Y-95.755
T3
X70.25Y-106.547
X72.25Y-106.547
X74.25Y-106.547
T4
X68.5Y-139.605
X71.04Y-139.605
X76.12Y-139.605
X78.66Y-139.605
X81.2Y-139.605
T5
X91.642Y-109.61
X91.642Y-112.15
X91.642Y-114.69
X91.642Y-117.23
X91.642Y-119.77
X91.642Y-122.31
X91.642Y-124.85
X91.642Y-127.39
X166.642Y-109.61
X166.642Y-112.15
X166.642Y-114.69
X166.642Y-117.23
X166.642Y-119.77
X166.642Y-122.31
X166.642Y-124.85
X166.642Y-127.39
T6
X135.753Y-91.0
X145.283Y-91.0
T7
X69.95Y-76.25
X69.95Y-79.75
X69.95Y-83.25
X69.95Y-86.75
X78.0Y-76.25
X78.0Y-79.75
X78.0Y-83.25
X78.0Y-86.75
T8
X68.15Y-106.547
X76.35Y-106.547
T9
X71.5Y-97.25
T10
X70.5Y-92.75
X70.5Y-101.75
T11
X77.5Y-97.25
T0
M30
