%TF.GenerationSoftware,KiCad,Pcbnew,(6.0.9)*%
%TF.CreationDate,2023-01-24T23:05:38+01:00*%
%TF.ProjectId,Projekt,50726f6a-656b-4742-9e6b-696361645f70,rev?*%
%TF.SameCoordinates,Original*%
%TF.FileFunction,Legend,Top*%
%TF.FilePolarity,Positive*%
%FSLAX46Y46*%
G04 Gerber Fmt 4.6, Leading zero omitted, Abs format (unit mm)*
G04 Created by KiCad (PCBNEW (6.0.9)) date 2023-01-24 23:05:38*
%MOMM*%
%LPD*%
G01*
G04 APERTURE LIST*
%ADD10C,0.150000*%
%ADD11C,0.120000*%
G04 APERTURE END LIST*
D10*
%TO.C,J3*%
X126512380Y-97333333D02*
X127226666Y-97333333D01*
X127369523Y-97380952D01*
X127464761Y-97476190D01*
X127512380Y-97619047D01*
X127512380Y-97714285D01*
X126512380Y-96952380D02*
X126512380Y-96333333D01*
X126893333Y-96666666D01*
X126893333Y-96523809D01*
X126940952Y-96428571D01*
X126988571Y-96380952D01*
X127083809Y-96333333D01*
X127321904Y-96333333D01*
X127417142Y-96380952D01*
X127464761Y-96428571D01*
X127512380Y-96523809D01*
X127512380Y-96809523D01*
X127464761Y-96904761D01*
X127417142Y-96952380D01*
%TO.C,J2*%
X69416666Y-72702380D02*
X69416666Y-73416666D01*
X69369047Y-73559523D01*
X69273809Y-73654761D01*
X69130952Y-73702380D01*
X69035714Y-73702380D01*
X69845238Y-72797619D02*
X69892857Y-72750000D01*
X69988095Y-72702380D01*
X70226190Y-72702380D01*
X70321428Y-72750000D01*
X70369047Y-72797619D01*
X70416666Y-72892857D01*
X70416666Y-72988095D01*
X70369047Y-73130952D01*
X69797619Y-73702380D01*
X70416666Y-73702380D01*
%TO.C,J1*%
X77916666Y-72702380D02*
X77916666Y-73416666D01*
X77869047Y-73559523D01*
X77773809Y-73654761D01*
X77630952Y-73702380D01*
X77535714Y-73702380D01*
X78916666Y-73702380D02*
X78345238Y-73702380D01*
X78630952Y-73702380D02*
X78630952Y-72702380D01*
X78535714Y-72845238D01*
X78440476Y-72940476D01*
X78345238Y-72988095D01*
%TO.C,C11*%
X71206026Y-136997142D02*
X71158407Y-137044761D01*
X71015550Y-137092380D01*
X70920312Y-137092380D01*
X70777455Y-137044761D01*
X70682217Y-136949523D01*
X70634598Y-136854285D01*
X70586979Y-136663809D01*
X70586979Y-136520952D01*
X70634598Y-136330476D01*
X70682217Y-136235238D01*
X70777455Y-136140000D01*
X70920312Y-136092380D01*
X71015550Y-136092380D01*
X71158407Y-136140000D01*
X71206026Y-136187619D01*
X72158407Y-137092380D02*
X71586979Y-137092380D01*
X71872693Y-137092380D02*
X71872693Y-136092380D01*
X71777455Y-136235238D01*
X71682217Y-136330476D01*
X71586979Y-136378095D01*
X73110788Y-137092380D02*
X72539360Y-137092380D01*
X72825074Y-137092380D02*
X72825074Y-136092380D01*
X72729836Y-136235238D01*
X72634598Y-136330476D01*
X72539360Y-136378095D01*
%TO.C,R3*%
X98163333Y-92042380D02*
X97830000Y-91566190D01*
X97591904Y-92042380D02*
X97591904Y-91042380D01*
X97972857Y-91042380D01*
X98068095Y-91090000D01*
X98115714Y-91137619D01*
X98163333Y-91232857D01*
X98163333Y-91375714D01*
X98115714Y-91470952D01*
X98068095Y-91518571D01*
X97972857Y-91566190D01*
X97591904Y-91566190D01*
X98496666Y-91042380D02*
X99115714Y-91042380D01*
X98782380Y-91423333D01*
X98925238Y-91423333D01*
X99020476Y-91470952D01*
X99068095Y-91518571D01*
X99115714Y-91613809D01*
X99115714Y-91851904D01*
X99068095Y-91947142D01*
X99020476Y-91994761D01*
X98925238Y-92042380D01*
X98639523Y-92042380D01*
X98544285Y-91994761D01*
X98496666Y-91947142D01*
%TO.C,Q2*%
X93134761Y-79242619D02*
X93039523Y-79195000D01*
X92944285Y-79099761D01*
X92801428Y-78956904D01*
X92706190Y-78909285D01*
X92610952Y-78909285D01*
X92658571Y-79147380D02*
X92563333Y-79099761D01*
X92468095Y-79004523D01*
X92420476Y-78814047D01*
X92420476Y-78480714D01*
X92468095Y-78290238D01*
X92563333Y-78195000D01*
X92658571Y-78147380D01*
X92849047Y-78147380D01*
X92944285Y-78195000D01*
X93039523Y-78290238D01*
X93087142Y-78480714D01*
X93087142Y-78814047D01*
X93039523Y-79004523D01*
X92944285Y-79099761D01*
X92849047Y-79147380D01*
X92658571Y-79147380D01*
X93468095Y-78242619D02*
X93515714Y-78195000D01*
X93610952Y-78147380D01*
X93849047Y-78147380D01*
X93944285Y-78195000D01*
X93991904Y-78242619D01*
X94039523Y-78337857D01*
X94039523Y-78433095D01*
X93991904Y-78575952D01*
X93420476Y-79147380D01*
X94039523Y-79147380D01*
%TO.C,U1*%
X132238095Y-73952380D02*
X132238095Y-74761904D01*
X132285714Y-74857142D01*
X132333333Y-74904761D01*
X132428571Y-74952380D01*
X132619047Y-74952380D01*
X132714285Y-74904761D01*
X132761904Y-74857142D01*
X132809523Y-74761904D01*
X132809523Y-73952380D01*
X133809523Y-74952380D02*
X133238095Y-74952380D01*
X133523809Y-74952380D02*
X133523809Y-73952380D01*
X133428571Y-74095238D01*
X133333333Y-74190476D01*
X133238095Y-74238095D01*
%TO.C,RV1*%
X114154761Y-98452380D02*
X113821428Y-97976190D01*
X113583333Y-98452380D02*
X113583333Y-97452380D01*
X113964285Y-97452380D01*
X114059523Y-97500000D01*
X114107142Y-97547619D01*
X114154761Y-97642857D01*
X114154761Y-97785714D01*
X114107142Y-97880952D01*
X114059523Y-97928571D01*
X113964285Y-97976190D01*
X113583333Y-97976190D01*
X114440476Y-97452380D02*
X114773809Y-98452380D01*
X115107142Y-97452380D01*
X115964285Y-98452380D02*
X115392857Y-98452380D01*
X115678571Y-98452380D02*
X115678571Y-97452380D01*
X115583333Y-97595238D01*
X115488095Y-97690476D01*
X115392857Y-97738095D01*
%TO.C,C6*%
X155583333Y-93357142D02*
X155535714Y-93404761D01*
X155392857Y-93452380D01*
X155297619Y-93452380D01*
X155154761Y-93404761D01*
X155059523Y-93309523D01*
X155011904Y-93214285D01*
X154964285Y-93023809D01*
X154964285Y-92880952D01*
X155011904Y-92690476D01*
X155059523Y-92595238D01*
X155154761Y-92500000D01*
X155297619Y-92452380D01*
X155392857Y-92452380D01*
X155535714Y-92500000D01*
X155583333Y-92547619D01*
X156440476Y-92452380D02*
X156250000Y-92452380D01*
X156154761Y-92500000D01*
X156107142Y-92547619D01*
X156011904Y-92690476D01*
X155964285Y-92880952D01*
X155964285Y-93261904D01*
X156011904Y-93357142D01*
X156059523Y-93404761D01*
X156154761Y-93452380D01*
X156345238Y-93452380D01*
X156440476Y-93404761D01*
X156488095Y-93357142D01*
X156535714Y-93261904D01*
X156535714Y-93023809D01*
X156488095Y-92928571D01*
X156440476Y-92880952D01*
X156345238Y-92833333D01*
X156154761Y-92833333D01*
X156059523Y-92880952D01*
X156011904Y-92928571D01*
X155964285Y-93023809D01*
%TO.C,U3*%
X156488095Y-97952380D02*
X156488095Y-98761904D01*
X156535714Y-98857142D01*
X156583333Y-98904761D01*
X156678571Y-98952380D01*
X156869047Y-98952380D01*
X156964285Y-98904761D01*
X157011904Y-98857142D01*
X157059523Y-98761904D01*
X157059523Y-97952380D01*
X157440476Y-97952380D02*
X158059523Y-97952380D01*
X157726190Y-98333333D01*
X157869047Y-98333333D01*
X157964285Y-98380952D01*
X158011904Y-98428571D01*
X158059523Y-98523809D01*
X158059523Y-98761904D01*
X158011904Y-98857142D01*
X157964285Y-98904761D01*
X157869047Y-98952380D01*
X157583333Y-98952380D01*
X157488095Y-98904761D01*
X157440476Y-98857142D01*
%TO.C,R1*%
X126333333Y-76952380D02*
X126000000Y-76476190D01*
X125761904Y-76952380D02*
X125761904Y-75952380D01*
X126142857Y-75952380D01*
X126238095Y-76000000D01*
X126285714Y-76047619D01*
X126333333Y-76142857D01*
X126333333Y-76285714D01*
X126285714Y-76380952D01*
X126238095Y-76428571D01*
X126142857Y-76476190D01*
X125761904Y-76476190D01*
X127285714Y-76952380D02*
X126714285Y-76952380D01*
X127000000Y-76952380D02*
X127000000Y-75952380D01*
X126904761Y-76095238D01*
X126809523Y-76190476D01*
X126714285Y-76238095D01*
%TO.C,R10*%
X116952380Y-89642857D02*
X116476190Y-89976190D01*
X116952380Y-90214285D02*
X115952380Y-90214285D01*
X115952380Y-89833333D01*
X116000000Y-89738095D01*
X116047619Y-89690476D01*
X116142857Y-89642857D01*
X116285714Y-89642857D01*
X116380952Y-89690476D01*
X116428571Y-89738095D01*
X116476190Y-89833333D01*
X116476190Y-90214285D01*
X116952380Y-88690476D02*
X116952380Y-89261904D01*
X116952380Y-88976190D02*
X115952380Y-88976190D01*
X116095238Y-89071428D01*
X116190476Y-89166666D01*
X116238095Y-89261904D01*
X115952380Y-88071428D02*
X115952380Y-87976190D01*
X116000000Y-87880952D01*
X116047619Y-87833333D01*
X116142857Y-87785714D01*
X116333333Y-87738095D01*
X116571428Y-87738095D01*
X116761904Y-87785714D01*
X116857142Y-87833333D01*
X116904761Y-87880952D01*
X116952380Y-87976190D01*
X116952380Y-88071428D01*
X116904761Y-88166666D01*
X116857142Y-88214285D01*
X116761904Y-88261904D01*
X116571428Y-88309523D01*
X116333333Y-88309523D01*
X116142857Y-88261904D01*
X116047619Y-88214285D01*
X116000000Y-88166666D01*
X115952380Y-88071428D01*
%TO.C,C9*%
X113083333Y-83857142D02*
X113035714Y-83904761D01*
X112892857Y-83952380D01*
X112797619Y-83952380D01*
X112654761Y-83904761D01*
X112559523Y-83809523D01*
X112511904Y-83714285D01*
X112464285Y-83523809D01*
X112464285Y-83380952D01*
X112511904Y-83190476D01*
X112559523Y-83095238D01*
X112654761Y-83000000D01*
X112797619Y-82952380D01*
X112892857Y-82952380D01*
X113035714Y-83000000D01*
X113083333Y-83047619D01*
X113559523Y-83952380D02*
X113750000Y-83952380D01*
X113845238Y-83904761D01*
X113892857Y-83857142D01*
X113988095Y-83714285D01*
X114035714Y-83523809D01*
X114035714Y-83142857D01*
X113988095Y-83047619D01*
X113940476Y-83000000D01*
X113845238Y-82952380D01*
X113654761Y-82952380D01*
X113559523Y-83000000D01*
X113511904Y-83047619D01*
X113464285Y-83142857D01*
X113464285Y-83380952D01*
X113511904Y-83476190D01*
X113559523Y-83523809D01*
X113654761Y-83571428D01*
X113845238Y-83571428D01*
X113940476Y-83523809D01*
X113988095Y-83476190D01*
X114035714Y-83380952D01*
%TO.C,D2*%
X105781904Y-88662380D02*
X105781904Y-87662380D01*
X106020000Y-87662380D01*
X106162857Y-87710000D01*
X106258095Y-87805238D01*
X106305714Y-87900476D01*
X106353333Y-88090952D01*
X106353333Y-88233809D01*
X106305714Y-88424285D01*
X106258095Y-88519523D01*
X106162857Y-88614761D01*
X106020000Y-88662380D01*
X105781904Y-88662380D01*
X106734285Y-87757619D02*
X106781904Y-87710000D01*
X106877142Y-87662380D01*
X107115238Y-87662380D01*
X107210476Y-87710000D01*
X107258095Y-87757619D01*
X107305714Y-87852857D01*
X107305714Y-87948095D01*
X107258095Y-88090952D01*
X106686666Y-88662380D01*
X107305714Y-88662380D01*
%TO.C,R8*%
X104413333Y-88642380D02*
X104080000Y-88166190D01*
X103841904Y-88642380D02*
X103841904Y-87642380D01*
X104222857Y-87642380D01*
X104318095Y-87690000D01*
X104365714Y-87737619D01*
X104413333Y-87832857D01*
X104413333Y-87975714D01*
X104365714Y-88070952D01*
X104318095Y-88118571D01*
X104222857Y-88166190D01*
X103841904Y-88166190D01*
X104984761Y-88070952D02*
X104889523Y-88023333D01*
X104841904Y-87975714D01*
X104794285Y-87880476D01*
X104794285Y-87832857D01*
X104841904Y-87737619D01*
X104889523Y-87690000D01*
X104984761Y-87642380D01*
X105175238Y-87642380D01*
X105270476Y-87690000D01*
X105318095Y-87737619D01*
X105365714Y-87832857D01*
X105365714Y-87880476D01*
X105318095Y-87975714D01*
X105270476Y-88023333D01*
X105175238Y-88070952D01*
X104984761Y-88070952D01*
X104889523Y-88118571D01*
X104841904Y-88166190D01*
X104794285Y-88261428D01*
X104794285Y-88451904D01*
X104841904Y-88547142D01*
X104889523Y-88594761D01*
X104984761Y-88642380D01*
X105175238Y-88642380D01*
X105270476Y-88594761D01*
X105318095Y-88547142D01*
X105365714Y-88451904D01*
X105365714Y-88261428D01*
X105318095Y-88166190D01*
X105270476Y-88118571D01*
X105175238Y-88070952D01*
%TO.C,C10*%
X112857142Y-88357142D02*
X112809523Y-88404761D01*
X112666666Y-88452380D01*
X112571428Y-88452380D01*
X112428571Y-88404761D01*
X112333333Y-88309523D01*
X112285714Y-88214285D01*
X112238095Y-88023809D01*
X112238095Y-87880952D01*
X112285714Y-87690476D01*
X112333333Y-87595238D01*
X112428571Y-87500000D01*
X112571428Y-87452380D01*
X112666666Y-87452380D01*
X112809523Y-87500000D01*
X112857142Y-87547619D01*
X113809523Y-88452380D02*
X113238095Y-88452380D01*
X113523809Y-88452380D02*
X113523809Y-87452380D01*
X113428571Y-87595238D01*
X113333333Y-87690476D01*
X113238095Y-87738095D01*
X114428571Y-87452380D02*
X114523809Y-87452380D01*
X114619047Y-87500000D01*
X114666666Y-87547619D01*
X114714285Y-87642857D01*
X114761904Y-87833333D01*
X114761904Y-88071428D01*
X114714285Y-88261904D01*
X114666666Y-88357142D01*
X114619047Y-88404761D01*
X114523809Y-88452380D01*
X114428571Y-88452380D01*
X114333333Y-88404761D01*
X114285714Y-88357142D01*
X114238095Y-88261904D01*
X114190476Y-88071428D01*
X114190476Y-87833333D01*
X114238095Y-87642857D01*
X114285714Y-87547619D01*
X114333333Y-87500000D01*
X114428571Y-87452380D01*
%TO.C,C3*%
X131913333Y-83597142D02*
X131865714Y-83644761D01*
X131722857Y-83692380D01*
X131627619Y-83692380D01*
X131484761Y-83644761D01*
X131389523Y-83549523D01*
X131341904Y-83454285D01*
X131294285Y-83263809D01*
X131294285Y-83120952D01*
X131341904Y-82930476D01*
X131389523Y-82835238D01*
X131484761Y-82740000D01*
X131627619Y-82692380D01*
X131722857Y-82692380D01*
X131865714Y-82740000D01*
X131913333Y-82787619D01*
X132246666Y-82692380D02*
X132865714Y-82692380D01*
X132532380Y-83073333D01*
X132675238Y-83073333D01*
X132770476Y-83120952D01*
X132818095Y-83168571D01*
X132865714Y-83263809D01*
X132865714Y-83501904D01*
X132818095Y-83597142D01*
X132770476Y-83644761D01*
X132675238Y-83692380D01*
X132389523Y-83692380D01*
X132294285Y-83644761D01*
X132246666Y-83597142D01*
%TO.C,R7*%
X166083333Y-71452380D02*
X165750000Y-70976190D01*
X165511904Y-71452380D02*
X165511904Y-70452380D01*
X165892857Y-70452380D01*
X165988095Y-70500000D01*
X166035714Y-70547619D01*
X166083333Y-70642857D01*
X166083333Y-70785714D01*
X166035714Y-70880952D01*
X165988095Y-70928571D01*
X165892857Y-70976190D01*
X165511904Y-70976190D01*
X166416666Y-70452380D02*
X167083333Y-70452380D01*
X166654761Y-71452380D01*
%TO.C,R9*%
X104453333Y-84272380D02*
X104120000Y-83796190D01*
X103881904Y-84272380D02*
X103881904Y-83272380D01*
X104262857Y-83272380D01*
X104358095Y-83320000D01*
X104405714Y-83367619D01*
X104453333Y-83462857D01*
X104453333Y-83605714D01*
X104405714Y-83700952D01*
X104358095Y-83748571D01*
X104262857Y-83796190D01*
X103881904Y-83796190D01*
X104929523Y-84272380D02*
X105120000Y-84272380D01*
X105215238Y-84224761D01*
X105262857Y-84177142D01*
X105358095Y-84034285D01*
X105405714Y-83843809D01*
X105405714Y-83462857D01*
X105358095Y-83367619D01*
X105310476Y-83320000D01*
X105215238Y-83272380D01*
X105024761Y-83272380D01*
X104929523Y-83320000D01*
X104881904Y-83367619D01*
X104834285Y-83462857D01*
X104834285Y-83700952D01*
X104881904Y-83796190D01*
X104929523Y-83843809D01*
X105024761Y-83891428D01*
X105215238Y-83891428D01*
X105310476Y-83843809D01*
X105358095Y-83796190D01*
X105405714Y-83700952D01*
%TO.C,L1*%
X68333333Y-137452380D02*
X67857142Y-137452380D01*
X67857142Y-136452380D01*
X69190476Y-137452380D02*
X68619047Y-137452380D01*
X68904761Y-137452380D02*
X68904761Y-136452380D01*
X68809523Y-136595238D01*
X68714285Y-136690476D01*
X68619047Y-136738095D01*
%TO.C,U2*%
X122488095Y-82072380D02*
X122488095Y-82881904D01*
X122535714Y-82977142D01*
X122583333Y-83024761D01*
X122678571Y-83072380D01*
X122869047Y-83072380D01*
X122964285Y-83024761D01*
X123011904Y-82977142D01*
X123059523Y-82881904D01*
X123059523Y-82072380D01*
X123488095Y-82167619D02*
X123535714Y-82120000D01*
X123630952Y-82072380D01*
X123869047Y-82072380D01*
X123964285Y-82120000D01*
X124011904Y-82167619D01*
X124059523Y-82262857D01*
X124059523Y-82358095D01*
X124011904Y-82500952D01*
X123440476Y-83072380D01*
X124059523Y-83072380D01*
%TO.C,SW5*%
X136416666Y-141904761D02*
X136559523Y-141952380D01*
X136797619Y-141952380D01*
X136892857Y-141904761D01*
X136940476Y-141857142D01*
X136988095Y-141761904D01*
X136988095Y-141666666D01*
X136940476Y-141571428D01*
X136892857Y-141523809D01*
X136797619Y-141476190D01*
X136607142Y-141428571D01*
X136511904Y-141380952D01*
X136464285Y-141333333D01*
X136416666Y-141238095D01*
X136416666Y-141142857D01*
X136464285Y-141047619D01*
X136511904Y-141000000D01*
X136607142Y-140952380D01*
X136845238Y-140952380D01*
X136988095Y-141000000D01*
X137321428Y-140952380D02*
X137559523Y-141952380D01*
X137750000Y-141238095D01*
X137940476Y-141952380D01*
X138178571Y-140952380D01*
X139035714Y-140952380D02*
X138559523Y-140952380D01*
X138511904Y-141428571D01*
X138559523Y-141380952D01*
X138654761Y-141333333D01*
X138892857Y-141333333D01*
X138988095Y-141380952D01*
X139035714Y-141428571D01*
X139083333Y-141523809D01*
X139083333Y-141761904D01*
X139035714Y-141857142D01*
X138988095Y-141904761D01*
X138892857Y-141952380D01*
X138654761Y-141952380D01*
X138559523Y-141904761D01*
X138511904Y-141857142D01*
%TO.C,SW6*%
X147166666Y-141904761D02*
X147309523Y-141952380D01*
X147547619Y-141952380D01*
X147642857Y-141904761D01*
X147690476Y-141857142D01*
X147738095Y-141761904D01*
X147738095Y-141666666D01*
X147690476Y-141571428D01*
X147642857Y-141523809D01*
X147547619Y-141476190D01*
X147357142Y-141428571D01*
X147261904Y-141380952D01*
X147214285Y-141333333D01*
X147166666Y-141238095D01*
X147166666Y-141142857D01*
X147214285Y-141047619D01*
X147261904Y-141000000D01*
X147357142Y-140952380D01*
X147595238Y-140952380D01*
X147738095Y-141000000D01*
X148071428Y-140952380D02*
X148309523Y-141952380D01*
X148500000Y-141238095D01*
X148690476Y-141952380D01*
X148928571Y-140952380D01*
X149738095Y-140952380D02*
X149547619Y-140952380D01*
X149452380Y-141000000D01*
X149404761Y-141047619D01*
X149309523Y-141190476D01*
X149261904Y-141380952D01*
X149261904Y-141761904D01*
X149309523Y-141857142D01*
X149357142Y-141904761D01*
X149452380Y-141952380D01*
X149642857Y-141952380D01*
X149738095Y-141904761D01*
X149785714Y-141857142D01*
X149833333Y-141761904D01*
X149833333Y-141523809D01*
X149785714Y-141428571D01*
X149738095Y-141380952D01*
X149642857Y-141333333D01*
X149452380Y-141333333D01*
X149357142Y-141380952D01*
X149309523Y-141428571D01*
X149261904Y-141523809D01*
%TO.C,U5*%
X152738095Y-80952380D02*
X152738095Y-81761904D01*
X152785714Y-81857142D01*
X152833333Y-81904761D01*
X152928571Y-81952380D01*
X153119047Y-81952380D01*
X153214285Y-81904761D01*
X153261904Y-81857142D01*
X153309523Y-81761904D01*
X153309523Y-80952380D01*
X154261904Y-80952380D02*
X153785714Y-80952380D01*
X153738095Y-81428571D01*
X153785714Y-81380952D01*
X153880952Y-81333333D01*
X154119047Y-81333333D01*
X154214285Y-81380952D01*
X154261904Y-81428571D01*
X154309523Y-81523809D01*
X154309523Y-81761904D01*
X154261904Y-81857142D01*
X154214285Y-81904761D01*
X154119047Y-81952380D01*
X153880952Y-81952380D01*
X153785714Y-81904761D01*
X153738095Y-81857142D01*
%TO.C,BT1*%
X134964285Y-87328571D02*
X135107142Y-87376190D01*
X135154761Y-87423809D01*
X135202380Y-87519047D01*
X135202380Y-87661904D01*
X135154761Y-87757142D01*
X135107142Y-87804761D01*
X135011904Y-87852380D01*
X134630952Y-87852380D01*
X134630952Y-86852380D01*
X134964285Y-86852380D01*
X135059523Y-86900000D01*
X135107142Y-86947619D01*
X135154761Y-87042857D01*
X135154761Y-87138095D01*
X135107142Y-87233333D01*
X135059523Y-87280952D01*
X134964285Y-87328571D01*
X134630952Y-87328571D01*
X135488095Y-86852380D02*
X136059523Y-86852380D01*
X135773809Y-87852380D02*
X135773809Y-86852380D01*
X136916666Y-87852380D02*
X136345238Y-87852380D01*
X136630952Y-87852380D02*
X136630952Y-86852380D01*
X136535714Y-86995238D01*
X136440476Y-87090476D01*
X136345238Y-87138095D01*
%TO.C,PS1*%
X86785714Y-141452380D02*
X86785714Y-140452380D01*
X87166666Y-140452380D01*
X87261904Y-140500000D01*
X87309523Y-140547619D01*
X87357142Y-140642857D01*
X87357142Y-140785714D01*
X87309523Y-140880952D01*
X87261904Y-140928571D01*
X87166666Y-140976190D01*
X86785714Y-140976190D01*
X87738095Y-141404761D02*
X87880952Y-141452380D01*
X88119047Y-141452380D01*
X88214285Y-141404761D01*
X88261904Y-141357142D01*
X88309523Y-141261904D01*
X88309523Y-141166666D01*
X88261904Y-141071428D01*
X88214285Y-141023809D01*
X88119047Y-140976190D01*
X87928571Y-140928571D01*
X87833333Y-140880952D01*
X87785714Y-140833333D01*
X87738095Y-140738095D01*
X87738095Y-140642857D01*
X87785714Y-140547619D01*
X87833333Y-140500000D01*
X87928571Y-140452380D01*
X88166666Y-140452380D01*
X88309523Y-140500000D01*
X89261904Y-141452380D02*
X88690476Y-141452380D01*
X88976190Y-141452380D02*
X88976190Y-140452380D01*
X88880952Y-140595238D01*
X88785714Y-140690476D01*
X88690476Y-140738095D01*
%TO.C,Q1*%
X93154761Y-99047619D02*
X93059523Y-99000000D01*
X92964285Y-98904761D01*
X92821428Y-98761904D01*
X92726190Y-98714285D01*
X92630952Y-98714285D01*
X92678571Y-98952380D02*
X92583333Y-98904761D01*
X92488095Y-98809523D01*
X92440476Y-98619047D01*
X92440476Y-98285714D01*
X92488095Y-98095238D01*
X92583333Y-98000000D01*
X92678571Y-97952380D01*
X92869047Y-97952380D01*
X92964285Y-98000000D01*
X93059523Y-98095238D01*
X93107142Y-98285714D01*
X93107142Y-98619047D01*
X93059523Y-98809523D01*
X92964285Y-98904761D01*
X92869047Y-98952380D01*
X92678571Y-98952380D01*
X94059523Y-98952380D02*
X93488095Y-98952380D01*
X93773809Y-98952380D02*
X93773809Y-97952380D01*
X93678571Y-98095238D01*
X93583333Y-98190476D01*
X93488095Y-98238095D01*
%TO.C,C1*%
X138083333Y-75857142D02*
X138035714Y-75904761D01*
X137892857Y-75952380D01*
X137797619Y-75952380D01*
X137654761Y-75904761D01*
X137559523Y-75809523D01*
X137511904Y-75714285D01*
X137464285Y-75523809D01*
X137464285Y-75380952D01*
X137511904Y-75190476D01*
X137559523Y-75095238D01*
X137654761Y-75000000D01*
X137797619Y-74952380D01*
X137892857Y-74952380D01*
X138035714Y-75000000D01*
X138083333Y-75047619D01*
X139035714Y-75952380D02*
X138464285Y-75952380D01*
X138750000Y-75952380D02*
X138750000Y-74952380D01*
X138654761Y-75095238D01*
X138559523Y-75190476D01*
X138464285Y-75238095D01*
%TO.C,SW1*%
X92666666Y-141904761D02*
X92809523Y-141952380D01*
X93047619Y-141952380D01*
X93142857Y-141904761D01*
X93190476Y-141857142D01*
X93238095Y-141761904D01*
X93238095Y-141666666D01*
X93190476Y-141571428D01*
X93142857Y-141523809D01*
X93047619Y-141476190D01*
X92857142Y-141428571D01*
X92761904Y-141380952D01*
X92714285Y-141333333D01*
X92666666Y-141238095D01*
X92666666Y-141142857D01*
X92714285Y-141047619D01*
X92761904Y-141000000D01*
X92857142Y-140952380D01*
X93095238Y-140952380D01*
X93238095Y-141000000D01*
X93571428Y-140952380D02*
X93809523Y-141952380D01*
X94000000Y-141238095D01*
X94190476Y-141952380D01*
X94428571Y-140952380D01*
X95333333Y-141952380D02*
X94761904Y-141952380D01*
X95047619Y-141952380D02*
X95047619Y-140952380D01*
X94952380Y-141095238D01*
X94857142Y-141190476D01*
X94761904Y-141238095D01*
%TO.C,C5*%
X120358333Y-79927142D02*
X120310714Y-79974761D01*
X120167857Y-80022380D01*
X120072619Y-80022380D01*
X119929761Y-79974761D01*
X119834523Y-79879523D01*
X119786904Y-79784285D01*
X119739285Y-79593809D01*
X119739285Y-79450952D01*
X119786904Y-79260476D01*
X119834523Y-79165238D01*
X119929761Y-79070000D01*
X120072619Y-79022380D01*
X120167857Y-79022380D01*
X120310714Y-79070000D01*
X120358333Y-79117619D01*
X121263095Y-79022380D02*
X120786904Y-79022380D01*
X120739285Y-79498571D01*
X120786904Y-79450952D01*
X120882142Y-79403333D01*
X121120238Y-79403333D01*
X121215476Y-79450952D01*
X121263095Y-79498571D01*
X121310714Y-79593809D01*
X121310714Y-79831904D01*
X121263095Y-79927142D01*
X121215476Y-79974761D01*
X121120238Y-80022380D01*
X120882142Y-80022380D01*
X120786904Y-79974761D01*
X120739285Y-79927142D01*
%TO.C,R6*%
X97943333Y-76812380D02*
X97610000Y-76336190D01*
X97371904Y-76812380D02*
X97371904Y-75812380D01*
X97752857Y-75812380D01*
X97848095Y-75860000D01*
X97895714Y-75907619D01*
X97943333Y-76002857D01*
X97943333Y-76145714D01*
X97895714Y-76240952D01*
X97848095Y-76288571D01*
X97752857Y-76336190D01*
X97371904Y-76336190D01*
X98800476Y-75812380D02*
X98610000Y-75812380D01*
X98514761Y-75860000D01*
X98467142Y-75907619D01*
X98371904Y-76050476D01*
X98324285Y-76240952D01*
X98324285Y-76621904D01*
X98371904Y-76717142D01*
X98419523Y-76764761D01*
X98514761Y-76812380D01*
X98705238Y-76812380D01*
X98800476Y-76764761D01*
X98848095Y-76717142D01*
X98895714Y-76621904D01*
X98895714Y-76383809D01*
X98848095Y-76288571D01*
X98800476Y-76240952D01*
X98705238Y-76193333D01*
X98514761Y-76193333D01*
X98419523Y-76240952D01*
X98371904Y-76288571D01*
X98324285Y-76383809D01*
%TO.C,C7*%
X85833333Y-109607142D02*
X85785714Y-109654761D01*
X85642857Y-109702380D01*
X85547619Y-109702380D01*
X85404761Y-109654761D01*
X85309523Y-109559523D01*
X85261904Y-109464285D01*
X85214285Y-109273809D01*
X85214285Y-109130952D01*
X85261904Y-108940476D01*
X85309523Y-108845238D01*
X85404761Y-108750000D01*
X85547619Y-108702380D01*
X85642857Y-108702380D01*
X85785714Y-108750000D01*
X85833333Y-108797619D01*
X86166666Y-108702380D02*
X86833333Y-108702380D01*
X86404761Y-109702380D01*
%TO.C,J4*%
X85216666Y-93207380D02*
X85216666Y-93921666D01*
X85169047Y-94064523D01*
X85073809Y-94159761D01*
X84930952Y-94207380D01*
X84835714Y-94207380D01*
X86121428Y-93540714D02*
X86121428Y-94207380D01*
X85883333Y-93159761D02*
X85645238Y-93874047D01*
X86264285Y-93874047D01*
%TO.C,SW2*%
X103416666Y-142154761D02*
X103559523Y-142202380D01*
X103797619Y-142202380D01*
X103892857Y-142154761D01*
X103940476Y-142107142D01*
X103988095Y-142011904D01*
X103988095Y-141916666D01*
X103940476Y-141821428D01*
X103892857Y-141773809D01*
X103797619Y-141726190D01*
X103607142Y-141678571D01*
X103511904Y-141630952D01*
X103464285Y-141583333D01*
X103416666Y-141488095D01*
X103416666Y-141392857D01*
X103464285Y-141297619D01*
X103511904Y-141250000D01*
X103607142Y-141202380D01*
X103845238Y-141202380D01*
X103988095Y-141250000D01*
X104321428Y-141202380D02*
X104559523Y-142202380D01*
X104750000Y-141488095D01*
X104940476Y-142202380D01*
X105178571Y-141202380D01*
X105511904Y-141297619D02*
X105559523Y-141250000D01*
X105654761Y-141202380D01*
X105892857Y-141202380D01*
X105988095Y-141250000D01*
X106035714Y-141297619D01*
X106083333Y-141392857D01*
X106083333Y-141488095D01*
X106035714Y-141630952D01*
X105464285Y-142202380D01*
X106083333Y-142202380D01*
%TO.C,U7*%
X67328095Y-110162380D02*
X67328095Y-110971904D01*
X67375714Y-111067142D01*
X67423333Y-111114761D01*
X67518571Y-111162380D01*
X67709047Y-111162380D01*
X67804285Y-111114761D01*
X67851904Y-111067142D01*
X67899523Y-110971904D01*
X67899523Y-110162380D01*
X68280476Y-110162380D02*
X68947142Y-110162380D01*
X68518571Y-111162380D01*
%TO.C,Q4*%
X93134761Y-72337619D02*
X93039523Y-72290000D01*
X92944285Y-72194761D01*
X92801428Y-72051904D01*
X92706190Y-72004285D01*
X92610952Y-72004285D01*
X92658571Y-72242380D02*
X92563333Y-72194761D01*
X92468095Y-72099523D01*
X92420476Y-71909047D01*
X92420476Y-71575714D01*
X92468095Y-71385238D01*
X92563333Y-71290000D01*
X92658571Y-71242380D01*
X92849047Y-71242380D01*
X92944285Y-71290000D01*
X93039523Y-71385238D01*
X93087142Y-71575714D01*
X93087142Y-71909047D01*
X93039523Y-72099523D01*
X92944285Y-72194761D01*
X92849047Y-72242380D01*
X92658571Y-72242380D01*
X93944285Y-71575714D02*
X93944285Y-72242380D01*
X93706190Y-71194761D02*
X93468095Y-71909047D01*
X94087142Y-71909047D01*
%TO.C,R2*%
X126333333Y-79952380D02*
X126000000Y-79476190D01*
X125761904Y-79952380D02*
X125761904Y-78952380D01*
X126142857Y-78952380D01*
X126238095Y-79000000D01*
X126285714Y-79047619D01*
X126333333Y-79142857D01*
X126333333Y-79285714D01*
X126285714Y-79380952D01*
X126238095Y-79428571D01*
X126142857Y-79476190D01*
X125761904Y-79476190D01*
X126714285Y-79047619D02*
X126761904Y-79000000D01*
X126857142Y-78952380D01*
X127095238Y-78952380D01*
X127190476Y-79000000D01*
X127238095Y-79047619D01*
X127285714Y-79142857D01*
X127285714Y-79238095D01*
X127238095Y-79380952D01*
X126666666Y-79952380D01*
X127285714Y-79952380D01*
%TO.C,J5*%
X80702380Y-100583333D02*
X81416666Y-100583333D01*
X81559523Y-100630952D01*
X81654761Y-100726190D01*
X81702380Y-100869047D01*
X81702380Y-100964285D01*
X80702380Y-99630952D02*
X80702380Y-100107142D01*
X81178571Y-100154761D01*
X81130952Y-100107142D01*
X81083333Y-100011904D01*
X81083333Y-99773809D01*
X81130952Y-99678571D01*
X81178571Y-99630952D01*
X81273809Y-99583333D01*
X81511904Y-99583333D01*
X81607142Y-99630952D01*
X81654761Y-99678571D01*
X81702380Y-99773809D01*
X81702380Y-100011904D01*
X81654761Y-100107142D01*
X81607142Y-100154761D01*
%TO.C,Q3*%
X93204761Y-86097619D02*
X93109523Y-86050000D01*
X93014285Y-85954761D01*
X92871428Y-85811904D01*
X92776190Y-85764285D01*
X92680952Y-85764285D01*
X92728571Y-86002380D02*
X92633333Y-85954761D01*
X92538095Y-85859523D01*
X92490476Y-85669047D01*
X92490476Y-85335714D01*
X92538095Y-85145238D01*
X92633333Y-85050000D01*
X92728571Y-85002380D01*
X92919047Y-85002380D01*
X93014285Y-85050000D01*
X93109523Y-85145238D01*
X93157142Y-85335714D01*
X93157142Y-85669047D01*
X93109523Y-85859523D01*
X93014285Y-85954761D01*
X92919047Y-86002380D01*
X92728571Y-86002380D01*
X93490476Y-85002380D02*
X94109523Y-85002380D01*
X93776190Y-85383333D01*
X93919047Y-85383333D01*
X94014285Y-85430952D01*
X94061904Y-85478571D01*
X94109523Y-85573809D01*
X94109523Y-85811904D01*
X94061904Y-85907142D01*
X94014285Y-85954761D01*
X93919047Y-86002380D01*
X93633333Y-86002380D01*
X93538095Y-85954761D01*
X93490476Y-85907142D01*
%TO.C,U6*%
X108988095Y-86452380D02*
X108988095Y-87261904D01*
X109035714Y-87357142D01*
X109083333Y-87404761D01*
X109178571Y-87452380D01*
X109369047Y-87452380D01*
X109464285Y-87404761D01*
X109511904Y-87357142D01*
X109559523Y-87261904D01*
X109559523Y-86452380D01*
X110464285Y-86452380D02*
X110273809Y-86452380D01*
X110178571Y-86500000D01*
X110130952Y-86547619D01*
X110035714Y-86690476D01*
X109988095Y-86880952D01*
X109988095Y-87261904D01*
X110035714Y-87357142D01*
X110083333Y-87404761D01*
X110178571Y-87452380D01*
X110369047Y-87452380D01*
X110464285Y-87404761D01*
X110511904Y-87357142D01*
X110559523Y-87261904D01*
X110559523Y-87023809D01*
X110511904Y-86928571D01*
X110464285Y-86880952D01*
X110369047Y-86833333D01*
X110178571Y-86833333D01*
X110083333Y-86880952D01*
X110035714Y-86928571D01*
X109988095Y-87023809D01*
%TO.C,R5*%
X98013333Y-86062380D02*
X97680000Y-85586190D01*
X97441904Y-86062380D02*
X97441904Y-85062380D01*
X97822857Y-85062380D01*
X97918095Y-85110000D01*
X97965714Y-85157619D01*
X98013333Y-85252857D01*
X98013333Y-85395714D01*
X97965714Y-85490952D01*
X97918095Y-85538571D01*
X97822857Y-85586190D01*
X97441904Y-85586190D01*
X98918095Y-85062380D02*
X98441904Y-85062380D01*
X98394285Y-85538571D01*
X98441904Y-85490952D01*
X98537142Y-85443333D01*
X98775238Y-85443333D01*
X98870476Y-85490952D01*
X98918095Y-85538571D01*
X98965714Y-85633809D01*
X98965714Y-85871904D01*
X98918095Y-85967142D01*
X98870476Y-86014761D01*
X98775238Y-86062380D01*
X98537142Y-86062380D01*
X98441904Y-86014761D01*
X98394285Y-85967142D01*
%TO.C,SW7*%
X78166666Y-106904761D02*
X78309523Y-106952380D01*
X78547619Y-106952380D01*
X78642857Y-106904761D01*
X78690476Y-106857142D01*
X78738095Y-106761904D01*
X78738095Y-106666666D01*
X78690476Y-106571428D01*
X78642857Y-106523809D01*
X78547619Y-106476190D01*
X78357142Y-106428571D01*
X78261904Y-106380952D01*
X78214285Y-106333333D01*
X78166666Y-106238095D01*
X78166666Y-106142857D01*
X78214285Y-106047619D01*
X78261904Y-106000000D01*
X78357142Y-105952380D01*
X78595238Y-105952380D01*
X78738095Y-106000000D01*
X79071428Y-105952380D02*
X79309523Y-106952380D01*
X79500000Y-106238095D01*
X79690476Y-106952380D01*
X79928571Y-105952380D01*
X80214285Y-105952380D02*
X80880952Y-105952380D01*
X80452380Y-106952380D01*
%TO.C,SW3*%
X114416666Y-141904761D02*
X114559523Y-141952380D01*
X114797619Y-141952380D01*
X114892857Y-141904761D01*
X114940476Y-141857142D01*
X114988095Y-141761904D01*
X114988095Y-141666666D01*
X114940476Y-141571428D01*
X114892857Y-141523809D01*
X114797619Y-141476190D01*
X114607142Y-141428571D01*
X114511904Y-141380952D01*
X114464285Y-141333333D01*
X114416666Y-141238095D01*
X114416666Y-141142857D01*
X114464285Y-141047619D01*
X114511904Y-141000000D01*
X114607142Y-140952380D01*
X114845238Y-140952380D01*
X114988095Y-141000000D01*
X115321428Y-140952380D02*
X115559523Y-141952380D01*
X115750000Y-141238095D01*
X115940476Y-141952380D01*
X116178571Y-140952380D01*
X116464285Y-140952380D02*
X117083333Y-140952380D01*
X116750000Y-141333333D01*
X116892857Y-141333333D01*
X116988095Y-141380952D01*
X117035714Y-141428571D01*
X117083333Y-141523809D01*
X117083333Y-141761904D01*
X117035714Y-141857142D01*
X116988095Y-141904761D01*
X116892857Y-141952380D01*
X116607142Y-141952380D01*
X116511904Y-141904761D01*
X116464285Y-141857142D01*
%TO.C,C8*%
X162333333Y-91357142D02*
X162285714Y-91404761D01*
X162142857Y-91452380D01*
X162047619Y-91452380D01*
X161904761Y-91404761D01*
X161809523Y-91309523D01*
X161761904Y-91214285D01*
X161714285Y-91023809D01*
X161714285Y-90880952D01*
X161761904Y-90690476D01*
X161809523Y-90595238D01*
X161904761Y-90500000D01*
X162047619Y-90452380D01*
X162142857Y-90452380D01*
X162285714Y-90500000D01*
X162333333Y-90547619D01*
X162904761Y-90880952D02*
X162809523Y-90833333D01*
X162761904Y-90785714D01*
X162714285Y-90690476D01*
X162714285Y-90642857D01*
X162761904Y-90547619D01*
X162809523Y-90500000D01*
X162904761Y-90452380D01*
X163095238Y-90452380D01*
X163190476Y-90500000D01*
X163238095Y-90547619D01*
X163285714Y-90642857D01*
X163285714Y-90690476D01*
X163238095Y-90785714D01*
X163190476Y-90833333D01*
X163095238Y-90880952D01*
X162904761Y-90880952D01*
X162809523Y-90928571D01*
X162761904Y-90976190D01*
X162714285Y-91071428D01*
X162714285Y-91261904D01*
X162761904Y-91357142D01*
X162809523Y-91404761D01*
X162904761Y-91452380D01*
X163095238Y-91452380D01*
X163190476Y-91404761D01*
X163238095Y-91357142D01*
X163285714Y-91261904D01*
X163285714Y-91071428D01*
X163238095Y-90976190D01*
X163190476Y-90928571D01*
X163095238Y-90880952D01*
%TO.C,R4*%
X98203333Y-83567380D02*
X97870000Y-83091190D01*
X97631904Y-83567380D02*
X97631904Y-82567380D01*
X98012857Y-82567380D01*
X98108095Y-82615000D01*
X98155714Y-82662619D01*
X98203333Y-82757857D01*
X98203333Y-82900714D01*
X98155714Y-82995952D01*
X98108095Y-83043571D01*
X98012857Y-83091190D01*
X97631904Y-83091190D01*
X99060476Y-82900714D02*
X99060476Y-83567380D01*
X98822380Y-82519761D02*
X98584285Y-83234047D01*
X99203333Y-83234047D01*
%TO.C,C2*%
X138083333Y-80357142D02*
X138035714Y-80404761D01*
X137892857Y-80452380D01*
X137797619Y-80452380D01*
X137654761Y-80404761D01*
X137559523Y-80309523D01*
X137511904Y-80214285D01*
X137464285Y-80023809D01*
X137464285Y-79880952D01*
X137511904Y-79690476D01*
X137559523Y-79595238D01*
X137654761Y-79500000D01*
X137797619Y-79452380D01*
X137892857Y-79452380D01*
X138035714Y-79500000D01*
X138083333Y-79547619D01*
X138464285Y-79547619D02*
X138511904Y-79500000D01*
X138607142Y-79452380D01*
X138845238Y-79452380D01*
X138940476Y-79500000D01*
X138988095Y-79547619D01*
X139035714Y-79642857D01*
X139035714Y-79738095D01*
X138988095Y-79880952D01*
X138416666Y-80452380D01*
X139035714Y-80452380D01*
%TO.C,Y1*%
X147273809Y-77976190D02*
X147273809Y-78452380D01*
X146940476Y-77452380D02*
X147273809Y-77976190D01*
X147607142Y-77452380D01*
X148464285Y-78452380D02*
X147892857Y-78452380D01*
X148178571Y-78452380D02*
X148178571Y-77452380D01*
X148083333Y-77595238D01*
X147988095Y-77690476D01*
X147892857Y-77738095D01*
%TO.C,SW4*%
X125416666Y-141904761D02*
X125559523Y-141952380D01*
X125797619Y-141952380D01*
X125892857Y-141904761D01*
X125940476Y-141857142D01*
X125988095Y-141761904D01*
X125988095Y-141666666D01*
X125940476Y-141571428D01*
X125892857Y-141523809D01*
X125797619Y-141476190D01*
X125607142Y-141428571D01*
X125511904Y-141380952D01*
X125464285Y-141333333D01*
X125416666Y-141238095D01*
X125416666Y-141142857D01*
X125464285Y-141047619D01*
X125511904Y-141000000D01*
X125607142Y-140952380D01*
X125845238Y-140952380D01*
X125988095Y-141000000D01*
X126321428Y-140952380D02*
X126559523Y-141952380D01*
X126750000Y-141238095D01*
X126940476Y-141952380D01*
X127178571Y-140952380D01*
X127988095Y-141285714D02*
X127988095Y-141952380D01*
X127750000Y-140904761D02*
X127511904Y-141619047D01*
X128130952Y-141619047D01*
%TO.C,U4*%
X128988095Y-98702380D02*
X128988095Y-99511904D01*
X129035714Y-99607142D01*
X129083333Y-99654761D01*
X129178571Y-99702380D01*
X129369047Y-99702380D01*
X129464285Y-99654761D01*
X129511904Y-99607142D01*
X129559523Y-99511904D01*
X129559523Y-98702380D01*
X130464285Y-99035714D02*
X130464285Y-99702380D01*
X130226190Y-98654761D02*
X129988095Y-99369047D01*
X130607142Y-99369047D01*
%TO.C,C4*%
X115083333Y-83857142D02*
X115035714Y-83904761D01*
X114892857Y-83952380D01*
X114797619Y-83952380D01*
X114654761Y-83904761D01*
X114559523Y-83809523D01*
X114511904Y-83714285D01*
X114464285Y-83523809D01*
X114464285Y-83380952D01*
X114511904Y-83190476D01*
X114559523Y-83095238D01*
X114654761Y-83000000D01*
X114797619Y-82952380D01*
X114892857Y-82952380D01*
X115035714Y-83000000D01*
X115083333Y-83047619D01*
X115940476Y-83285714D02*
X115940476Y-83952380D01*
X115702380Y-82904761D02*
X115464285Y-83619047D01*
X116083333Y-83619047D01*
%TO.C,D1*%
X105851904Y-84207380D02*
X105851904Y-83207380D01*
X106090000Y-83207380D01*
X106232857Y-83255000D01*
X106328095Y-83350238D01*
X106375714Y-83445476D01*
X106423333Y-83635952D01*
X106423333Y-83778809D01*
X106375714Y-83969285D01*
X106328095Y-84064523D01*
X106232857Y-84159761D01*
X106090000Y-84207380D01*
X105851904Y-84207380D01*
X107375714Y-84207380D02*
X106804285Y-84207380D01*
X107090000Y-84207380D02*
X107090000Y-83207380D01*
X106994761Y-83350238D01*
X106899523Y-83445476D01*
X106804285Y-83493095D01*
D11*
%TO.C,J3*%
X126060000Y-97695000D02*
X126060000Y-97695000D01*
X119940000Y-96305000D02*
X119940000Y-96305000D01*
X124940000Y-97695000D02*
X124060000Y-97695000D01*
X121940000Y-96305000D02*
X121060000Y-96305000D01*
X123940000Y-96305000D02*
X123060000Y-96305000D01*
X119940000Y-96305000D02*
X119940000Y-97695000D01*
X122940000Y-97695000D02*
X122060000Y-97695000D01*
X120940000Y-97695000D02*
X119940000Y-97695000D01*
X126060000Y-97695000D02*
X126060000Y-98690000D01*
X126060000Y-96305000D02*
X126060000Y-97695000D01*
X126060000Y-96305000D02*
X125060000Y-96305000D01*
X125940000Y-96305000D02*
X125060000Y-96305000D01*
%TO.C,J2*%
X69009000Y-78605000D02*
X68881000Y-78476000D01*
X73110000Y-88560000D02*
X65390000Y-88560000D01*
X71225000Y-87820000D02*
X71131000Y-87726000D01*
X69009000Y-82105000D02*
X68881000Y-81976000D01*
X65790000Y-74200000D02*
X65150000Y-74200000D01*
X71019000Y-88025000D02*
X70891000Y-87896000D01*
X68769000Y-78775000D02*
X68676000Y-78681000D01*
X71019000Y-84525000D02*
X70891000Y-84396000D01*
X71225000Y-80820000D02*
X71131000Y-80726000D01*
X66950000Y-74440000D02*
X66950000Y-88560000D01*
X69009000Y-85605000D02*
X68881000Y-85476000D01*
X71019000Y-81025000D02*
X70891000Y-80896000D01*
X73110000Y-74440000D02*
X65390000Y-74440000D01*
X68769000Y-82275000D02*
X68676000Y-82181000D01*
X68769000Y-85775000D02*
X68676000Y-85681000D01*
X71225000Y-84320000D02*
X71131000Y-84226000D01*
X65850000Y-74440000D02*
X65850000Y-88560000D01*
X73110000Y-74440000D02*
X73110000Y-88560000D01*
X65150000Y-74200000D02*
X65150000Y-74600000D01*
X65390000Y-74440000D02*
X65390000Y-88560000D01*
X70816000Y-74809999D02*
G75*
G03*
X69060106Y-74824642I-866000J-1439999D01*
G01*
X68510000Y-75384000D02*
G75*
G03*
X68269901Y-76278674I1440014J-866003D01*
G01*
X68270000Y-76250000D02*
G75*
G03*
X68525279Y-77140264I1679990J-3D01*
G01*
X69059000Y-77675000D02*
G75*
G03*
X70840193Y-77675504I891000J1425003D01*
G01*
X71390001Y-77116000D02*
G75*
G03*
X71375358Y-75360106I-1439999J866000D01*
G01*
X71630000Y-86750000D02*
G75*
G03*
X71630000Y-86750000I-1680000J0D01*
G01*
X71630000Y-79750000D02*
G75*
G03*
X71630000Y-79750000I-1680000J0D01*
G01*
X71630000Y-83250000D02*
G75*
G03*
X71630000Y-83250000I-1680000J0D01*
G01*
%TO.C,J1*%
X78941000Y-84395000D02*
X79069000Y-84524000D01*
X74840000Y-74440000D02*
X82560000Y-74440000D01*
X76725000Y-75180000D02*
X76819000Y-75274000D01*
X78941000Y-80895000D02*
X79069000Y-81024000D01*
X82160000Y-88800000D02*
X82800000Y-88800000D01*
X76931000Y-74975000D02*
X77059000Y-75104000D01*
X79181000Y-84225000D02*
X79274000Y-84319000D01*
X76931000Y-78475000D02*
X77059000Y-78604000D01*
X76725000Y-82180000D02*
X76819000Y-82274000D01*
X81000000Y-88560000D02*
X81000000Y-74440000D01*
X78941000Y-77395000D02*
X79069000Y-77524000D01*
X76931000Y-81975000D02*
X77059000Y-82104000D01*
X74840000Y-88560000D02*
X82560000Y-88560000D01*
X79181000Y-80725000D02*
X79274000Y-80819000D01*
X79181000Y-77225000D02*
X79274000Y-77319000D01*
X76725000Y-78680000D02*
X76819000Y-78774000D01*
X82100000Y-88560000D02*
X82100000Y-74440000D01*
X74840000Y-88560000D02*
X74840000Y-74440000D01*
X82800000Y-88800000D02*
X82800000Y-88400000D01*
X82560000Y-88560000D02*
X82560000Y-74440000D01*
X77134000Y-88190001D02*
G75*
G03*
X78889894Y-88175358I866000J1439999D01*
G01*
X79440000Y-87616000D02*
G75*
G03*
X79680099Y-86721326I-1440014J866003D01*
G01*
X79680000Y-86750000D02*
G75*
G03*
X79424721Y-85859736I-1679990J3D01*
G01*
X78891000Y-85325000D02*
G75*
G03*
X77109807Y-85324496I-891000J-1425003D01*
G01*
X76559999Y-85884000D02*
G75*
G03*
X76574642Y-87639894I1439999J-866000D01*
G01*
X79680000Y-76250000D02*
G75*
G03*
X79680000Y-76250000I-1680000J0D01*
G01*
X79680000Y-83250000D02*
G75*
G03*
X79680000Y-83250000I-1680000J0D01*
G01*
X79680000Y-79750000D02*
G75*
G03*
X79680000Y-79750000I-1680000J0D01*
G01*
%TO.C,C11*%
X71956720Y-135120000D02*
X71741048Y-135120000D01*
X71956720Y-135840000D02*
X71741048Y-135840000D01*
%TO.C,R3*%
X97727500Y-94017258D02*
X97727500Y-93542742D01*
X98772500Y-94017258D02*
X98772500Y-93542742D01*
%TO.C,Q2*%
X96050000Y-79505000D02*
X96150000Y-79605000D01*
X90350000Y-79605000D02*
X90450000Y-79505000D01*
X96150000Y-84405000D02*
X96050000Y-84505000D01*
X96050000Y-84505000D02*
X90450000Y-84505000D01*
X90450000Y-79505000D02*
X96050000Y-79505000D01*
X90450000Y-84505000D02*
X90350000Y-84405000D01*
X89600000Y-79605000D02*
X90350000Y-79605000D01*
%TO.C,U1*%
X133250000Y-80560000D02*
X136700000Y-80560000D01*
X133250000Y-75440000D02*
X135200000Y-75440000D01*
X133250000Y-80560000D02*
X131300000Y-80560000D01*
X133250000Y-75440000D02*
X131300000Y-75440000D01*
%TO.C,RV1*%
X106380000Y-94841000D02*
X106380000Y-96660000D01*
X106916000Y-99120000D02*
X113120000Y-99120000D01*
X113120000Y-96990000D02*
X113120000Y-99120000D01*
X113120000Y-92379000D02*
X113120000Y-94510000D01*
X106916000Y-92379000D02*
X113120000Y-92379000D01*
%TO.C,C6*%
X158010000Y-93359420D02*
X158010000Y-93640580D01*
X156990000Y-93359420D02*
X156990000Y-93640580D01*
%TO.C,U3*%
X168810000Y-95750000D02*
X168810000Y-93800000D01*
X158690000Y-95750000D02*
X158690000Y-93800000D01*
X158690000Y-95750000D02*
X158690000Y-99200000D01*
X168810000Y-95750000D02*
X168810000Y-97700000D01*
%TO.C,R1*%
X127727500Y-76012742D02*
X127727500Y-76487258D01*
X128772500Y-76012742D02*
X128772500Y-76487258D01*
%TO.C,R10*%
X115772500Y-90012742D02*
X115772500Y-90487258D01*
X114727500Y-90012742D02*
X114727500Y-90487258D01*
%TO.C,C9*%
X113760000Y-85890580D02*
X113760000Y-85609420D01*
X112740000Y-85890580D02*
X112740000Y-85609420D01*
%TO.C,D2*%
X105765000Y-89450000D02*
X105765000Y-91735000D01*
X107235000Y-91735000D02*
X107235000Y-89450000D01*
X105765000Y-91735000D02*
X107235000Y-91735000D01*
%TO.C,R8*%
X105022500Y-90487258D02*
X105022500Y-90012742D01*
X103977500Y-90487258D02*
X103977500Y-90012742D01*
%TO.C,C10*%
X112740000Y-90390580D02*
X112740000Y-90109420D01*
X113760000Y-90390580D02*
X113760000Y-90109420D01*
%TO.C,C3*%
X131859420Y-82260000D02*
X132140580Y-82260000D01*
X131859420Y-81240000D02*
X132140580Y-81240000D01*
%TO.C,R7*%
X163262742Y-71522500D02*
X163737258Y-71522500D01*
X163262742Y-70477500D02*
X163737258Y-70477500D01*
%TO.C,R9*%
X103977500Y-86237258D02*
X103977500Y-85762742D01*
X105022500Y-86237258D02*
X105022500Y-85762742D01*
%TO.C,L1*%
X68186105Y-135990000D02*
X68511663Y-135990000D01*
X68186105Y-134970000D02*
X68511663Y-134970000D01*
%TO.C,U2*%
X119940000Y-84890000D02*
X119640000Y-84890000D01*
X119640000Y-84890000D02*
X119640000Y-85190000D01*
X119940000Y-92110000D02*
X119640000Y-92110000D01*
X126860000Y-92110000D02*
X126860000Y-91810000D01*
X119640000Y-85190000D02*
X118325000Y-85190000D01*
X126860000Y-84890000D02*
X126860000Y-85190000D01*
X126560000Y-84890000D02*
X126860000Y-84890000D01*
X119640000Y-92110000D02*
X119640000Y-91810000D01*
X126560000Y-92110000D02*
X126860000Y-92110000D01*
%TO.C,SW5*%
X146150000Y-144950000D02*
X139850000Y-144950000D01*
X139850000Y-144950000D02*
X139850000Y-144700000D01*
X146150000Y-144700000D02*
X146150000Y-144950000D01*
X139850000Y-142800000D02*
X139850000Y-140200000D01*
X139850000Y-138300000D02*
X139850000Y-138050000D01*
X139850000Y-138050000D02*
X146150000Y-138050000D01*
X146150000Y-138050000D02*
X146150000Y-138300000D01*
X146150000Y-140200000D02*
X146150000Y-142800000D01*
%TO.C,SW6*%
X150850000Y-138050000D02*
X157150000Y-138050000D01*
X150850000Y-138300000D02*
X150850000Y-138050000D01*
X157150000Y-144950000D02*
X150850000Y-144950000D01*
X157150000Y-138050000D02*
X157150000Y-138300000D01*
X150850000Y-142800000D02*
X150850000Y-140200000D01*
X157150000Y-140200000D02*
X157150000Y-142800000D01*
X157150000Y-144700000D02*
X157150000Y-144950000D01*
X150850000Y-144950000D02*
X150850000Y-144700000D01*
%TO.C,U5*%
X179820000Y-72880000D02*
X179820000Y-89120000D01*
X179820000Y-89120000D02*
X172200000Y-89120000D01*
X155580000Y-72880000D02*
X156200000Y-72880000D01*
X156200000Y-89120000D02*
X155580000Y-89120000D01*
X155580000Y-75000000D02*
X155580000Y-72880000D01*
X155580000Y-89120000D02*
X155580000Y-87000000D01*
X172200000Y-72880000D02*
X179820000Y-72880000D01*
X172200000Y-72880000D02*
X172200000Y-72270000D01*
%TO.C,BT1*%
X134433395Y-93650000D02*
X133083395Y-92300000D01*
X133083395Y-89700000D02*
X134433395Y-88350000D01*
X134433395Y-88350000D02*
X138083395Y-88350000D01*
X133083395Y-92300000D02*
X133083395Y-89700000D01*
X138083395Y-93650000D02*
X134433395Y-93650000D01*
X138096627Y-93636355D02*
G75*
G03*
X138083395Y-88400000I7186768J2636355D01*
G01*
%TO.C,PS1*%
X66560000Y-142955000D02*
X66560000Y-144205000D01*
X66860000Y-138095000D02*
X66860000Y-143905000D01*
X85880000Y-143905000D02*
X85880000Y-138095000D01*
X66860000Y-143905000D02*
X85880000Y-143905000D01*
X66560000Y-144205000D02*
X67810000Y-144205000D01*
X85880000Y-138095000D02*
X66860000Y-138095000D01*
%TO.C,Q1*%
X89600000Y-92600000D02*
X90350000Y-92600000D01*
X90450000Y-97500000D02*
X90350000Y-97400000D01*
X90450000Y-92500000D02*
X96050000Y-92500000D01*
X96150000Y-97400000D02*
X96050000Y-97500000D01*
X96050000Y-97500000D02*
X90450000Y-97500000D01*
X90350000Y-92600000D02*
X90450000Y-92500000D01*
X96050000Y-92500000D02*
X96150000Y-92600000D01*
%TO.C,C1*%
X139240000Y-75359420D02*
X139240000Y-75640580D01*
X140260000Y-75359420D02*
X140260000Y-75640580D01*
%TO.C,SW1*%
X102150000Y-138050000D02*
X102150000Y-138300000D01*
X95850000Y-144950000D02*
X95850000Y-144700000D01*
X95850000Y-138050000D02*
X102150000Y-138050000D01*
X95850000Y-142800000D02*
X95850000Y-140200000D01*
X102150000Y-140200000D02*
X102150000Y-142800000D01*
X102150000Y-144700000D02*
X102150000Y-144950000D01*
X102150000Y-144950000D02*
X95850000Y-144950000D01*
X95850000Y-138300000D02*
X95850000Y-138050000D01*
%TO.C,C5*%
X120384420Y-80490000D02*
X120665580Y-80490000D01*
X120384420Y-81510000D02*
X120665580Y-81510000D01*
%TO.C,R6*%
X97577500Y-74337258D02*
X97577500Y-73862742D01*
X98622500Y-74337258D02*
X98622500Y-73862742D01*
%TO.C,C7*%
X86140580Y-109990000D02*
X85859420Y-109990000D01*
X86140580Y-111010000D02*
X85859420Y-111010000D01*
%TO.C,SW2*%
X106850000Y-138300000D02*
X106850000Y-138050000D01*
X113150000Y-138050000D02*
X113150000Y-138300000D01*
X113150000Y-144700000D02*
X113150000Y-144950000D01*
X113150000Y-140200000D02*
X113150000Y-142800000D01*
X106850000Y-142800000D02*
X106850000Y-140200000D01*
X106850000Y-144950000D02*
X106850000Y-144700000D01*
X113150000Y-144950000D02*
X106850000Y-144950000D01*
X106850000Y-138050000D02*
X113150000Y-138050000D01*
%TO.C,U7*%
X69540000Y-116600000D02*
X69540000Y-127390000D01*
X83460000Y-109890000D02*
X83460000Y-112160000D01*
X83460000Y-114070000D02*
X83460000Y-127400000D01*
X83460000Y-131840000D02*
X83460000Y-134110000D01*
X69540000Y-112160000D02*
X66950000Y-112160000D01*
X69540000Y-109890000D02*
X69540000Y-112160000D01*
X83460000Y-134110000D02*
X69540000Y-134110000D01*
X69540000Y-131840000D02*
X69540000Y-134110000D01*
X83460000Y-109890000D02*
X69540000Y-109890000D01*
%TO.C,Q4*%
X96000000Y-77720000D02*
X95900000Y-77820000D01*
X95900000Y-72820000D02*
X96000000Y-72920000D01*
X89450000Y-72920000D02*
X90200000Y-72920000D01*
X95900000Y-77820000D02*
X90300000Y-77820000D01*
X90300000Y-72820000D02*
X95900000Y-72820000D01*
X90300000Y-77820000D02*
X90200000Y-77720000D01*
X90200000Y-72920000D02*
X90300000Y-72820000D01*
%TO.C,R2*%
X128772500Y-79737258D02*
X128772500Y-79262742D01*
X127727500Y-79737258D02*
X127727500Y-79262742D01*
%TO.C,J5*%
X79800000Y-96250000D02*
X79800000Y-98250000D01*
X78610000Y-102360000D02*
X72550000Y-102360000D01*
X72550000Y-92140000D02*
X78610000Y-92140000D01*
X65390000Y-92140000D02*
X68450000Y-92140000D01*
X78610000Y-92140000D02*
X78610000Y-94950000D01*
X65390000Y-102360000D02*
X65390000Y-92140000D01*
X68450000Y-102360000D02*
X65390000Y-102360000D01*
X78610000Y-99550000D02*
X78610000Y-102360000D01*
%TO.C,Q3*%
X90450000Y-91500000D02*
X90350000Y-91400000D01*
X96050000Y-91500000D02*
X90450000Y-91500000D01*
X90350000Y-86600000D02*
X90450000Y-86500000D01*
X89600000Y-86600000D02*
X90350000Y-86600000D01*
X96050000Y-86500000D02*
X96150000Y-86600000D01*
X96150000Y-91400000D02*
X96050000Y-91500000D01*
X90450000Y-86500000D02*
X96050000Y-86500000D01*
%TO.C,U6*%
X110000000Y-88190000D02*
X108200000Y-88190000D01*
X110000000Y-91310000D02*
X109200000Y-91310000D01*
X110000000Y-91310000D02*
X110800000Y-91310000D01*
X110000000Y-88190000D02*
X110800000Y-88190000D01*
%TO.C,R5*%
X97727500Y-88017258D02*
X97727500Y-87542742D01*
X98772500Y-88017258D02*
X98772500Y-87542742D01*
%TO.C,SW7*%
X67840000Y-104287500D02*
X76660000Y-104287500D01*
X76660000Y-104287500D02*
X76660000Y-104597500D01*
X70250000Y-104087500D02*
X70750000Y-103587500D01*
X70750000Y-103587500D02*
X69750000Y-103587500D01*
X76660000Y-108807500D02*
X67840000Y-108807500D01*
X67840000Y-104597500D02*
X67840000Y-104287500D01*
X69750000Y-103587500D02*
X70250000Y-104087500D01*
X67840000Y-108807500D02*
X67840000Y-108497500D01*
X76660000Y-108807500D02*
X76660000Y-108497500D01*
%TO.C,SW3*%
X124150000Y-144950000D02*
X117850000Y-144950000D01*
X124150000Y-138050000D02*
X124150000Y-138300000D01*
X117850000Y-144950000D02*
X117850000Y-144700000D01*
X117850000Y-138050000D02*
X124150000Y-138050000D01*
X117850000Y-138300000D02*
X117850000Y-138050000D01*
X124150000Y-140200000D02*
X124150000Y-142800000D01*
X124150000Y-144700000D02*
X124150000Y-144950000D01*
X117850000Y-142800000D02*
X117850000Y-140200000D01*
%TO.C,C8*%
X160140580Y-91510000D02*
X159859420Y-91510000D01*
X160140580Y-90490000D02*
X159859420Y-90490000D01*
%TO.C,R4*%
X97727500Y-81022258D02*
X97727500Y-80547742D01*
X98772500Y-81022258D02*
X98772500Y-80547742D01*
%TO.C,C2*%
X140260000Y-79609420D02*
X140260000Y-79890580D01*
X139240000Y-79609420D02*
X139240000Y-79890580D01*
%TO.C,Y1*%
X141050000Y-74050000D02*
X141050000Y-81950000D01*
X141050000Y-81950000D02*
X146450000Y-81950000D01*
X146450000Y-81950000D02*
X146450000Y-74050000D01*
%TO.C,SW4*%
X128850000Y-144950000D02*
X128850000Y-144700000D01*
X128850000Y-138300000D02*
X128850000Y-138050000D01*
X128850000Y-142800000D02*
X128850000Y-140200000D01*
X128850000Y-138050000D02*
X135150000Y-138050000D01*
X135150000Y-138050000D02*
X135150000Y-138300000D01*
X135150000Y-144950000D02*
X128850000Y-144950000D01*
X135150000Y-144700000D02*
X135150000Y-144950000D01*
X135150000Y-140200000D02*
X135150000Y-142800000D01*
%TO.C,U4*%
X89522500Y-100380000D02*
X168762500Y-100380000D01*
X93642500Y-136620000D02*
X93642500Y-100380000D01*
X89142500Y-107610000D02*
X89142500Y-111610000D01*
X168762500Y-100380000D02*
X168762500Y-136620000D01*
X159642500Y-100380000D02*
X159642500Y-136620000D01*
X89522500Y-136620000D02*
X89522500Y-100380000D01*
X168762500Y-136620000D02*
X89522500Y-136620000D01*
%TO.C,C4*%
X114740000Y-85609420D02*
X114740000Y-85890580D01*
X115760000Y-85609420D02*
X115760000Y-85890580D01*
%TO.C,D1*%
X105805000Y-87427500D02*
X107275000Y-87427500D01*
X107275000Y-87427500D02*
X107275000Y-85142500D01*
X105805000Y-85142500D02*
X105805000Y-87427500D01*
%TD*%
M02*
