%TF.GenerationSoftware,KiCad,Pcbnew,(6.0.9)*%
%TF.CreationDate,2023-01-24T23:05:38+01:00*%
%TF.ProjectId,Projekt,50726f6a-656b-4742-9e6b-696361645f70,rev?*%
%TF.SameCoordinates,Original*%
%TF.FileFunction,Copper,L2,Bot*%
%TF.FilePolarity,Positive*%
%FSLAX46Y46*%
G04 Gerber Fmt 4.6, Leading zero omitted, Abs format (unit mm)*
G04 Created by KiCad (PCBNEW (6.0.9)) date 2023-01-24 23:05:38*
%MOMM*%
%LPD*%
G01*
G04 APERTURE LIST*
G04 Aperture macros list*
%AMRoundRect*
0 Rectangle with rounded corners*
0 $1 Rounding radius*
0 $2 $3 $4 $5 $6 $7 $8 $9 X,Y pos of 4 corners*
0 Add a 4 corners polygon primitive as box body*
4,1,4,$2,$3,$4,$5,$6,$7,$8,$9,$2,$3,0*
0 Add four circle primitives for the rounded corners*
1,1,$1+$1,$2,$3*
1,1,$1+$1,$4,$5*
1,1,$1+$1,$6,$7*
1,1,$1+$1,$8,$9*
0 Add four rect primitives between the rounded corners*
20,1,$1+$1,$2,$3,$4,$5,0*
20,1,$1+$1,$4,$5,$6,$7,0*
20,1,$1+$1,$6,$7,$8,$9,0*
20,1,$1+$1,$8,$9,$2,$3,0*%
G04 Aperture macros list end*
%TA.AperFunction,ComponentPad*%
%ADD10R,2.400000X2.400000*%
%TD*%
%TA.AperFunction,ComponentPad*%
%ADD11C,2.400000*%
%TD*%
%TA.AperFunction,ComponentPad*%
%ADD12C,2.500000*%
%TD*%
%TA.AperFunction,ComponentPad*%
%ADD13C,2.540000*%
%TD*%
%TA.AperFunction,ComponentPad*%
%ADD14R,1.850000X1.850000*%
%TD*%
%TA.AperFunction,ComponentPad*%
%ADD15C,1.850000*%
%TD*%
%TA.AperFunction,ComponentPad*%
%ADD16RoundRect,0.250000X-0.550000X-0.550000X0.550000X-0.550000X0.550000X0.550000X-0.550000X0.550000X0*%
%TD*%
%TA.AperFunction,ComponentPad*%
%ADD17C,1.600000*%
%TD*%
%TA.AperFunction,ComponentPad*%
%ADD18R,4.000000X4.000000*%
%TD*%
%TA.AperFunction,ComponentPad*%
%ADD19C,3.300000*%
%TD*%
%TA.AperFunction,ComponentPad*%
%ADD20C,3.500000*%
%TD*%
%TA.AperFunction,ComponentPad*%
%ADD21O,2.200000X3.500000*%
%TD*%
%TA.AperFunction,ComponentPad*%
%ADD22R,1.500000X2.500000*%
%TD*%
%TA.AperFunction,ComponentPad*%
%ADD23O,1.500000X2.500000*%
%TD*%
%TA.AperFunction,ComponentPad*%
%ADD24R,1.500000X1.500000*%
%TD*%
%TA.AperFunction,ComponentPad*%
%ADD25C,1.500000*%
%TD*%
%TA.AperFunction,ViaPad*%
%ADD26C,0.750000*%
%TD*%
%TA.AperFunction,Conductor*%
%ADD27C,0.200000*%
%TD*%
%TA.AperFunction,Conductor*%
%ADD28C,0.400000*%
%TD*%
G04 APERTURE END LIST*
D10*
%TO.P,J2,1,Pin_1*%
%TO.N,GND*%
X69950000Y-76250000D03*
D11*
%TO.P,J2,2,Pin_2*%
X69950000Y-79750000D03*
%TO.P,J2,3,Pin_3*%
X69950000Y-83250000D03*
%TO.P,J2,4,Pin_4*%
X69950000Y-86750000D03*
%TD*%
D10*
%TO.P,J1,1,Pin_1*%
%TO.N,/V1*%
X78000000Y-86750000D03*
D11*
%TO.P,J1,2,Pin_2*%
%TO.N,/V2*%
X78000000Y-83250000D03*
%TO.P,J1,3,Pin_3*%
%TO.N,/V3*%
X78000000Y-79750000D03*
%TO.P,J1,4,Pin_4*%
%TO.N,/V4*%
X78000000Y-76250000D03*
%TD*%
D12*
%TO.P,BT1,1,+*%
%TO.N,Net-(BT1-Pad1)*%
X135753395Y-91000000D03*
D13*
%TO.P,BT1,2,-*%
%TO.N,GND*%
X145283395Y-91000000D03*
%TD*%
D14*
%TO.P,PS1,1,+Vin*%
%TO.N,Net-(L1-Pad2)*%
X68500000Y-139605000D03*
D15*
%TO.P,PS1,2,-Vin*%
%TO.N,Net-(C11-Pad2)*%
X71040000Y-139605000D03*
%TO.P,PS1,4,-Vout*%
%TO.N,GND*%
X76120000Y-139605000D03*
%TO.P,PS1,5,0V*%
%TO.N,unconnected-(PS1-Pad5)*%
X78660000Y-139605000D03*
%TO.P,PS1,6,+Vout*%
%TO.N,+3.3V*%
X81200000Y-139605000D03*
%TD*%
D16*
%TO.P,J4,1,Pin_1*%
%TO.N,GND*%
X83750000Y-95755000D03*
D17*
%TO.P,J4,2,Pin_2*%
%TO.N,/ADC1_IN1*%
X87350000Y-95755000D03*
%TD*%
D18*
%TO.P,J5,1*%
%TO.N,+24V*%
X77500000Y-97250000D03*
D19*
%TO.P,J5,2*%
%TO.N,GND*%
X71500000Y-97250000D03*
D20*
%TO.P,J5,MP*%
%TO.N,N/C*%
X70500000Y-101750000D03*
X70500000Y-92750000D03*
%TD*%
D21*
%TO.P,SW7,*%
%TO.N,*%
X68150000Y-106547500D03*
X76350000Y-106547500D03*
D22*
%TO.P,SW7,1,A*%
%TO.N,unconnected-(SW7-Pad1)*%
X70250000Y-106547500D03*
D23*
%TO.P,SW7,2,B*%
%TO.N,+24V*%
X72250000Y-106547500D03*
%TO.P,SW7,3,C*%
%TO.N,/Power supply/VIN*%
X74250000Y-106547500D03*
%TD*%
D24*
%TO.P,U4,1,VSS*%
%TO.N,GND*%
X91642500Y-109610000D03*
D25*
%TO.P,U4,2,VDD*%
%TO.N,+3.3V*%
X91642500Y-112150000D03*
%TO.P,U4,3,VO*%
%TO.N,unconnected-(U4-Pad3)*%
X91642500Y-114690000D03*
%TO.P,U4,4,RS*%
%TO.N,unconnected-(U4-Pad4)*%
X91642500Y-117230000D03*
%TO.P,U4,5,R/W*%
%TO.N,unconnected-(U4-Pad5)*%
X91642500Y-119770000D03*
%TO.P,U4,6,E*%
%TO.N,unconnected-(U4-Pad6)*%
X91642500Y-122310000D03*
%TO.P,U4,7,DB0*%
%TO.N,Net-(U3-Pad4)*%
X91642500Y-124850000D03*
%TO.P,U4,8,DB1*%
%TO.N,Net-(U3-Pad5)*%
X91642500Y-127390000D03*
%TO.P,U4,9,DB2*%
%TO.N,Net-(U3-Pad6)*%
X166642500Y-109610000D03*
%TO.P,U4,10,DB3*%
%TO.N,Net-(U3-Pad7)*%
X166642500Y-112150000D03*
%TO.P,U4,11,DB4*%
%TO.N,Net-(U3-Pad9)*%
X166642500Y-114690000D03*
%TO.P,U4,12,DB5*%
%TO.N,Net-(U3-Pad10)*%
X166642500Y-117230000D03*
%TO.P,U4,13,DB6*%
%TO.N,Net-(U3-Pad11)*%
X166642500Y-119770000D03*
%TO.P,U4,14,DB7*%
%TO.N,Net-(U3-Pad12)*%
X166642500Y-122310000D03*
%TO.P,U4,15,A*%
%TO.N,+3.3V*%
X166642500Y-124850000D03*
%TO.P,U4,16,K*%
%TO.N,GND*%
X166642500Y-127390000D03*
%TD*%
D26*
%TO.N,GND*%
X114000000Y-88124500D03*
X114254339Y-89745661D03*
%TO.N,Net-(BT1-Pad1)*%
X137375500Y-78000000D03*
%TO.N,GND*%
X167500000Y-96250000D03*
X107000000Y-92000000D03*
X108750000Y-91625500D03*
X138250000Y-81500000D03*
X141250000Y-77750000D03*
X112495831Y-90245415D03*
X155500000Y-94250000D03*
%TO.N,Net-(C1-Pad1)*%
X138000000Y-77000000D03*
X136000000Y-81500000D03*
%TO.N,+5V*%
X112750000Y-88000000D03*
X117000000Y-85500000D03*
X86000000Y-133000000D03*
X103000000Y-99500000D03*
%TO.N,+3.3V*%
X157500000Y-91725000D03*
X159500000Y-71000000D03*
X159500000Y-71000000D03*
X116250000Y-90750500D03*
X117250000Y-87750000D03*
X117750000Y-82750000D03*
%TO.N,Net-(D2-Pad2)*%
X113250000Y-92000000D03*
X115750000Y-92000000D03*
%TO.N,/SWCLK*%
X127500000Y-84250000D03*
X124324502Y-98500000D03*
%TO.N,/SWDIO*%
X119750000Y-94874500D03*
X118250000Y-92500000D03*
%TO.N,/NRST*%
X118066589Y-93433411D03*
X117750000Y-89250000D03*
X118750000Y-95750000D03*
X117149502Y-90749900D03*
%TO.N,+24V*%
X94750000Y-76000000D03*
X95250000Y-83000000D03*
X95250000Y-89750000D03*
X95250000Y-96000000D03*
%TO.N,/I2C2_SCL*%
X129250000Y-79250000D03*
X129000000Y-87250000D03*
%TO.N,/Q1*%
X117500000Y-100250000D03*
X101250000Y-91250000D03*
%TO.N,/Q3*%
X102250000Y-82500000D03*
X114000000Y-99375500D03*
%TO.N,/Q2*%
X115500000Y-100000000D03*
X100500000Y-87250000D03*
%TO.N,/Q4*%
X124500000Y-82750000D03*
X124500000Y-81250000D03*
%TO.N,/I2C2_SDA*%
X128500000Y-84250000D03*
X130500000Y-74750000D03*
%TO.N,/USART2_TX*%
X138500000Y-84250000D03*
X131250000Y-91250000D03*
X141500000Y-84250000D03*
X125926892Y-89249500D03*
%TO.N,/USART2_RX*%
X136750000Y-85000000D03*
X139750000Y-87750000D03*
X125750000Y-90250000D03*
X129500000Y-91000000D03*
%TO.N,/ADC1_IN4*%
X126000000Y-91400500D03*
X129750000Y-92500000D03*
%TO.N,/I2C1_SCL*%
X128750000Y-88875500D03*
X133500000Y-93000000D03*
%TO.N,/GPIO_Input*%
X109431250Y-87951928D03*
X126000000Y-88000000D03*
X111250000Y-87624500D03*
%TO.N,/I2C1_SDA*%
X134000000Y-92250000D03*
X129500000Y-88250000D03*
%TO.N,/SW1*%
X121000000Y-86750000D03*
X95500000Y-137250000D03*
%TO.N,/SW2*%
X121899503Y-86750000D03*
X106500000Y-137250000D03*
%TO.N,/SW3*%
X122799006Y-86750000D03*
X117000000Y-137250000D03*
%TO.N,/SW4*%
X128000000Y-137000000D03*
X123698509Y-86750000D03*
%TO.N,/SW5*%
X124598012Y-86750000D03*
X138750000Y-137000000D03*
%TO.N,/SW6*%
X125497515Y-86750000D03*
X149750000Y-137250000D03*
%TO.N,/ADC1_IN1*%
X107500000Y-90000000D03*
X112000000Y-86500000D03*
X103000000Y-89500000D03*
%TD*%
D27*
%TO.N,GND*%
X114000000Y-89491322D02*
X114254339Y-89745661D01*
X114000000Y-88124500D02*
X114000000Y-89491322D01*
%TO.N,+5V*%
X117000000Y-87000000D02*
X117000000Y-85500000D01*
X116500000Y-87500000D02*
X117000000Y-87000000D01*
X113250000Y-87500000D02*
X116500000Y-87500000D01*
X112750000Y-88000000D02*
X113250000Y-87500000D01*
%TO.N,/ADC1_IN1*%
X110000000Y-86500000D02*
X107000000Y-89500000D01*
X112000000Y-86500000D02*
X110000000Y-86500000D01*
%TO.N,GND*%
X112495831Y-90245415D02*
X111115746Y-91625500D01*
X111115746Y-91625500D02*
X108750000Y-91625500D01*
%TO.N,/SWCLK*%
X126625000Y-88258884D02*
X126625000Y-85125000D01*
X126258884Y-88625000D02*
X126625000Y-88258884D01*
X125667508Y-88625000D02*
X126258884Y-88625000D01*
X125292508Y-89000000D02*
X125667508Y-88625000D01*
X122475000Y-94975000D02*
X122475000Y-90189041D01*
X124324502Y-96824502D02*
X122475000Y-94975000D01*
X124324502Y-98500000D02*
X124324502Y-96824502D01*
X126625000Y-85125000D02*
X127500000Y-84250000D01*
X123664041Y-89000000D02*
X125292508Y-89000000D01*
X122475000Y-90189041D02*
X123664041Y-89000000D01*
%TO.N,Net-(BT1-Pad1)*%
X135375000Y-83375000D02*
X135753395Y-83753395D01*
X135375000Y-81241116D02*
X135375000Y-83375000D01*
X137375500Y-78000000D02*
X137375500Y-79240616D01*
X135753395Y-83753395D02*
X135753395Y-91000000D01*
X137375500Y-79240616D02*
X135375000Y-81241116D01*
%TO.N,GND*%
X141000000Y-81500000D02*
X145283395Y-85783395D01*
X138250000Y-80750000D02*
X141250000Y-77750000D01*
X145283395Y-85783395D02*
X145283395Y-91000000D01*
X157500000Y-96250000D02*
X167500000Y-96250000D01*
X155500000Y-94250000D02*
X157500000Y-96250000D01*
X138250000Y-81500000D02*
X138250000Y-80750000D01*
X107374500Y-91625500D02*
X108750000Y-91625500D01*
X138250000Y-81500000D02*
X141000000Y-81500000D01*
X107000000Y-92000000D02*
X107374500Y-91625500D01*
%TO.N,Net-(C1-Pad1)*%
X138000000Y-79500000D02*
X136000000Y-81500000D01*
X138000000Y-77000000D02*
X138000000Y-79500000D01*
%TO.N,+5V*%
X93500000Y-99500000D02*
X86000000Y-107000000D01*
X86000000Y-107000000D02*
X86000000Y-133000000D01*
X103000000Y-99500000D02*
X93500000Y-99500000D01*
%TO.N,+3.3V*%
X116250000Y-88750000D02*
X117250000Y-87750000D01*
X116250000Y-90750500D02*
X116250000Y-88750000D01*
X117750000Y-87250000D02*
X117750000Y-82750000D01*
X117250000Y-87750000D02*
X117750000Y-87250000D01*
%TO.N,Net-(D2-Pad2)*%
X113250000Y-92000000D02*
X115750000Y-92000000D01*
%TO.N,/SWDIO*%
X118250000Y-92500000D02*
X118850000Y-93100000D01*
X118850000Y-93100000D02*
X118850000Y-93974500D01*
X118850000Y-93974500D02*
X119750000Y-94874500D01*
%TO.N,/NRST*%
X117149602Y-90750000D02*
X117149502Y-90749900D01*
X117750000Y-90500000D02*
X117500000Y-90750000D01*
X117500000Y-90750000D02*
X117149602Y-90750000D01*
X118750000Y-95750000D02*
X118500000Y-95500000D01*
X118500000Y-93866822D02*
X118066589Y-93433411D01*
X118500000Y-95500000D02*
X118500000Y-93866822D01*
X117750000Y-89250000D02*
X117750000Y-90500000D01*
D28*
%TO.N,+24V*%
X95250000Y-76500000D02*
X94750000Y-76000000D01*
X95250000Y-96000000D02*
X95250000Y-90000000D01*
X77500000Y-97250000D02*
X94000000Y-97250000D01*
X95250000Y-83000000D02*
X95250000Y-76500000D01*
X94000000Y-97250000D02*
X95250000Y-96000000D01*
X95250000Y-83000000D02*
X95250000Y-89750000D01*
X95250000Y-90000000D02*
X95250000Y-89750000D01*
D27*
%TO.N,/I2C2_SCL*%
X129000000Y-87250000D02*
X129250000Y-87000000D01*
X129250000Y-87000000D02*
X129250000Y-79250000D01*
%TO.N,/Q1*%
X117125000Y-100625000D02*
X117500000Y-100250000D01*
X101250000Y-91250000D02*
X101250000Y-94250000D01*
X105008884Y-100625000D02*
X117125000Y-100625000D01*
X103053858Y-98669974D02*
X105008884Y-100625000D01*
X101250000Y-94250000D02*
X103053858Y-96053858D01*
X103053858Y-96053858D02*
X103053858Y-98669974D01*
%TO.N,/Q3*%
X102250000Y-89633884D02*
X112266116Y-99650000D01*
X102250000Y-82500000D02*
X102250000Y-89633884D01*
X113725500Y-99650000D02*
X114000000Y-99375500D01*
X112266116Y-99650000D02*
X113725500Y-99650000D01*
%TO.N,/Q2*%
X103403858Y-91653858D02*
X103403858Y-98525000D01*
X100750000Y-87500000D02*
X100750000Y-89000000D01*
X100750000Y-89000000D02*
X103403858Y-91653858D01*
X103403858Y-98525000D02*
X104878858Y-100000000D01*
X100500000Y-87250000D02*
X100750000Y-87500000D01*
X104878858Y-100000000D02*
X115500000Y-100000000D01*
%TO.N,/Q4*%
X124500000Y-81250000D02*
X124500000Y-82750000D01*
%TO.N,/I2C2_SDA*%
X128375000Y-84125000D02*
X128500000Y-84250000D01*
X128375000Y-76875000D02*
X128375000Y-84125000D01*
X130500000Y-74750000D02*
X128375000Y-76875000D01*
%TO.N,/USART2_TX*%
X131250000Y-91250000D02*
X129500000Y-89500000D01*
X138500000Y-84250000D02*
X141500000Y-84250000D01*
X129500000Y-89500000D02*
X126177392Y-89500000D01*
X126177392Y-89500000D02*
X125926892Y-89249500D01*
%TO.N,/USART2_RX*%
X139500000Y-87750000D02*
X136750000Y-85000000D01*
X129500000Y-91000000D02*
X128750000Y-90250000D01*
X128750000Y-90250000D02*
X125750000Y-90250000D01*
X139750000Y-87750000D02*
X139500000Y-87750000D01*
%TO.N,/ADC1_IN4*%
X129750000Y-92500000D02*
X127099500Y-92500000D01*
X127099500Y-92500000D02*
X126000000Y-91400500D01*
%TO.N,/I2C1_SCL*%
X133500000Y-93000000D02*
X132000000Y-91500000D01*
X129759384Y-88875500D02*
X128750000Y-88875500D01*
X132000000Y-91116116D02*
X129759384Y-88875500D01*
X132000000Y-91500000D02*
X132000000Y-91116116D01*
%TO.N,/GPIO_Input*%
X126250000Y-86618601D02*
X126250000Y-87750000D01*
X118500000Y-91375000D02*
X118500000Y-88366116D01*
X115000500Y-91375000D02*
X118500000Y-91375000D01*
X118500000Y-88366116D02*
X120741116Y-86125000D01*
X120741116Y-86125000D02*
X125756399Y-86125000D01*
X111250000Y-87624500D02*
X115000500Y-91375000D01*
X125756399Y-86125000D02*
X126250000Y-86618601D01*
X126250000Y-87750000D02*
X126000000Y-88000000D01*
X111250000Y-87624500D02*
X109758678Y-87624500D01*
X109758678Y-87624500D02*
X109431250Y-87951928D01*
%TO.N,/I2C1_SDA*%
X130000000Y-88250000D02*
X129500000Y-88250000D01*
X134000000Y-92250000D02*
X130000000Y-88250000D01*
%TO.N,/SW1*%
X119250000Y-92933885D02*
X118875000Y-92558885D01*
X120008884Y-94249500D02*
X119619974Y-94249500D01*
X119250000Y-93879526D02*
X119250000Y-92933885D01*
X118850000Y-88511090D02*
X120611090Y-86750000D01*
X95500000Y-137250000D02*
X120375000Y-112375000D01*
X120611090Y-86750000D02*
X121000000Y-86750000D01*
X118875000Y-91544975D02*
X118850000Y-91519975D01*
X118875000Y-92558885D02*
X118875000Y-91544975D01*
X120375000Y-94615616D02*
X120008884Y-94249500D01*
X119619974Y-94249500D02*
X119250000Y-93879526D01*
X118850000Y-91519975D02*
X118850000Y-88511090D01*
X120375000Y-112375000D02*
X120375000Y-94615616D01*
%TO.N,/SW2*%
X119600000Y-92788911D02*
X119225000Y-92413911D01*
X106500000Y-137250000D02*
X121250000Y-122500000D01*
X120725000Y-94470642D02*
X120153858Y-93899500D01*
X120725000Y-97719974D02*
X120725000Y-94470642D01*
X119225000Y-92413911D02*
X119225000Y-88631064D01*
X121250000Y-98244974D02*
X120725000Y-97719974D01*
X121250000Y-122500000D02*
X121250000Y-98244974D01*
X119600000Y-93734552D02*
X119600000Y-92788911D01*
X119764948Y-93899500D02*
X119600000Y-93734552D01*
X120153858Y-93899500D02*
X119764948Y-93899500D01*
X121274503Y-87375000D02*
X121899503Y-86750000D01*
X120481064Y-87375000D02*
X121274503Y-87375000D01*
X119225000Y-88631064D02*
X120481064Y-87375000D01*
%TO.N,/SW3*%
X119950000Y-92643937D02*
X119575000Y-92268937D01*
X117000000Y-137250000D02*
X121600000Y-132650000D01*
X120626038Y-87725000D02*
X121824006Y-87725000D01*
X119575000Y-88776038D02*
X120626038Y-87725000D01*
X121075000Y-97575000D02*
X121075000Y-94325668D01*
X121600000Y-132650000D02*
X121600000Y-98100000D01*
X119950000Y-93549500D02*
X119950000Y-92643937D01*
X121600000Y-98100000D02*
X121075000Y-97575000D01*
X119575000Y-92268937D02*
X119575000Y-88776038D01*
X120298832Y-93549500D02*
X119950000Y-93549500D01*
X121075000Y-94325668D02*
X120298832Y-93549500D01*
X121824006Y-87725000D02*
X122799006Y-86750000D01*
%TO.N,/SW4*%
X119925000Y-92123963D02*
X119925000Y-88921012D01*
X121425000Y-97430026D02*
X121425000Y-94180694D01*
X121425000Y-94180694D02*
X120300000Y-93055694D01*
X122373509Y-88075000D02*
X123698509Y-86750000D01*
X121950000Y-97955026D02*
X121425000Y-97430026D01*
X120771012Y-88075000D02*
X122373509Y-88075000D01*
X120300000Y-92498963D02*
X119925000Y-92123963D01*
X120300000Y-93055694D02*
X120300000Y-92498963D01*
X128000000Y-137000000D02*
X121950000Y-130950000D01*
X119925000Y-88921012D02*
X120771012Y-88075000D01*
X121950000Y-130950000D02*
X121950000Y-97955026D01*
%TO.N,/SW5*%
X122300000Y-120550000D02*
X122300000Y-97810052D01*
X121775000Y-94035720D02*
X120650000Y-92910720D01*
X122300000Y-97810052D02*
X121775000Y-97285052D01*
X138750000Y-137000000D02*
X122300000Y-120550000D01*
X121775000Y-97285052D02*
X121775000Y-94035720D01*
X120275000Y-91978989D02*
X120275000Y-89225000D01*
X121075000Y-88425000D02*
X122923012Y-88425000D01*
X122923012Y-88425000D02*
X124598012Y-86750000D01*
X120275000Y-89225000D02*
X121075000Y-88425000D01*
X120650000Y-92910720D02*
X120650000Y-92353989D01*
X120650000Y-92353989D02*
X120275000Y-91978989D01*
%TO.N,/SW6*%
X122650000Y-97665077D02*
X122125000Y-97140078D01*
X125223012Y-86775745D02*
X125248757Y-86750000D01*
X122650000Y-110150000D02*
X122650000Y-97665077D01*
X125223012Y-87008884D02*
X125223012Y-86775745D01*
X124856896Y-87375000D02*
X125223012Y-87008884D01*
X121000000Y-92765746D02*
X121000000Y-92209015D01*
X122125000Y-97140078D02*
X122125000Y-93890746D01*
X120625000Y-89369974D02*
X121219974Y-88775000D01*
X124623757Y-87375000D02*
X124856896Y-87375000D01*
X121000000Y-92209015D02*
X120625000Y-91834015D01*
X123223757Y-88775000D02*
X124623757Y-87375000D01*
X120625000Y-91834015D02*
X120625000Y-89369974D01*
X125248757Y-86750000D02*
X125497515Y-86750000D01*
X122125000Y-93890746D02*
X121000000Y-92765746D01*
X149750000Y-137250000D02*
X122650000Y-110150000D01*
X121219974Y-88775000D02*
X123223757Y-88775000D01*
%TO.N,/ADC1_IN1*%
X103000000Y-89500000D02*
X107000000Y-89500000D01*
X107000000Y-89500000D02*
X107500000Y-90000000D01*
%TD*%
%TA.AperFunction,Conductor*%
%TO.N,+3.3V*%
G36*
X171433621Y-69528502D02*
G01*
X171480114Y-69582158D01*
X171491500Y-69634500D01*
X171491500Y-145365500D01*
X171471498Y-145433621D01*
X171417842Y-145480114D01*
X171365500Y-145491500D01*
X65634500Y-145491500D01*
X65566379Y-145471498D01*
X65519886Y-145417842D01*
X65508500Y-145365500D01*
X65508500Y-140578134D01*
X67066500Y-140578134D01*
X67073255Y-140640316D01*
X67124385Y-140776705D01*
X67211739Y-140893261D01*
X67328295Y-140980615D01*
X67464684Y-141031745D01*
X67526866Y-141038500D01*
X69473134Y-141038500D01*
X69535316Y-141031745D01*
X69671705Y-140980615D01*
X69788261Y-140893261D01*
X69875615Y-140776705D01*
X69892103Y-140732724D01*
X69934744Y-140675959D01*
X70001306Y-140651259D01*
X70070655Y-140666466D01*
X70090569Y-140680008D01*
X70214960Y-140783279D01*
X70219412Y-140785881D01*
X70219417Y-140785884D01*
X70413245Y-140899148D01*
X70418482Y-140902208D01*
X70638696Y-140986299D01*
X70643762Y-140987330D01*
X70643763Y-140987330D01*
X70746611Y-141008254D01*
X70869686Y-141033294D01*
X71001595Y-141038131D01*
X71100087Y-141041743D01*
X71100091Y-141041743D01*
X71105251Y-141041932D01*
X71110371Y-141041276D01*
X71110373Y-141041276D01*
X71206427Y-141028971D01*
X71339063Y-141011980D01*
X71344012Y-141010495D01*
X71344018Y-141010494D01*
X71475465Y-140971058D01*
X71564844Y-140944243D01*
X71776529Y-140840539D01*
X71780732Y-140837541D01*
X71780737Y-140837538D01*
X71964231Y-140706653D01*
X71964233Y-140706651D01*
X71968435Y-140703654D01*
X72135407Y-140537264D01*
X72149858Y-140517154D01*
X72269943Y-140350037D01*
X72272961Y-140345837D01*
X72377403Y-140134515D01*
X72445928Y-139908972D01*
X72446617Y-139903740D01*
X72476259Y-139678587D01*
X72476259Y-139678583D01*
X72476696Y-139675266D01*
X72478413Y-139605000D01*
X72475524Y-139569856D01*
X74682016Y-139569856D01*
X74682313Y-139575008D01*
X74682313Y-139575012D01*
X74695288Y-139800029D01*
X74695289Y-139800035D01*
X74695586Y-139805188D01*
X74696723Y-139810232D01*
X74732624Y-139969539D01*
X74747408Y-140035144D01*
X74749352Y-140039930D01*
X74749353Y-140039935D01*
X74789568Y-140138972D01*
X74836093Y-140253548D01*
X74959258Y-140454535D01*
X75113595Y-140632707D01*
X75234066Y-140732724D01*
X75287042Y-140776705D01*
X75294960Y-140783279D01*
X75299412Y-140785881D01*
X75299417Y-140785884D01*
X75493245Y-140899148D01*
X75498482Y-140902208D01*
X75718696Y-140986299D01*
X75723762Y-140987330D01*
X75723763Y-140987330D01*
X75826611Y-141008254D01*
X75949686Y-141033294D01*
X76081595Y-141038131D01*
X76180087Y-141041743D01*
X76180091Y-141041743D01*
X76185251Y-141041932D01*
X76190371Y-141041276D01*
X76190373Y-141041276D01*
X76286427Y-141028971D01*
X76419063Y-141011980D01*
X76424012Y-141010495D01*
X76424018Y-141010494D01*
X76555465Y-140971058D01*
X76644844Y-140944243D01*
X76856529Y-140840539D01*
X76860732Y-140837541D01*
X76860737Y-140837538D01*
X77044231Y-140706653D01*
X77044233Y-140706651D01*
X77048435Y-140703654D01*
X77215407Y-140537264D01*
X77229858Y-140517154D01*
X77285303Y-140439993D01*
X77341298Y-140396345D01*
X77412001Y-140389899D01*
X77474966Y-140422702D01*
X77495054Y-140447676D01*
X77496550Y-140450117D01*
X77499258Y-140454535D01*
X77653595Y-140632707D01*
X77774066Y-140732724D01*
X77827042Y-140776705D01*
X77834960Y-140783279D01*
X77839412Y-140785881D01*
X77839417Y-140785884D01*
X78033245Y-140899148D01*
X78038482Y-140902208D01*
X78258696Y-140986299D01*
X78263762Y-140987330D01*
X78263763Y-140987330D01*
X78366611Y-141008254D01*
X78489686Y-141033294D01*
X78621595Y-141038131D01*
X78720087Y-141041743D01*
X78720091Y-141041743D01*
X78725251Y-141041932D01*
X78730371Y-141041276D01*
X78730373Y-141041276D01*
X78826427Y-141028971D01*
X78959063Y-141011980D01*
X78964012Y-141010495D01*
X78964018Y-141010494D01*
X79095465Y-140971058D01*
X79184844Y-140944243D01*
X79396529Y-140840539D01*
X79400732Y-140837541D01*
X79400737Y-140837538D01*
X79474836Y-140784684D01*
X80385146Y-140784684D01*
X80390427Y-140791738D01*
X80574238Y-140899148D01*
X80583525Y-140903598D01*
X80794005Y-140983972D01*
X80803903Y-140986848D01*
X81024685Y-141031766D01*
X81034913Y-141032985D01*
X81260064Y-141041242D01*
X81270350Y-141040775D01*
X81493831Y-141012146D01*
X81503909Y-141010004D01*
X81719707Y-140945261D01*
X81729305Y-140941499D01*
X81931637Y-140842379D01*
X81940475Y-140837110D01*
X82003021Y-140792497D01*
X82011421Y-140781798D01*
X82004432Y-140768642D01*
X81212812Y-139977022D01*
X81198868Y-139969408D01*
X81197035Y-139969539D01*
X81190420Y-139973790D01*
X80391906Y-140772304D01*
X80385146Y-140784684D01*
X79474836Y-140784684D01*
X79584231Y-140706653D01*
X79584233Y-140706651D01*
X79588435Y-140703654D01*
X79755407Y-140537264D01*
X79758423Y-140533067D01*
X79758430Y-140533059D01*
X79830053Y-140433385D01*
X79886047Y-140389737D01*
X79956751Y-140383291D01*
X80016908Y-140413475D01*
X80022376Y-140418422D01*
X80031151Y-140414639D01*
X80827978Y-139617812D01*
X80834356Y-139606132D01*
X81564408Y-139606132D01*
X81564539Y-139607965D01*
X81568790Y-139614580D01*
X82364216Y-140410006D01*
X82376226Y-140416564D01*
X82387966Y-140407596D01*
X82429511Y-140349780D01*
X82434821Y-140340943D01*
X82534642Y-140138972D01*
X82538440Y-140129379D01*
X82603935Y-139913810D01*
X82606112Y-139903740D01*
X82635757Y-139678564D01*
X82636276Y-139671889D01*
X82637829Y-139608364D01*
X82637635Y-139601646D01*
X82619027Y-139375313D01*
X82617342Y-139365133D01*
X82562456Y-139146623D01*
X82559136Y-139136872D01*
X82469296Y-138930251D01*
X82464430Y-138921176D01*
X82387304Y-138801959D01*
X82376618Y-138792755D01*
X82367051Y-138797159D01*
X81572022Y-139592188D01*
X81564408Y-139606132D01*
X80834356Y-139606132D01*
X80835592Y-139603868D01*
X80835461Y-139602035D01*
X80831210Y-139595420D01*
X80035875Y-138800085D01*
X80024338Y-138793785D01*
X80012316Y-138803204D01*
X79946357Y-138829471D01*
X79876668Y-138815908D01*
X79828817Y-138772460D01*
X79824979Y-138766527D01*
X79799640Y-138727359D01*
X79774543Y-138699777D01*
X79644473Y-138556833D01*
X79644471Y-138556832D01*
X79640995Y-138553011D01*
X79636944Y-138549812D01*
X79636940Y-138549808D01*
X79482522Y-138427856D01*
X80387652Y-138427856D01*
X80394398Y-138440188D01*
X81187188Y-139232978D01*
X81201132Y-139240592D01*
X81202965Y-139240461D01*
X81209580Y-139236210D01*
X82006790Y-138439000D01*
X82013811Y-138426143D01*
X82006038Y-138415475D01*
X81999786Y-138410538D01*
X81991205Y-138404836D01*
X81793955Y-138295948D01*
X81784560Y-138291727D01*
X81572180Y-138216519D01*
X81562217Y-138213887D01*
X81340407Y-138174376D01*
X81330156Y-138173407D01*
X81104866Y-138170655D01*
X81094582Y-138171375D01*
X80871879Y-138205453D01*
X80861852Y-138207842D01*
X80647705Y-138277836D01*
X80638196Y-138281833D01*
X80438360Y-138385861D01*
X80429635Y-138391355D01*
X80396106Y-138416530D01*
X80387652Y-138427856D01*
X79482522Y-138427856D01*
X79460061Y-138410117D01*
X79460057Y-138410115D01*
X79456006Y-138406915D01*
X79249639Y-138292995D01*
X79244770Y-138291271D01*
X79244766Y-138291269D01*
X79032311Y-138216035D01*
X79032307Y-138216034D01*
X79027436Y-138214309D01*
X79022343Y-138213402D01*
X79022340Y-138213401D01*
X78800456Y-138173877D01*
X78800450Y-138173876D01*
X78795367Y-138172971D01*
X78704523Y-138171861D01*
X78564830Y-138170154D01*
X78564828Y-138170154D01*
X78559661Y-138170091D01*
X78326651Y-138205747D01*
X78102593Y-138278980D01*
X77893504Y-138387825D01*
X77889371Y-138390928D01*
X77889368Y-138390930D01*
X77746031Y-138498551D01*
X77705000Y-138529358D01*
X77542143Y-138699777D01*
X77539231Y-138704046D01*
X77539225Y-138704054D01*
X77494859Y-138769091D01*
X77439948Y-138814094D01*
X77369423Y-138822265D01*
X77305676Y-138791011D01*
X77284979Y-138766527D01*
X77262450Y-138731702D01*
X77262447Y-138731699D01*
X77259640Y-138727359D01*
X77234543Y-138699777D01*
X77104473Y-138556833D01*
X77104471Y-138556832D01*
X77100995Y-138553011D01*
X77096944Y-138549812D01*
X77096940Y-138549808D01*
X76920061Y-138410117D01*
X76920057Y-138410115D01*
X76916006Y-138406915D01*
X76709639Y-138292995D01*
X76704770Y-138291271D01*
X76704766Y-138291269D01*
X76492311Y-138216035D01*
X76492307Y-138216034D01*
X76487436Y-138214309D01*
X76482343Y-138213402D01*
X76482340Y-138213401D01*
X76260456Y-138173877D01*
X76260450Y-138173876D01*
X76255367Y-138172971D01*
X76164523Y-138171861D01*
X76024830Y-138170154D01*
X76024828Y-138170154D01*
X76019661Y-138170091D01*
X75786651Y-138205747D01*
X75562593Y-138278980D01*
X75353504Y-138387825D01*
X75349371Y-138390928D01*
X75349368Y-138390930D01*
X75206031Y-138498551D01*
X75165000Y-138529358D01*
X75002143Y-138699777D01*
X74869307Y-138894508D01*
X74867133Y-138899192D01*
X74867131Y-138899195D01*
X74852716Y-138930251D01*
X74770059Y-139108319D01*
X74707065Y-139335468D01*
X74682016Y-139569856D01*
X72475524Y-139569856D01*
X72472017Y-139527201D01*
X72459522Y-139375221D01*
X72459521Y-139375215D01*
X72459098Y-139370070D01*
X72401673Y-139141449D01*
X72307678Y-138925277D01*
X72179640Y-138727359D01*
X72154543Y-138699777D01*
X72024473Y-138556833D01*
X72024471Y-138556832D01*
X72020995Y-138553011D01*
X72016944Y-138549812D01*
X72016940Y-138549808D01*
X71840061Y-138410117D01*
X71840057Y-138410115D01*
X71836006Y-138406915D01*
X71629639Y-138292995D01*
X71624770Y-138291271D01*
X71624766Y-138291269D01*
X71412311Y-138216035D01*
X71412307Y-138216034D01*
X71407436Y-138214309D01*
X71402343Y-138213402D01*
X71402340Y-138213401D01*
X71180456Y-138173877D01*
X71180450Y-138173876D01*
X71175367Y-138172971D01*
X71084523Y-138171861D01*
X70944830Y-138170154D01*
X70944828Y-138170154D01*
X70939661Y-138170091D01*
X70706651Y-138205747D01*
X70482593Y-138278980D01*
X70273504Y-138387825D01*
X70269371Y-138390928D01*
X70269368Y-138390930D01*
X70085000Y-138529358D01*
X70083636Y-138527541D01*
X70028012Y-138553720D01*
X69957627Y-138544424D01*
X69903441Y-138498551D01*
X69890667Y-138473446D01*
X69878768Y-138441705D01*
X69878767Y-138441703D01*
X69875615Y-138433295D01*
X69788261Y-138316739D01*
X69671705Y-138229385D01*
X69535316Y-138178255D01*
X69473134Y-138171500D01*
X67526866Y-138171500D01*
X67464684Y-138178255D01*
X67328295Y-138229385D01*
X67211739Y-138316739D01*
X67124385Y-138433295D01*
X67073255Y-138569684D01*
X67066500Y-138631866D01*
X67066500Y-140578134D01*
X65508500Y-140578134D01*
X65508500Y-134552817D01*
X90130014Y-134552817D01*
X90130595Y-134557837D01*
X90130595Y-134557841D01*
X90146423Y-134694631D01*
X90157915Y-134793956D01*
X90159291Y-134798820D01*
X90159292Y-134798823D01*
X90204976Y-134960266D01*
X90224010Y-135027532D01*
X90226144Y-135032108D01*
X90226146Y-135032114D01*
X90282946Y-135153922D01*
X90326599Y-135247536D01*
X90463044Y-135448307D01*
X90629832Y-135624681D01*
X90633858Y-135627759D01*
X90633859Y-135627760D01*
X90818654Y-135769047D01*
X90818658Y-135769050D01*
X90822674Y-135772120D01*
X91036609Y-135886831D01*
X91266131Y-135965862D01*
X91365478Y-135983022D01*
X91501426Y-136006504D01*
X91501432Y-136006505D01*
X91505336Y-136007179D01*
X91509297Y-136007359D01*
X91509298Y-136007359D01*
X91533006Y-136008436D01*
X91533025Y-136008436D01*
X91534425Y-136008500D01*
X91703501Y-136008500D01*
X91706009Y-136008298D01*
X91706014Y-136008298D01*
X91879424Y-135994346D01*
X91879429Y-135994345D01*
X91884465Y-135993940D01*
X91889373Y-135992734D01*
X91889376Y-135992734D01*
X92115292Y-135937244D01*
X92120206Y-135936037D01*
X92124858Y-135934062D01*
X92124862Y-135934061D01*
X92338998Y-135843165D01*
X92343656Y-135841188D01*
X92449537Y-135774511D01*
X92544788Y-135714528D01*
X92544791Y-135714526D01*
X92549067Y-135711833D01*
X92647922Y-135624681D01*
X92727358Y-135554650D01*
X92727361Y-135554647D01*
X92731155Y-135551302D01*
X92885234Y-135363722D01*
X93007341Y-135153922D01*
X93094333Y-134927298D01*
X93143974Y-134689680D01*
X93154986Y-134447183D01*
X93139735Y-134315373D01*
X93127667Y-134211071D01*
X93127666Y-134211067D01*
X93127085Y-134206044D01*
X93088017Y-134067978D01*
X93062366Y-133977331D01*
X93060990Y-133972468D01*
X93058856Y-133967892D01*
X93058854Y-133967886D01*
X92960538Y-133757046D01*
X92960536Y-133757042D01*
X92958401Y-133752464D01*
X92821956Y-133551693D01*
X92655168Y-133375319D01*
X92644358Y-133367054D01*
X92466346Y-133230953D01*
X92466342Y-133230950D01*
X92462326Y-133227880D01*
X92381800Y-133184702D01*
X92252852Y-133115561D01*
X92248391Y-133113169D01*
X92018869Y-133034138D01*
X91919522Y-133016978D01*
X91783574Y-132993496D01*
X91783568Y-132993495D01*
X91779664Y-132992821D01*
X91775703Y-132992641D01*
X91775702Y-132992641D01*
X91751994Y-132991564D01*
X91751975Y-132991564D01*
X91750575Y-132991500D01*
X91581499Y-132991500D01*
X91578991Y-132991702D01*
X91578986Y-132991702D01*
X91405576Y-133005654D01*
X91405571Y-133005655D01*
X91400535Y-133006060D01*
X91395627Y-133007266D01*
X91395624Y-133007266D01*
X91169708Y-133062756D01*
X91164794Y-133063963D01*
X91160142Y-133065938D01*
X91160138Y-133065939D01*
X91071773Y-133103448D01*
X90941344Y-133158812D01*
X90937060Y-133161510D01*
X90740212Y-133285472D01*
X90740209Y-133285474D01*
X90735933Y-133288167D01*
X90732139Y-133291512D01*
X90557642Y-133445350D01*
X90557639Y-133445353D01*
X90553845Y-133448698D01*
X90550635Y-133452606D01*
X90550634Y-133452607D01*
X90493496Y-133522169D01*
X90399766Y-133636278D01*
X90277659Y-133846078D01*
X90190667Y-134072702D01*
X90141026Y-134310320D01*
X90130014Y-134552817D01*
X65508500Y-134552817D01*
X65508500Y-133000000D01*
X85111633Y-133000000D01*
X85131046Y-133184702D01*
X85188436Y-133361331D01*
X85191739Y-133367053D01*
X85191740Y-133367054D01*
X85224568Y-133423914D01*
X85281296Y-133522169D01*
X85405566Y-133660185D01*
X85410908Y-133664066D01*
X85410910Y-133664068D01*
X85550474Y-133765467D01*
X85555816Y-133769348D01*
X85561844Y-133772032D01*
X85561846Y-133772033D01*
X85718343Y-133841710D01*
X85725479Y-133844887D01*
X85816310Y-133864194D01*
X85900683Y-133882128D01*
X85900687Y-133882128D01*
X85907140Y-133883500D01*
X86092860Y-133883500D01*
X86099313Y-133882128D01*
X86099317Y-133882128D01*
X86183690Y-133864194D01*
X86274521Y-133844887D01*
X86281657Y-133841710D01*
X86438154Y-133772033D01*
X86438156Y-133772032D01*
X86444184Y-133769348D01*
X86449526Y-133765467D01*
X86589090Y-133664068D01*
X86589092Y-133664066D01*
X86594434Y-133660185D01*
X86718704Y-133522169D01*
X86775432Y-133423914D01*
X86808260Y-133367054D01*
X86808261Y-133367053D01*
X86811564Y-133361331D01*
X86868954Y-133184702D01*
X86888367Y-133000000D01*
X86884401Y-132962263D01*
X86869644Y-132821862D01*
X86869644Y-132821861D01*
X86868954Y-132815298D01*
X86864199Y-132800662D01*
X86813606Y-132644954D01*
X86811564Y-132638669D01*
X86718704Y-132477831D01*
X86640864Y-132391381D01*
X86610147Y-132327374D01*
X86608500Y-132307071D01*
X86608500Y-127390000D01*
X90379193Y-127390000D01*
X90398385Y-127609371D01*
X90455380Y-127822076D01*
X90457705Y-127827061D01*
X90546118Y-128016666D01*
X90546121Y-128016671D01*
X90548444Y-128021653D01*
X90674751Y-128202038D01*
X90830462Y-128357749D01*
X91010846Y-128484056D01*
X91210424Y-128577120D01*
X91423129Y-128634115D01*
X91642500Y-128653307D01*
X91861871Y-128634115D01*
X92074576Y-128577120D01*
X92274154Y-128484056D01*
X92454538Y-128357749D01*
X92610249Y-128202038D01*
X92736556Y-128021653D01*
X92738879Y-128016671D01*
X92738882Y-128016666D01*
X92827295Y-127827061D01*
X92829620Y-127822076D01*
X92886615Y-127609371D01*
X92905807Y-127390000D01*
X92886615Y-127170629D01*
X92829620Y-126957924D01*
X92786085Y-126864562D01*
X92738882Y-126763334D01*
X92738879Y-126763329D01*
X92736556Y-126758347D01*
X92610249Y-126577962D01*
X92454538Y-126422251D01*
X92274154Y-126295944D01*
X92269172Y-126293621D01*
X92269167Y-126293618D01*
X92141732Y-126234195D01*
X92088447Y-126187278D01*
X92068986Y-126119001D01*
X92089528Y-126051041D01*
X92141732Y-126005805D01*
X92269167Y-125946382D01*
X92269172Y-125946379D01*
X92274154Y-125944056D01*
X92454538Y-125817749D01*
X92610249Y-125662038D01*
X92704700Y-125527149D01*
X92733399Y-125486162D01*
X92733400Y-125486160D01*
X92736556Y-125481653D01*
X92738879Y-125476671D01*
X92738882Y-125476666D01*
X92827295Y-125287061D01*
X92829620Y-125282076D01*
X92886615Y-125069371D01*
X92905807Y-124850000D01*
X92886615Y-124630629D01*
X92829620Y-124417924D01*
X92738998Y-124223583D01*
X92738882Y-124223334D01*
X92738879Y-124223329D01*
X92736556Y-124218347D01*
X92705286Y-124173689D01*
X92613408Y-124042473D01*
X92613406Y-124042470D01*
X92610249Y-124037962D01*
X92454538Y-123882251D01*
X92385835Y-123834144D01*
X92344474Y-123805183D01*
X92274154Y-123755944D01*
X92269172Y-123753621D01*
X92269167Y-123753618D01*
X92141732Y-123694195D01*
X92088447Y-123647278D01*
X92068986Y-123579001D01*
X92089528Y-123511041D01*
X92141732Y-123465805D01*
X92269167Y-123406382D01*
X92269172Y-123406379D01*
X92274154Y-123404056D01*
X92454538Y-123277749D01*
X92610249Y-123122038D01*
X92736556Y-122941653D01*
X92738879Y-122936671D01*
X92738882Y-122936666D01*
X92827295Y-122747061D01*
X92829620Y-122742076D01*
X92886615Y-122529371D01*
X92905807Y-122310000D01*
X92886615Y-122090629D01*
X92829620Y-121877924D01*
X92786085Y-121784562D01*
X92738882Y-121683334D01*
X92738879Y-121683329D01*
X92736556Y-121678347D01*
X92733399Y-121673838D01*
X92613408Y-121502473D01*
X92613406Y-121502470D01*
X92610249Y-121497962D01*
X92454538Y-121342251D01*
X92274154Y-121215944D01*
X92269172Y-121213621D01*
X92269167Y-121213618D01*
X92141732Y-121154195D01*
X92088447Y-121107278D01*
X92068986Y-121039001D01*
X92089528Y-120971041D01*
X92141732Y-120925805D01*
X92269167Y-120866382D01*
X92269172Y-120866379D01*
X92274154Y-120864056D01*
X92454538Y-120737749D01*
X92610249Y-120582038D01*
X92736556Y-120401653D01*
X92738879Y-120396671D01*
X92738882Y-120396666D01*
X92827295Y-120207061D01*
X92829620Y-120202076D01*
X92886615Y-119989371D01*
X92905807Y-119770000D01*
X92886615Y-119550629D01*
X92829620Y-119337924D01*
X92786085Y-119244562D01*
X92738882Y-119143334D01*
X92738879Y-119143329D01*
X92736556Y-119138347D01*
X92610249Y-118957962D01*
X92454538Y-118802251D01*
X92274154Y-118675944D01*
X92269172Y-118673621D01*
X92269167Y-118673618D01*
X92141732Y-118614195D01*
X92088447Y-118567278D01*
X92068986Y-118499001D01*
X92089528Y-118431041D01*
X92141732Y-118385805D01*
X92269167Y-118326382D01*
X92269172Y-118326379D01*
X92274154Y-118324056D01*
X92454538Y-118197749D01*
X92610249Y-118042038D01*
X92736556Y-117861653D01*
X92738879Y-117856671D01*
X92738882Y-117856666D01*
X92827295Y-117667061D01*
X92829620Y-117662076D01*
X92886615Y-117449371D01*
X92905807Y-117230000D01*
X92886615Y-117010629D01*
X92829620Y-116797924D01*
X92786085Y-116704562D01*
X92738882Y-116603334D01*
X92738879Y-116603329D01*
X92736556Y-116598347D01*
X92610249Y-116417962D01*
X92454538Y-116262251D01*
X92274154Y-116135944D01*
X92269172Y-116133621D01*
X92269167Y-116133618D01*
X92141732Y-116074195D01*
X92088447Y-116027278D01*
X92068986Y-115959001D01*
X92089528Y-115891041D01*
X92141732Y-115845805D01*
X92269167Y-115786382D01*
X92269172Y-115786379D01*
X92274154Y-115784056D01*
X92454538Y-115657749D01*
X92610249Y-115502038D01*
X92736556Y-115321653D01*
X92738879Y-115316671D01*
X92738882Y-115316666D01*
X92827295Y-115127061D01*
X92829620Y-115122076D01*
X92886615Y-114909371D01*
X92905807Y-114690000D01*
X92886615Y-114470629D01*
X92829620Y-114257924D01*
X92786085Y-114164562D01*
X92738882Y-114063334D01*
X92738879Y-114063329D01*
X92736556Y-114058347D01*
X92610249Y-113877962D01*
X92454538Y-113722251D01*
X92274154Y-113595944D01*
X92269172Y-113593621D01*
X92269167Y-113593618D01*
X92141141Y-113533919D01*
X92087856Y-113487002D01*
X92068395Y-113418724D01*
X92088937Y-113350764D01*
X92141141Y-113305529D01*
X92268916Y-113245947D01*
X92278412Y-113240464D01*
X92319648Y-113211590D01*
X92328023Y-113201112D01*
X92320957Y-113187668D01*
X91655311Y-112522021D01*
X91641368Y-112514408D01*
X91639534Y-112514539D01*
X91632920Y-112518790D01*
X90963320Y-113188391D01*
X90956893Y-113200161D01*
X90966187Y-113212175D01*
X91006588Y-113240464D01*
X91016084Y-113245947D01*
X91143859Y-113305529D01*
X91197144Y-113352446D01*
X91216605Y-113420724D01*
X91196063Y-113488684D01*
X91143859Y-113533919D01*
X91015834Y-113593618D01*
X91015829Y-113593621D01*
X91010847Y-113595944D01*
X91006340Y-113599100D01*
X91006338Y-113599101D01*
X90834973Y-113719092D01*
X90834970Y-113719094D01*
X90830462Y-113722251D01*
X90674751Y-113877962D01*
X90548444Y-114058347D01*
X90546121Y-114063329D01*
X90546118Y-114063334D01*
X90498915Y-114164562D01*
X90455380Y-114257924D01*
X90398385Y-114470629D01*
X90379193Y-114690000D01*
X90398385Y-114909371D01*
X90455380Y-115122076D01*
X90457705Y-115127061D01*
X90546118Y-115316666D01*
X90546121Y-115316671D01*
X90548444Y-115321653D01*
X90674751Y-115502038D01*
X90830462Y-115657749D01*
X91010846Y-115784056D01*
X91015828Y-115786379D01*
X91015833Y-115786382D01*
X91143268Y-115845805D01*
X91196553Y-115892722D01*
X91216014Y-115960999D01*
X91195472Y-116028959D01*
X91143268Y-116074195D01*
X91015834Y-116133618D01*
X91015829Y-116133621D01*
X91010847Y-116135944D01*
X91006340Y-116139100D01*
X91006338Y-116139101D01*
X90834973Y-116259092D01*
X90834970Y-116259094D01*
X90830462Y-116262251D01*
X90674751Y-116417962D01*
X90548444Y-116598347D01*
X90546121Y-116603329D01*
X90546118Y-116603334D01*
X90498915Y-116704562D01*
X90455380Y-116797924D01*
X90398385Y-117010629D01*
X90379193Y-117230000D01*
X90398385Y-117449371D01*
X90455380Y-117662076D01*
X90457705Y-117667061D01*
X90546118Y-117856666D01*
X90546121Y-117856671D01*
X90548444Y-117861653D01*
X90674751Y-118042038D01*
X90830462Y-118197749D01*
X91010846Y-118324056D01*
X91015828Y-118326379D01*
X91015833Y-118326382D01*
X91143268Y-118385805D01*
X91196553Y-118432722D01*
X91216014Y-118500999D01*
X91195472Y-118568959D01*
X91143268Y-118614195D01*
X91015834Y-118673618D01*
X91015829Y-118673621D01*
X91010847Y-118675944D01*
X91006340Y-118679100D01*
X91006338Y-118679101D01*
X90834973Y-118799092D01*
X90834970Y-118799094D01*
X90830462Y-118802251D01*
X90674751Y-118957962D01*
X90548444Y-119138347D01*
X90546121Y-119143329D01*
X90546118Y-119143334D01*
X90498915Y-119244562D01*
X90455380Y-119337924D01*
X90398385Y-119550629D01*
X90379193Y-119770000D01*
X90398385Y-119989371D01*
X90455380Y-120202076D01*
X90457705Y-120207061D01*
X90546118Y-120396666D01*
X90546121Y-120396671D01*
X90548444Y-120401653D01*
X90674751Y-120582038D01*
X90830462Y-120737749D01*
X91010846Y-120864056D01*
X91015828Y-120866379D01*
X91015833Y-120866382D01*
X91143268Y-120925805D01*
X91196553Y-120972722D01*
X91216014Y-121040999D01*
X91195472Y-121108959D01*
X91143268Y-121154195D01*
X91015834Y-121213618D01*
X91015829Y-121213621D01*
X91010847Y-121215944D01*
X91006340Y-121219100D01*
X91006338Y-121219101D01*
X90834973Y-121339092D01*
X90834970Y-121339094D01*
X90830462Y-121342251D01*
X90674751Y-121497962D01*
X90671594Y-121502470D01*
X90671592Y-121502473D01*
X90551601Y-121673838D01*
X90548444Y-121678347D01*
X90546121Y-121683329D01*
X90546118Y-121683334D01*
X90498915Y-121784562D01*
X90455380Y-121877924D01*
X90398385Y-122090629D01*
X90379193Y-122310000D01*
X90398385Y-122529371D01*
X90455380Y-122742076D01*
X90457705Y-122747061D01*
X90546118Y-122936666D01*
X90546121Y-122936671D01*
X90548444Y-122941653D01*
X90674751Y-123122038D01*
X90830462Y-123277749D01*
X91010846Y-123404056D01*
X91015828Y-123406379D01*
X91015833Y-123406382D01*
X91143268Y-123465805D01*
X91196553Y-123512722D01*
X91216014Y-123580999D01*
X91195472Y-123648959D01*
X91143268Y-123694195D01*
X91015834Y-123753618D01*
X91015829Y-123753621D01*
X91010847Y-123755944D01*
X91006340Y-123759100D01*
X91006338Y-123759101D01*
X90834973Y-123879092D01*
X90834970Y-123879094D01*
X90830462Y-123882251D01*
X90674751Y-124037962D01*
X90671594Y-124042470D01*
X90671592Y-124042473D01*
X90579714Y-124173689D01*
X90548444Y-124218347D01*
X90546121Y-124223329D01*
X90546118Y-124223334D01*
X90546002Y-124223583D01*
X90455380Y-124417924D01*
X90398385Y-124630629D01*
X90379193Y-124850000D01*
X90398385Y-125069371D01*
X90455380Y-125282076D01*
X90457705Y-125287061D01*
X90546118Y-125476666D01*
X90546121Y-125476671D01*
X90548444Y-125481653D01*
X90551600Y-125486160D01*
X90551601Y-125486162D01*
X90580301Y-125527149D01*
X90674751Y-125662038D01*
X90830462Y-125817749D01*
X91010846Y-125944056D01*
X91015828Y-125946379D01*
X91015833Y-125946382D01*
X91143268Y-126005805D01*
X91196553Y-126052722D01*
X91216014Y-126120999D01*
X91195472Y-126188959D01*
X91143268Y-126234195D01*
X91015834Y-126293618D01*
X91015829Y-126293621D01*
X91010847Y-126295944D01*
X91006340Y-126299100D01*
X91006338Y-126299101D01*
X90834973Y-126419092D01*
X90834970Y-126419094D01*
X90830462Y-126422251D01*
X90674751Y-126577962D01*
X90548444Y-126758347D01*
X90546121Y-126763329D01*
X90546118Y-126763334D01*
X90498915Y-126864562D01*
X90455380Y-126957924D01*
X90398385Y-127170629D01*
X90379193Y-127390000D01*
X86608500Y-127390000D01*
X86608500Y-112155475D01*
X90380174Y-112155475D01*
X90398401Y-112363804D01*
X90400304Y-112374599D01*
X90454428Y-112576595D01*
X90458174Y-112586887D01*
X90546554Y-112776417D01*
X90552034Y-112785907D01*
X90580911Y-112827149D01*
X90591387Y-112835523D01*
X90604834Y-112828455D01*
X91270479Y-112162811D01*
X91276856Y-112151132D01*
X92006908Y-112151132D01*
X92007039Y-112152966D01*
X92011290Y-112159580D01*
X92680891Y-112829180D01*
X92692661Y-112835607D01*
X92704676Y-112826311D01*
X92732966Y-112785907D01*
X92738446Y-112776417D01*
X92826826Y-112586887D01*
X92830572Y-112576595D01*
X92884696Y-112374599D01*
X92886599Y-112363804D01*
X92904826Y-112155475D01*
X92904826Y-112144525D01*
X92886599Y-111936196D01*
X92884696Y-111925401D01*
X92830572Y-111723405D01*
X92826826Y-111713113D01*
X92738446Y-111523583D01*
X92732966Y-111514093D01*
X92704089Y-111472851D01*
X92693613Y-111464477D01*
X92680166Y-111471545D01*
X92014521Y-112137189D01*
X92006908Y-112151132D01*
X91276856Y-112151132D01*
X91278092Y-112148868D01*
X91277961Y-112147034D01*
X91273710Y-112140420D01*
X90604109Y-111470820D01*
X90592339Y-111464393D01*
X90580324Y-111473689D01*
X90552034Y-111514093D01*
X90546554Y-111523583D01*
X90458174Y-111713113D01*
X90454428Y-111723405D01*
X90400304Y-111925401D01*
X90398401Y-111936196D01*
X90380174Y-112144525D01*
X90380174Y-112155475D01*
X86608500Y-112155475D01*
X86608500Y-110408134D01*
X90384000Y-110408134D01*
X90390755Y-110470316D01*
X90441885Y-110606705D01*
X90529239Y-110723261D01*
X90645795Y-110810615D01*
X90782184Y-110861745D01*
X90844366Y-110868500D01*
X90879794Y-110868500D01*
X90947915Y-110888502D01*
X90994408Y-110942158D01*
X91004512Y-111012432D01*
X90976379Y-111074032D01*
X90976663Y-111074259D01*
X90975759Y-111075390D01*
X90975018Y-111077012D01*
X90973027Y-111078808D01*
X90956977Y-111098887D01*
X90964045Y-111112334D01*
X91629689Y-111777979D01*
X91643632Y-111785592D01*
X91645466Y-111785461D01*
X91652080Y-111781210D01*
X92321680Y-111111609D01*
X92328107Y-111099839D01*
X92307102Y-111072688D01*
X92310704Y-111069902D01*
X92288608Y-111042262D01*
X92281295Y-110971643D01*
X92313323Y-110908281D01*
X92374522Y-110872293D01*
X92405205Y-110868500D01*
X92440634Y-110868500D01*
X92502816Y-110861745D01*
X92639205Y-110810615D01*
X92755761Y-110723261D01*
X92843115Y-110606705D01*
X92894245Y-110470316D01*
X92901000Y-110408134D01*
X92901000Y-108811866D01*
X92894245Y-108749684D01*
X92843115Y-108613295D01*
X92755761Y-108496739D01*
X92639205Y-108409385D01*
X92502816Y-108358255D01*
X92440634Y-108351500D01*
X90844366Y-108351500D01*
X90782184Y-108358255D01*
X90645795Y-108409385D01*
X90529239Y-108496739D01*
X90441885Y-108613295D01*
X90390755Y-108749684D01*
X90384000Y-108811866D01*
X90384000Y-110408134D01*
X86608500Y-110408134D01*
X86608500Y-107304239D01*
X86628502Y-107236118D01*
X86645405Y-107215144D01*
X93715144Y-100145405D01*
X93777456Y-100111379D01*
X93804239Y-100108500D01*
X102302930Y-100108500D01*
X102371051Y-100128502D01*
X102396566Y-100150190D01*
X102405566Y-100160185D01*
X102410908Y-100164066D01*
X102410910Y-100164068D01*
X102550474Y-100265467D01*
X102555816Y-100269348D01*
X102561844Y-100272032D01*
X102561846Y-100272033D01*
X102719448Y-100342202D01*
X102725479Y-100344887D01*
X102816310Y-100364194D01*
X102900683Y-100382128D01*
X102900687Y-100382128D01*
X102907140Y-100383500D01*
X103092860Y-100383500D01*
X103099313Y-100382128D01*
X103099317Y-100382128D01*
X103183690Y-100364194D01*
X103274521Y-100344887D01*
X103280552Y-100342202D01*
X103438154Y-100272033D01*
X103438156Y-100272032D01*
X103444184Y-100269348D01*
X103449526Y-100265467D01*
X103558971Y-100185951D01*
X103625839Y-100162092D01*
X103694991Y-100178173D01*
X103722127Y-100198792D01*
X104544569Y-101021234D01*
X104555436Y-101033625D01*
X104574897Y-101058987D01*
X104581447Y-101064013D01*
X104606805Y-101083471D01*
X104606812Y-101083477D01*
X104645508Y-101113169D01*
X104702009Y-101156524D01*
X104850034Y-101217838D01*
X104968999Y-101233500D01*
X104969004Y-101233500D01*
X104969013Y-101233501D01*
X105000696Y-101237672D01*
X105008884Y-101238750D01*
X105040577Y-101234578D01*
X105057020Y-101233500D01*
X117076864Y-101233500D01*
X117093307Y-101234578D01*
X117125000Y-101238750D01*
X117133189Y-101237672D01*
X117164874Y-101233501D01*
X117164884Y-101233500D01*
X117164885Y-101233500D01*
X117164901Y-101233498D01*
X117264457Y-101220391D01*
X117275664Y-101218916D01*
X117275666Y-101218915D01*
X117283851Y-101217838D01*
X117431876Y-101156524D01*
X117438427Y-101151497D01*
X117440362Y-101150380D01*
X117503361Y-101133500D01*
X117592860Y-101133500D01*
X117599313Y-101132128D01*
X117599317Y-101132128D01*
X117696259Y-101111522D01*
X117774521Y-101094887D01*
X117780552Y-101092202D01*
X117938154Y-101022033D01*
X117938156Y-101022032D01*
X117944184Y-101019348D01*
X117949526Y-101015467D01*
X118089090Y-100914068D01*
X118089092Y-100914066D01*
X118094434Y-100910185D01*
X118218704Y-100772169D01*
X118275432Y-100673914D01*
X118308260Y-100617054D01*
X118308261Y-100617053D01*
X118311564Y-100611331D01*
X118368954Y-100434702D01*
X118388367Y-100250000D01*
X118379335Y-100164068D01*
X118369644Y-100071862D01*
X118369644Y-100071861D01*
X118368954Y-100065298D01*
X118347738Y-100000000D01*
X118313606Y-99894954D01*
X118311564Y-99888669D01*
X118218704Y-99727831D01*
X118094434Y-99589815D01*
X118060423Y-99565104D01*
X117949526Y-99484533D01*
X117949525Y-99484532D01*
X117944184Y-99480652D01*
X117938156Y-99477968D01*
X117938154Y-99477967D01*
X117780552Y-99407798D01*
X117780551Y-99407798D01*
X117774521Y-99405113D01*
X117672839Y-99383500D01*
X117599317Y-99367872D01*
X117599313Y-99367872D01*
X117592860Y-99366500D01*
X117407140Y-99366500D01*
X117400687Y-99367872D01*
X117400683Y-99367872D01*
X117327161Y-99383500D01*
X117225479Y-99405113D01*
X117219450Y-99407797D01*
X117219448Y-99407798D01*
X117061847Y-99477967D01*
X117061845Y-99477968D01*
X117055817Y-99480652D01*
X117050476Y-99484532D01*
X117050475Y-99484533D01*
X116910910Y-99585932D01*
X116910908Y-99585934D01*
X116905566Y-99589815D01*
X116781296Y-99727831D01*
X116688436Y-99888669D01*
X116686394Y-99894954D01*
X116675190Y-99929436D01*
X116635117Y-99988042D01*
X116569720Y-100015679D01*
X116555357Y-100016500D01*
X116503552Y-100016500D01*
X116435431Y-99996498D01*
X116388938Y-99942842D01*
X116378242Y-99903670D01*
X116376666Y-99888669D01*
X116368954Y-99815298D01*
X116348305Y-99751745D01*
X116313606Y-99644954D01*
X116311564Y-99638669D01*
X116300002Y-99618642D01*
X116228907Y-99495503D01*
X116218704Y-99477831D01*
X116157686Y-99410063D01*
X116098856Y-99344726D01*
X116098855Y-99344725D01*
X116094434Y-99339815D01*
X116041872Y-99301626D01*
X115949526Y-99234533D01*
X115949525Y-99234532D01*
X115944184Y-99230652D01*
X115938156Y-99227968D01*
X115938154Y-99227967D01*
X115780552Y-99157798D01*
X115780551Y-99157798D01*
X115774521Y-99155113D01*
X115683691Y-99135807D01*
X115599317Y-99117872D01*
X115599313Y-99117872D01*
X115592860Y-99116500D01*
X115407140Y-99116500D01*
X115400687Y-99117872D01*
X115400683Y-99117872D01*
X115316309Y-99135807D01*
X115225479Y-99155113D01*
X115219450Y-99157797D01*
X115219448Y-99157798D01*
X115061847Y-99227967D01*
X115061845Y-99227968D01*
X115055817Y-99230652D01*
X115050476Y-99234533D01*
X115044758Y-99237834D01*
X115043274Y-99235263D01*
X114988613Y-99254795D01*
X114919454Y-99238748D01*
X114869950Y-99187857D01*
X114861527Y-99167940D01*
X114857146Y-99154456D01*
X114811564Y-99014169D01*
X114806037Y-99004595D01*
X114740741Y-98891500D01*
X114718704Y-98853331D01*
X114705981Y-98839200D01*
X114598856Y-98720226D01*
X114598855Y-98720225D01*
X114594434Y-98715315D01*
X114586928Y-98709861D01*
X114449526Y-98610033D01*
X114449525Y-98610032D01*
X114444184Y-98606152D01*
X114438156Y-98603468D01*
X114438154Y-98603467D01*
X114280552Y-98533298D01*
X114280551Y-98533298D01*
X114274521Y-98530613D01*
X114183690Y-98511306D01*
X114099317Y-98493372D01*
X114099313Y-98493372D01*
X114092860Y-98492000D01*
X113907140Y-98492000D01*
X113900687Y-98493372D01*
X113900683Y-98493372D01*
X113816310Y-98511306D01*
X113725479Y-98530613D01*
X113719450Y-98533297D01*
X113719448Y-98533298D01*
X113561847Y-98603467D01*
X113561845Y-98603468D01*
X113555817Y-98606152D01*
X113550476Y-98610032D01*
X113550475Y-98610033D01*
X113410910Y-98711432D01*
X113410908Y-98711434D01*
X113405566Y-98715315D01*
X113401145Y-98720225D01*
X113401144Y-98720226D01*
X113294020Y-98839200D01*
X113281296Y-98853331D01*
X113211914Y-98973505D01*
X113209030Y-98978500D01*
X113157648Y-99027493D01*
X113099911Y-99041500D01*
X112570355Y-99041500D01*
X112502234Y-99021498D01*
X112481260Y-99004595D01*
X106478098Y-93001433D01*
X106444072Y-92939121D01*
X106449137Y-92868306D01*
X106491684Y-92811470D01*
X106558204Y-92786659D01*
X106618442Y-92797231D01*
X106725479Y-92844887D01*
X106816309Y-92864193D01*
X106900683Y-92882128D01*
X106900687Y-92882128D01*
X106907140Y-92883500D01*
X107092860Y-92883500D01*
X107099313Y-92882128D01*
X107099317Y-92882128D01*
X107183691Y-92864193D01*
X107274521Y-92844887D01*
X107280552Y-92842202D01*
X107438154Y-92772033D01*
X107438156Y-92772032D01*
X107444184Y-92769348D01*
X107449526Y-92765467D01*
X107589090Y-92664068D01*
X107589092Y-92664066D01*
X107594434Y-92660185D01*
X107618565Y-92633385D01*
X107714285Y-92527077D01*
X107714286Y-92527076D01*
X107718704Y-92522169D01*
X107811564Y-92361331D01*
X107824648Y-92321062D01*
X107864719Y-92262459D01*
X107930116Y-92234821D01*
X107944480Y-92234000D01*
X108052930Y-92234000D01*
X108121051Y-92254002D01*
X108146566Y-92275690D01*
X108155566Y-92285685D01*
X108160908Y-92289566D01*
X108160910Y-92289568D01*
X108277535Y-92374301D01*
X108305816Y-92394848D01*
X108311844Y-92397532D01*
X108311846Y-92397533D01*
X108469010Y-92467507D01*
X108475479Y-92470387D01*
X108559707Y-92488290D01*
X108650683Y-92507628D01*
X108650687Y-92507628D01*
X108657140Y-92509000D01*
X108842860Y-92509000D01*
X108849313Y-92507628D01*
X108849317Y-92507628D01*
X108940293Y-92488290D01*
X109024521Y-92470387D01*
X109030990Y-92467507D01*
X109188154Y-92397533D01*
X109188156Y-92397532D01*
X109194184Y-92394848D01*
X109222465Y-92374301D01*
X109339090Y-92289568D01*
X109339092Y-92289566D01*
X109344434Y-92285685D01*
X109353432Y-92275691D01*
X109413876Y-92238451D01*
X109447070Y-92234000D01*
X111067610Y-92234000D01*
X111084053Y-92235078D01*
X111115746Y-92239250D01*
X111123935Y-92238172D01*
X111155620Y-92234001D01*
X111155630Y-92234000D01*
X111155631Y-92234000D01*
X111255203Y-92220891D01*
X111266410Y-92219416D01*
X111266412Y-92219415D01*
X111274597Y-92218338D01*
X111422622Y-92157024D01*
X111517818Y-92083977D01*
X111517821Y-92083974D01*
X111549733Y-92059487D01*
X111569193Y-92034127D01*
X111580058Y-92021737D01*
X112003169Y-91598626D01*
X112435974Y-91165820D01*
X112498287Y-91131795D01*
X112525070Y-91128915D01*
X112562585Y-91128915D01*
X112630706Y-91148917D01*
X112677199Y-91202573D01*
X112687303Y-91272847D01*
X112657809Y-91337427D01*
X112655513Y-91339768D01*
X112655566Y-91339815D01*
X112612891Y-91387211D01*
X112531296Y-91477831D01*
X112485842Y-91556559D01*
X112452163Y-91614894D01*
X112438436Y-91638669D01*
X112436394Y-91644954D01*
X112392002Y-91781580D01*
X112381046Y-91815298D01*
X112380356Y-91821861D01*
X112380356Y-91821862D01*
X112376916Y-91854595D01*
X112361633Y-92000000D01*
X112362323Y-92006565D01*
X112379854Y-92173357D01*
X112381046Y-92184702D01*
X112383086Y-92190980D01*
X112383086Y-92190981D01*
X112397414Y-92235078D01*
X112438436Y-92361331D01*
X112531296Y-92522169D01*
X112535714Y-92527076D01*
X112535715Y-92527077D01*
X112631435Y-92633385D01*
X112655566Y-92660185D01*
X112660908Y-92664066D01*
X112660910Y-92664068D01*
X112800474Y-92765467D01*
X112805816Y-92769348D01*
X112811844Y-92772032D01*
X112811846Y-92772033D01*
X112969448Y-92842202D01*
X112975479Y-92844887D01*
X113066309Y-92864193D01*
X113150683Y-92882128D01*
X113150687Y-92882128D01*
X113157140Y-92883500D01*
X113342860Y-92883500D01*
X113349313Y-92882128D01*
X113349317Y-92882128D01*
X113433691Y-92864193D01*
X113524521Y-92844887D01*
X113530552Y-92842202D01*
X113688154Y-92772033D01*
X113688156Y-92772032D01*
X113694184Y-92769348D01*
X113699526Y-92765467D01*
X113839090Y-92664068D01*
X113839092Y-92664066D01*
X113844434Y-92660185D01*
X113853432Y-92650191D01*
X113913876Y-92612951D01*
X113947070Y-92608500D01*
X115052930Y-92608500D01*
X115121051Y-92628502D01*
X115146566Y-92650190D01*
X115155566Y-92660185D01*
X115160908Y-92664066D01*
X115160910Y-92664068D01*
X115300474Y-92765467D01*
X115305816Y-92769348D01*
X115311844Y-92772032D01*
X115311846Y-92772033D01*
X115469448Y-92842202D01*
X115475479Y-92844887D01*
X115566309Y-92864193D01*
X115650683Y-92882128D01*
X115650687Y-92882128D01*
X115657140Y-92883500D01*
X115842860Y-92883500D01*
X115849313Y-92882128D01*
X115849317Y-92882128D01*
X115933691Y-92864193D01*
X116024521Y-92844887D01*
X116030552Y-92842202D01*
X116188154Y-92772033D01*
X116188156Y-92772032D01*
X116194184Y-92769348D01*
X116199526Y-92765467D01*
X116339090Y-92664068D01*
X116339092Y-92664066D01*
X116344434Y-92660185D01*
X116368565Y-92633385D01*
X116464285Y-92527077D01*
X116464286Y-92527076D01*
X116468704Y-92522169D01*
X116561564Y-92361331D01*
X116602586Y-92235078D01*
X116616914Y-92190981D01*
X116616914Y-92190980D01*
X116618954Y-92184702D01*
X116628242Y-92096329D01*
X116655255Y-92030673D01*
X116713476Y-91990043D01*
X116753552Y-91983500D01*
X117315430Y-91983500D01*
X117383551Y-92003502D01*
X117430044Y-92057158D01*
X117440148Y-92127432D01*
X117435264Y-92148431D01*
X117381046Y-92315298D01*
X117380356Y-92321861D01*
X117380356Y-92321862D01*
X117367379Y-92445331D01*
X117361633Y-92500000D01*
X117362323Y-92506565D01*
X117377954Y-92655279D01*
X117381046Y-92684702D01*
X117383086Y-92690981D01*
X117383087Y-92690984D01*
X117403861Y-92754922D01*
X117405888Y-92825889D01*
X117377665Y-92878166D01*
X117352309Y-92906328D01*
X117352307Y-92906331D01*
X117347885Y-92911242D01*
X117344583Y-92916961D01*
X117344581Y-92916964D01*
X117272788Y-93041314D01*
X117255025Y-93072080D01*
X117197635Y-93248709D01*
X117196945Y-93255272D01*
X117196945Y-93255273D01*
X117185798Y-93361331D01*
X117178222Y-93433411D01*
X117197635Y-93618113D01*
X117255025Y-93794742D01*
X117347885Y-93955580D01*
X117352303Y-93960487D01*
X117352304Y-93960488D01*
X117467733Y-94088685D01*
X117472155Y-94093596D01*
X117477497Y-94097477D01*
X117477499Y-94097479D01*
X117617063Y-94198878D01*
X117622405Y-94202759D01*
X117628433Y-94205443D01*
X117628435Y-94205444D01*
X117765827Y-94266615D01*
X117792068Y-94278298D01*
X117798531Y-94279672D01*
X117804435Y-94281590D01*
X117863041Y-94321663D01*
X117890679Y-94387060D01*
X117891500Y-94401424D01*
X117891500Y-95451864D01*
X117890422Y-95468307D01*
X117886250Y-95500000D01*
X117887328Y-95508189D01*
X117887328Y-95516445D01*
X117886260Y-95516445D01*
X117882969Y-95552244D01*
X117884459Y-95552561D01*
X117883086Y-95559019D01*
X117881046Y-95565298D01*
X117880356Y-95571861D01*
X117880356Y-95571862D01*
X117864479Y-95722923D01*
X117861633Y-95750000D01*
X117862323Y-95756565D01*
X117874567Y-95873054D01*
X117881046Y-95934702D01*
X117883086Y-95940980D01*
X117883086Y-95940981D01*
X117904396Y-96006565D01*
X117938436Y-96111331D01*
X118031296Y-96272169D01*
X118035714Y-96277076D01*
X118035715Y-96277077D01*
X118144810Y-96398239D01*
X118155566Y-96410185D01*
X118160908Y-96414066D01*
X118160910Y-96414068D01*
X118285510Y-96504595D01*
X118305816Y-96519348D01*
X118311844Y-96522032D01*
X118311846Y-96522033D01*
X118355570Y-96541500D01*
X118475479Y-96594887D01*
X118566310Y-96614194D01*
X118650683Y-96632128D01*
X118650687Y-96632128D01*
X118657140Y-96633500D01*
X118842860Y-96633500D01*
X118849313Y-96632128D01*
X118849317Y-96632128D01*
X118933691Y-96614193D01*
X119024521Y-96594887D01*
X119144430Y-96541500D01*
X119188154Y-96522033D01*
X119188156Y-96522032D01*
X119194184Y-96519348D01*
X119214490Y-96504595D01*
X119339090Y-96414068D01*
X119339092Y-96414066D01*
X119344434Y-96410185D01*
X119355190Y-96398239D01*
X119464285Y-96277077D01*
X119464286Y-96277076D01*
X119468704Y-96272169D01*
X119531382Y-96163608D01*
X119582763Y-96114616D01*
X119652477Y-96101180D01*
X119718388Y-96127566D01*
X119759570Y-96185398D01*
X119766500Y-96226609D01*
X119766500Y-112070761D01*
X119746498Y-112138882D01*
X119729595Y-112159856D01*
X95559856Y-136329595D01*
X95497544Y-136363621D01*
X95470761Y-136366500D01*
X95407140Y-136366500D01*
X95400687Y-136367872D01*
X95400683Y-136367872D01*
X95316309Y-136385807D01*
X95225479Y-136405113D01*
X95219450Y-136407797D01*
X95219448Y-136407798D01*
X95061847Y-136477967D01*
X95061845Y-136477968D01*
X95055817Y-136480652D01*
X95050476Y-136484532D01*
X95050475Y-136484533D01*
X94910910Y-136585932D01*
X94910908Y-136585934D01*
X94905566Y-136589815D01*
X94781296Y-136727831D01*
X94688436Y-136888669D01*
X94686394Y-136894954D01*
X94652263Y-137000000D01*
X94631046Y-137065298D01*
X94611633Y-137250000D01*
X94631046Y-137434702D01*
X94688436Y-137611331D01*
X94691739Y-137617053D01*
X94691740Y-137617054D01*
X94716642Y-137660185D01*
X94781296Y-137772169D01*
X94905566Y-137910185D01*
X95055816Y-138019348D01*
X95061844Y-138022032D01*
X95061846Y-138022033D01*
X95219448Y-138092202D01*
X95225479Y-138094887D01*
X95316310Y-138114194D01*
X95400683Y-138132128D01*
X95400687Y-138132128D01*
X95407140Y-138133500D01*
X95592860Y-138133500D01*
X95599313Y-138132128D01*
X95599317Y-138132128D01*
X95683690Y-138114194D01*
X95774521Y-138094887D01*
X95780552Y-138092202D01*
X95938154Y-138022033D01*
X95938156Y-138022032D01*
X95944184Y-138019348D01*
X96094434Y-137910185D01*
X96218704Y-137772169D01*
X96283358Y-137660185D01*
X96308260Y-137617054D01*
X96308261Y-137617053D01*
X96311564Y-137611331D01*
X96368954Y-137434702D01*
X96386970Y-137263288D01*
X96413983Y-137197632D01*
X96423185Y-137187364D01*
X120426405Y-113184144D01*
X120488717Y-113150118D01*
X120559532Y-113155183D01*
X120616368Y-113197730D01*
X120641179Y-113264250D01*
X120641500Y-113273239D01*
X120641500Y-122195761D01*
X120621498Y-122263882D01*
X120604595Y-122284856D01*
X106559856Y-136329595D01*
X106497544Y-136363621D01*
X106470761Y-136366500D01*
X106407140Y-136366500D01*
X106400687Y-136367872D01*
X106400683Y-136367872D01*
X106316309Y-136385807D01*
X106225479Y-136405113D01*
X106219450Y-136407797D01*
X106219448Y-136407798D01*
X106061847Y-136477967D01*
X106061845Y-136477968D01*
X106055817Y-136480652D01*
X106050476Y-136484532D01*
X106050475Y-136484533D01*
X105910910Y-136585932D01*
X105910908Y-136585934D01*
X105905566Y-136589815D01*
X105781296Y-136727831D01*
X105688436Y-136888669D01*
X105686394Y-136894954D01*
X105652263Y-137000000D01*
X105631046Y-137065298D01*
X105611633Y-137250000D01*
X105631046Y-137434702D01*
X105688436Y-137611331D01*
X105691739Y-137617053D01*
X105691740Y-137617054D01*
X105716642Y-137660185D01*
X105781296Y-137772169D01*
X105905566Y-137910185D01*
X106055816Y-138019348D01*
X106061844Y-138022032D01*
X106061846Y-138022033D01*
X106219448Y-138092202D01*
X106225479Y-138094887D01*
X106316310Y-138114194D01*
X106400683Y-138132128D01*
X106400687Y-138132128D01*
X106407140Y-138133500D01*
X106592860Y-138133500D01*
X106599313Y-138132128D01*
X106599317Y-138132128D01*
X106683690Y-138114194D01*
X106774521Y-138094887D01*
X106780552Y-138092202D01*
X106938154Y-138022033D01*
X106938156Y-138022032D01*
X106944184Y-138019348D01*
X107094434Y-137910185D01*
X107218704Y-137772169D01*
X107283358Y-137660185D01*
X107308260Y-137617054D01*
X107308261Y-137617053D01*
X107311564Y-137611331D01*
X107368954Y-137434702D01*
X107386970Y-137263288D01*
X107413983Y-137197632D01*
X107423185Y-137187364D01*
X120776405Y-123834144D01*
X120838717Y-123800118D01*
X120909532Y-123805183D01*
X120966368Y-123847730D01*
X120991179Y-123914250D01*
X120991500Y-123923239D01*
X120991500Y-132345761D01*
X120971498Y-132413882D01*
X120954595Y-132434856D01*
X117059856Y-136329595D01*
X116997544Y-136363621D01*
X116970761Y-136366500D01*
X116907140Y-136366500D01*
X116900687Y-136367872D01*
X116900683Y-136367872D01*
X116816309Y-136385807D01*
X116725479Y-136405113D01*
X116719450Y-136407797D01*
X116719448Y-136407798D01*
X116561847Y-136477967D01*
X116561845Y-136477968D01*
X116555817Y-136480652D01*
X116550476Y-136484532D01*
X116550475Y-136484533D01*
X116410910Y-136585932D01*
X116410908Y-136585934D01*
X116405566Y-136589815D01*
X116281296Y-136727831D01*
X116188436Y-136888669D01*
X116186394Y-136894954D01*
X116152263Y-137000000D01*
X116131046Y-137065298D01*
X116111633Y-137250000D01*
X116131046Y-137434702D01*
X116188436Y-137611331D01*
X116191739Y-137617053D01*
X116191740Y-137617054D01*
X116216642Y-137660185D01*
X116281296Y-137772169D01*
X116405566Y-137910185D01*
X116555816Y-138019348D01*
X116561844Y-138022032D01*
X116561846Y-138022033D01*
X116719448Y-138092202D01*
X116725479Y-138094887D01*
X116816310Y-138114194D01*
X116900683Y-138132128D01*
X116900687Y-138132128D01*
X116907140Y-138133500D01*
X117092860Y-138133500D01*
X117099313Y-138132128D01*
X117099317Y-138132128D01*
X117183690Y-138114194D01*
X117274521Y-138094887D01*
X117280552Y-138092202D01*
X117438154Y-138022033D01*
X117438156Y-138022032D01*
X117444184Y-138019348D01*
X117594434Y-137910185D01*
X117718704Y-137772169D01*
X117783358Y-137660185D01*
X117808260Y-137617054D01*
X117808261Y-137617053D01*
X117811564Y-137611331D01*
X117868954Y-137434702D01*
X117886970Y-137263288D01*
X117913983Y-137197632D01*
X117923185Y-137187364D01*
X121996234Y-133114315D01*
X122008625Y-133103448D01*
X122027437Y-133089013D01*
X122033987Y-133083987D01*
X122058474Y-133052075D01*
X122058477Y-133052072D01*
X122131523Y-132956876D01*
X122131524Y-132956875D01*
X122192838Y-132808850D01*
X122208500Y-132689885D01*
X122208500Y-132689878D01*
X122213750Y-132650000D01*
X122209578Y-132618307D01*
X122208500Y-132601864D01*
X122208500Y-132373239D01*
X122228502Y-132305118D01*
X122282158Y-132258625D01*
X122352432Y-132248521D01*
X122417012Y-132278015D01*
X122423595Y-132284144D01*
X127076815Y-136937364D01*
X127110841Y-136999676D01*
X127113029Y-137013284D01*
X127131046Y-137184702D01*
X127133086Y-137190980D01*
X127133086Y-137190981D01*
X127154396Y-137256565D01*
X127188436Y-137361331D01*
X127281296Y-137522169D01*
X127405566Y-137660185D01*
X127555816Y-137769348D01*
X127561844Y-137772032D01*
X127561846Y-137772033D01*
X127719448Y-137842202D01*
X127725479Y-137844887D01*
X127816309Y-137864193D01*
X127900683Y-137882128D01*
X127900687Y-137882128D01*
X127907140Y-137883500D01*
X128092860Y-137883500D01*
X128099313Y-137882128D01*
X128099317Y-137882128D01*
X128183691Y-137864193D01*
X128274521Y-137844887D01*
X128280552Y-137842202D01*
X128438154Y-137772033D01*
X128438156Y-137772032D01*
X128444184Y-137769348D01*
X128594434Y-137660185D01*
X128718704Y-137522169D01*
X128811564Y-137361331D01*
X128845604Y-137256565D01*
X128866914Y-137190981D01*
X128866914Y-137190980D01*
X128868954Y-137184702D01*
X128888367Y-137000000D01*
X128868954Y-136815298D01*
X128811564Y-136638669D01*
X128786194Y-136594726D01*
X128722005Y-136483549D01*
X128718704Y-136477831D01*
X128600452Y-136346498D01*
X128598856Y-136344726D01*
X128598855Y-136344725D01*
X128594434Y-136339815D01*
X128580368Y-136329595D01*
X128449526Y-136234533D01*
X128449525Y-136234532D01*
X128444184Y-136230652D01*
X128438156Y-136227968D01*
X128438154Y-136227967D01*
X128280552Y-136157798D01*
X128280551Y-136157798D01*
X128274521Y-136155113D01*
X128183691Y-136135807D01*
X128099317Y-136117872D01*
X128099313Y-136117872D01*
X128092860Y-136116500D01*
X128029239Y-136116500D01*
X127961118Y-136096498D01*
X127940144Y-136079595D01*
X122595405Y-130734856D01*
X122561379Y-130672544D01*
X122558500Y-130645761D01*
X122558500Y-121973239D01*
X122578502Y-121905118D01*
X122632158Y-121858625D01*
X122702432Y-121848521D01*
X122767012Y-121878015D01*
X122773595Y-121884144D01*
X137826815Y-136937364D01*
X137860841Y-136999676D01*
X137863029Y-137013284D01*
X137881046Y-137184702D01*
X137883086Y-137190980D01*
X137883086Y-137190981D01*
X137904396Y-137256565D01*
X137938436Y-137361331D01*
X138031296Y-137522169D01*
X138155566Y-137660185D01*
X138305816Y-137769348D01*
X138311844Y-137772032D01*
X138311846Y-137772033D01*
X138469448Y-137842202D01*
X138475479Y-137844887D01*
X138566309Y-137864193D01*
X138650683Y-137882128D01*
X138650687Y-137882128D01*
X138657140Y-137883500D01*
X138842860Y-137883500D01*
X138849313Y-137882128D01*
X138849317Y-137882128D01*
X138933691Y-137864193D01*
X139024521Y-137844887D01*
X139030552Y-137842202D01*
X139188154Y-137772033D01*
X139188156Y-137772032D01*
X139194184Y-137769348D01*
X139344434Y-137660185D01*
X139468704Y-137522169D01*
X139561564Y-137361331D01*
X139595604Y-137256565D01*
X139616914Y-137190981D01*
X139616914Y-137190980D01*
X139618954Y-137184702D01*
X139638367Y-137000000D01*
X139618954Y-136815298D01*
X139561564Y-136638669D01*
X139536194Y-136594726D01*
X139472005Y-136483549D01*
X139468704Y-136477831D01*
X139350452Y-136346498D01*
X139348856Y-136344726D01*
X139348855Y-136344725D01*
X139344434Y-136339815D01*
X139330368Y-136329595D01*
X139199526Y-136234533D01*
X139199525Y-136234532D01*
X139194184Y-136230652D01*
X139188156Y-136227968D01*
X139188154Y-136227967D01*
X139030552Y-136157798D01*
X139030551Y-136157798D01*
X139024521Y-136155113D01*
X138933691Y-136135807D01*
X138849317Y-136117872D01*
X138849313Y-136117872D01*
X138842860Y-136116500D01*
X138779239Y-136116500D01*
X138711118Y-136096498D01*
X138690144Y-136079595D01*
X122945405Y-120334856D01*
X122911379Y-120272544D01*
X122908500Y-120245761D01*
X122908500Y-111573239D01*
X122928502Y-111505118D01*
X122982158Y-111458625D01*
X123052432Y-111448521D01*
X123117012Y-111478015D01*
X123123595Y-111484144D01*
X148826815Y-137187364D01*
X148860841Y-137249676D01*
X148863029Y-137263284D01*
X148881046Y-137434702D01*
X148938436Y-137611331D01*
X148941739Y-137617053D01*
X148941740Y-137617054D01*
X148966642Y-137660185D01*
X149031296Y-137772169D01*
X149155566Y-137910185D01*
X149305816Y-138019348D01*
X149311844Y-138022032D01*
X149311846Y-138022033D01*
X149469448Y-138092202D01*
X149475479Y-138094887D01*
X149566310Y-138114194D01*
X149650683Y-138132128D01*
X149650687Y-138132128D01*
X149657140Y-138133500D01*
X149842860Y-138133500D01*
X149849313Y-138132128D01*
X149849317Y-138132128D01*
X149933690Y-138114194D01*
X150024521Y-138094887D01*
X150030552Y-138092202D01*
X150188154Y-138022033D01*
X150188156Y-138022032D01*
X150194184Y-138019348D01*
X150344434Y-137910185D01*
X150468704Y-137772169D01*
X150533358Y-137660185D01*
X150558260Y-137617054D01*
X150558261Y-137617053D01*
X150561564Y-137611331D01*
X150618954Y-137434702D01*
X150638367Y-137250000D01*
X150618954Y-137065298D01*
X150597738Y-137000000D01*
X150563606Y-136894954D01*
X150561564Y-136888669D01*
X150468704Y-136727831D01*
X150344434Y-136589815D01*
X150194184Y-136480652D01*
X150188156Y-136477968D01*
X150188154Y-136477967D01*
X150030552Y-136407798D01*
X150030551Y-136407798D01*
X150024521Y-136405113D01*
X149933691Y-136385807D01*
X149849317Y-136367872D01*
X149849313Y-136367872D01*
X149842860Y-136366500D01*
X149779239Y-136366500D01*
X149711118Y-136346498D01*
X149690144Y-136329595D01*
X140750549Y-127390000D01*
X165379193Y-127390000D01*
X165398385Y-127609371D01*
X165455380Y-127822076D01*
X165457705Y-127827061D01*
X165546118Y-128016666D01*
X165546121Y-128016671D01*
X165548444Y-128021653D01*
X165674751Y-128202038D01*
X165830462Y-128357749D01*
X166010846Y-128484056D01*
X166210424Y-128577120D01*
X166423129Y-128634115D01*
X166642500Y-128653307D01*
X166861871Y-128634115D01*
X167074576Y-128577120D01*
X167274154Y-128484056D01*
X167454538Y-128357749D01*
X167610249Y-128202038D01*
X167736556Y-128021653D01*
X167738879Y-128016671D01*
X167738882Y-128016666D01*
X167827295Y-127827061D01*
X167829620Y-127822076D01*
X167886615Y-127609371D01*
X167905807Y-127390000D01*
X167886615Y-127170629D01*
X167829620Y-126957924D01*
X167786085Y-126864562D01*
X167738882Y-126763334D01*
X167738879Y-126763329D01*
X167736556Y-126758347D01*
X167610249Y-126577962D01*
X167454538Y-126422251D01*
X167274154Y-126295944D01*
X167269172Y-126293621D01*
X167269167Y-126293618D01*
X167141141Y-126233919D01*
X167087856Y-126187002D01*
X167068395Y-126118724D01*
X167088937Y-126050764D01*
X167141141Y-126005529D01*
X167268916Y-125945947D01*
X167278412Y-125940464D01*
X167319648Y-125911590D01*
X167328023Y-125901112D01*
X167320957Y-125887668D01*
X166655311Y-125222021D01*
X166641368Y-125214408D01*
X166639534Y-125214539D01*
X166632920Y-125218790D01*
X165963320Y-125888391D01*
X165956893Y-125900161D01*
X165966187Y-125912175D01*
X166006588Y-125940464D01*
X166016084Y-125945947D01*
X166143859Y-126005529D01*
X166197144Y-126052446D01*
X166216605Y-126120724D01*
X166196063Y-126188684D01*
X166143859Y-126233919D01*
X166015834Y-126293618D01*
X166015829Y-126293621D01*
X166010847Y-126295944D01*
X166006340Y-126299100D01*
X166006338Y-126299101D01*
X165834973Y-126419092D01*
X165834970Y-126419094D01*
X165830462Y-126422251D01*
X165674751Y-126577962D01*
X165548444Y-126758347D01*
X165546121Y-126763329D01*
X165546118Y-126763334D01*
X165498915Y-126864562D01*
X165455380Y-126957924D01*
X165398385Y-127170629D01*
X165379193Y-127390000D01*
X140750549Y-127390000D01*
X138216024Y-124855475D01*
X165380174Y-124855475D01*
X165398401Y-125063804D01*
X165400304Y-125074599D01*
X165454428Y-125276595D01*
X165458174Y-125286887D01*
X165546554Y-125476417D01*
X165552034Y-125485907D01*
X165580911Y-125527149D01*
X165591387Y-125535523D01*
X165604834Y-125528455D01*
X166270479Y-124862811D01*
X166276856Y-124851132D01*
X167006908Y-124851132D01*
X167007039Y-124852966D01*
X167011290Y-124859580D01*
X167680891Y-125529180D01*
X167692661Y-125535607D01*
X167704676Y-125526311D01*
X167732966Y-125485907D01*
X167738446Y-125476417D01*
X167826826Y-125286887D01*
X167830572Y-125276595D01*
X167884696Y-125074599D01*
X167886599Y-125063804D01*
X167904826Y-124855475D01*
X167904826Y-124844525D01*
X167886599Y-124636196D01*
X167884696Y-124625401D01*
X167830572Y-124423405D01*
X167826826Y-124413113D01*
X167738446Y-124223583D01*
X167732966Y-124214093D01*
X167704089Y-124172851D01*
X167693613Y-124164477D01*
X167680166Y-124171545D01*
X167014521Y-124837189D01*
X167006908Y-124851132D01*
X166276856Y-124851132D01*
X166278092Y-124848868D01*
X166277961Y-124847034D01*
X166273710Y-124840420D01*
X165604109Y-124170820D01*
X165592339Y-124164393D01*
X165580324Y-124173689D01*
X165552034Y-124214093D01*
X165546554Y-124223583D01*
X165458174Y-124413113D01*
X165454428Y-124423405D01*
X165400304Y-124625401D01*
X165398401Y-124636196D01*
X165380174Y-124844525D01*
X165380174Y-124855475D01*
X138216024Y-124855475D01*
X135670549Y-122310000D01*
X165379193Y-122310000D01*
X165398385Y-122529371D01*
X165455380Y-122742076D01*
X165457705Y-122747061D01*
X165546118Y-122936666D01*
X165546121Y-122936671D01*
X165548444Y-122941653D01*
X165674751Y-123122038D01*
X165830462Y-123277749D01*
X166010846Y-123404056D01*
X166015828Y-123406379D01*
X166015833Y-123406382D01*
X166143859Y-123466081D01*
X166197144Y-123512998D01*
X166216605Y-123581276D01*
X166196063Y-123649236D01*
X166143859Y-123694471D01*
X166016083Y-123754054D01*
X166006593Y-123759534D01*
X165965351Y-123788411D01*
X165956977Y-123798887D01*
X165964045Y-123812334D01*
X166629689Y-124477979D01*
X166643632Y-124485592D01*
X166645466Y-124485461D01*
X166652080Y-124481210D01*
X167321680Y-123811609D01*
X167328107Y-123799839D01*
X167318813Y-123787825D01*
X167278412Y-123759536D01*
X167268916Y-123754053D01*
X167141141Y-123694471D01*
X167087856Y-123647554D01*
X167068395Y-123579276D01*
X167088937Y-123511316D01*
X167141141Y-123466081D01*
X167269167Y-123406382D01*
X167269172Y-123406379D01*
X167274154Y-123404056D01*
X167454538Y-123277749D01*
X167610249Y-123122038D01*
X167736556Y-122941653D01*
X167738879Y-122936671D01*
X167738882Y-122936666D01*
X167827295Y-122747061D01*
X167829620Y-122742076D01*
X167886615Y-122529371D01*
X167905807Y-122310000D01*
X167886615Y-122090629D01*
X167829620Y-121877924D01*
X167786085Y-121784562D01*
X167738882Y-121683334D01*
X167738879Y-121683329D01*
X167736556Y-121678347D01*
X167733399Y-121673838D01*
X167613408Y-121502473D01*
X167613406Y-121502470D01*
X167610249Y-121497962D01*
X167454538Y-121342251D01*
X167274154Y-121215944D01*
X167269172Y-121213621D01*
X167269167Y-121213618D01*
X167141732Y-121154195D01*
X167088447Y-121107278D01*
X167068986Y-121039001D01*
X167089528Y-120971041D01*
X167141732Y-120925805D01*
X167269167Y-120866382D01*
X167269172Y-120866379D01*
X167274154Y-120864056D01*
X167454538Y-120737749D01*
X167610249Y-120582038D01*
X167736556Y-120401653D01*
X167738879Y-120396671D01*
X167738882Y-120396666D01*
X167827295Y-120207061D01*
X167829620Y-120202076D01*
X167886615Y-119989371D01*
X167905807Y-119770000D01*
X167886615Y-119550629D01*
X167829620Y-119337924D01*
X167786085Y-119244562D01*
X167738882Y-119143334D01*
X167738879Y-119143329D01*
X167736556Y-119138347D01*
X167610249Y-118957962D01*
X167454538Y-118802251D01*
X167274154Y-118675944D01*
X167269172Y-118673621D01*
X167269167Y-118673618D01*
X167141732Y-118614195D01*
X167088447Y-118567278D01*
X167068986Y-118499001D01*
X167089528Y-118431041D01*
X167141732Y-118385805D01*
X167269167Y-118326382D01*
X167269172Y-118326379D01*
X167274154Y-118324056D01*
X167454538Y-118197749D01*
X167610249Y-118042038D01*
X167736556Y-117861653D01*
X167738879Y-117856671D01*
X167738882Y-117856666D01*
X167827295Y-117667061D01*
X167829620Y-117662076D01*
X167886615Y-117449371D01*
X167905807Y-117230000D01*
X167886615Y-117010629D01*
X167829620Y-116797924D01*
X167786085Y-116704562D01*
X167738882Y-116603334D01*
X167738879Y-116603329D01*
X167736556Y-116598347D01*
X167610249Y-116417962D01*
X167454538Y-116262251D01*
X167274154Y-116135944D01*
X167269172Y-116133621D01*
X167269167Y-116133618D01*
X167141732Y-116074195D01*
X167088447Y-116027278D01*
X167068986Y-115959001D01*
X167089528Y-115891041D01*
X167141732Y-115845805D01*
X167269167Y-115786382D01*
X167269172Y-115786379D01*
X167274154Y-115784056D01*
X167454538Y-115657749D01*
X167610249Y-115502038D01*
X167736556Y-115321653D01*
X167738879Y-115316671D01*
X167738882Y-115316666D01*
X167827295Y-115127061D01*
X167829620Y-115122076D01*
X167886615Y-114909371D01*
X167905807Y-114690000D01*
X167886615Y-114470629D01*
X167829620Y-114257924D01*
X167786085Y-114164562D01*
X167738882Y-114063334D01*
X167738879Y-114063329D01*
X167736556Y-114058347D01*
X167610249Y-113877962D01*
X167454538Y-113722251D01*
X167274154Y-113595944D01*
X167269172Y-113593621D01*
X167269167Y-113593618D01*
X167141732Y-113534195D01*
X167088447Y-113487278D01*
X167068986Y-113419001D01*
X167089528Y-113351041D01*
X167141732Y-113305805D01*
X167269167Y-113246382D01*
X167269172Y-113246379D01*
X167274154Y-113244056D01*
X167454538Y-113117749D01*
X167610249Y-112962038D01*
X167704700Y-112827149D01*
X167733399Y-112786162D01*
X167733400Y-112786160D01*
X167736556Y-112781653D01*
X167738879Y-112776671D01*
X167738882Y-112776666D01*
X167827295Y-112587061D01*
X167829620Y-112582076D01*
X167886615Y-112369371D01*
X167905807Y-112150000D01*
X167886615Y-111930629D01*
X167829620Y-111717924D01*
X167786085Y-111624562D01*
X167738882Y-111523334D01*
X167738879Y-111523329D01*
X167736556Y-111518347D01*
X167705286Y-111473689D01*
X167613408Y-111342473D01*
X167613406Y-111342470D01*
X167610249Y-111337962D01*
X167454538Y-111182251D01*
X167274154Y-111055944D01*
X167269172Y-111053621D01*
X167269167Y-111053618D01*
X167141732Y-110994195D01*
X167088447Y-110947278D01*
X167068986Y-110879001D01*
X167089528Y-110811041D01*
X167141732Y-110765805D01*
X167269167Y-110706382D01*
X167269172Y-110706379D01*
X167274154Y-110704056D01*
X167454538Y-110577749D01*
X167610249Y-110422038D01*
X167622378Y-110404717D01*
X167733399Y-110246162D01*
X167733400Y-110246160D01*
X167736556Y-110241653D01*
X167738879Y-110236671D01*
X167738882Y-110236666D01*
X167827295Y-110047061D01*
X167829620Y-110042076D01*
X167886615Y-109829371D01*
X167905807Y-109610000D01*
X167886615Y-109390629D01*
X167829620Y-109177924D01*
X167786085Y-109084562D01*
X167738882Y-108983334D01*
X167738879Y-108983329D01*
X167736556Y-108978347D01*
X167733399Y-108973838D01*
X167613408Y-108802473D01*
X167613406Y-108802470D01*
X167610249Y-108797962D01*
X167454538Y-108642251D01*
X167444349Y-108635116D01*
X167375259Y-108586739D01*
X167274154Y-108515944D01*
X167074576Y-108422880D01*
X166861871Y-108365885D01*
X166642500Y-108346693D01*
X166423129Y-108365885D01*
X166210424Y-108422880D01*
X166117062Y-108466415D01*
X166015834Y-108513618D01*
X166015829Y-108513621D01*
X166010847Y-108515944D01*
X166006340Y-108519100D01*
X166006338Y-108519101D01*
X165834973Y-108639092D01*
X165834970Y-108639094D01*
X165830462Y-108642251D01*
X165674751Y-108797962D01*
X165671594Y-108802470D01*
X165671592Y-108802473D01*
X165551601Y-108973838D01*
X165548444Y-108978347D01*
X165546121Y-108983329D01*
X165546118Y-108983334D01*
X165498915Y-109084562D01*
X165455380Y-109177924D01*
X165398385Y-109390629D01*
X165379193Y-109610000D01*
X165398385Y-109829371D01*
X165455380Y-110042076D01*
X165457705Y-110047061D01*
X165546118Y-110236666D01*
X165546121Y-110236671D01*
X165548444Y-110241653D01*
X165551600Y-110246160D01*
X165551601Y-110246162D01*
X165662623Y-110404717D01*
X165674751Y-110422038D01*
X165830462Y-110577749D01*
X166010846Y-110704056D01*
X166015828Y-110706379D01*
X166015833Y-110706382D01*
X166143268Y-110765805D01*
X166196553Y-110812722D01*
X166216014Y-110880999D01*
X166195472Y-110948959D01*
X166143268Y-110994195D01*
X166015834Y-111053618D01*
X166015829Y-111053621D01*
X166010847Y-111055944D01*
X166006340Y-111059100D01*
X166006338Y-111059101D01*
X165834973Y-111179092D01*
X165834970Y-111179094D01*
X165830462Y-111182251D01*
X165674751Y-111337962D01*
X165671594Y-111342470D01*
X165671592Y-111342473D01*
X165579714Y-111473689D01*
X165548444Y-111518347D01*
X165546121Y-111523329D01*
X165546118Y-111523334D01*
X165498915Y-111624562D01*
X165455380Y-111717924D01*
X165398385Y-111930629D01*
X165379193Y-112150000D01*
X165398385Y-112369371D01*
X165455380Y-112582076D01*
X165457705Y-112587061D01*
X165546118Y-112776666D01*
X165546121Y-112776671D01*
X165548444Y-112781653D01*
X165551600Y-112786160D01*
X165551601Y-112786162D01*
X165580301Y-112827149D01*
X165674751Y-112962038D01*
X165830462Y-113117749D01*
X166010846Y-113244056D01*
X166015828Y-113246379D01*
X166015833Y-113246382D01*
X166143268Y-113305805D01*
X166196553Y-113352722D01*
X166216014Y-113420999D01*
X166195472Y-113488959D01*
X166143268Y-113534195D01*
X166015834Y-113593618D01*
X166015829Y-113593621D01*
X166010847Y-113595944D01*
X166006340Y-113599100D01*
X166006338Y-113599101D01*
X165834973Y-113719092D01*
X165834970Y-113719094D01*
X165830462Y-113722251D01*
X165674751Y-113877962D01*
X165548444Y-114058347D01*
X165546121Y-114063329D01*
X165546118Y-114063334D01*
X165498915Y-114164562D01*
X165455380Y-114257924D01*
X165398385Y-114470629D01*
X165379193Y-114690000D01*
X165398385Y-114909371D01*
X165455380Y-115122076D01*
X165457705Y-115127061D01*
X165546118Y-115316666D01*
X165546121Y-115316671D01*
X165548444Y-115321653D01*
X165674751Y-115502038D01*
X165830462Y-115657749D01*
X166010846Y-115784056D01*
X166015828Y-115786379D01*
X166015833Y-115786382D01*
X166143268Y-115845805D01*
X166196553Y-115892722D01*
X166216014Y-115960999D01*
X166195472Y-116028959D01*
X166143268Y-116074195D01*
X166015834Y-116133618D01*
X166015829Y-116133621D01*
X166010847Y-116135944D01*
X166006340Y-116139100D01*
X166006338Y-116139101D01*
X165834973Y-116259092D01*
X165834970Y-116259094D01*
X165830462Y-116262251D01*
X165674751Y-116417962D01*
X165548444Y-116598347D01*
X165546121Y-116603329D01*
X165546118Y-116603334D01*
X165498915Y-116704562D01*
X165455380Y-116797924D01*
X165398385Y-117010629D01*
X165379193Y-117230000D01*
X165398385Y-117449371D01*
X165455380Y-117662076D01*
X165457705Y-117667061D01*
X165546118Y-117856666D01*
X165546121Y-117856671D01*
X165548444Y-117861653D01*
X165674751Y-118042038D01*
X165830462Y-118197749D01*
X166010846Y-118324056D01*
X166015828Y-118326379D01*
X166015833Y-118326382D01*
X166143268Y-118385805D01*
X166196553Y-118432722D01*
X166216014Y-118500999D01*
X166195472Y-118568959D01*
X166143268Y-118614195D01*
X166015834Y-118673618D01*
X166015829Y-118673621D01*
X166010847Y-118675944D01*
X166006340Y-118679100D01*
X166006338Y-118679101D01*
X165834973Y-118799092D01*
X165834970Y-118799094D01*
X165830462Y-118802251D01*
X165674751Y-118957962D01*
X165548444Y-119138347D01*
X165546121Y-119143329D01*
X165546118Y-119143334D01*
X165498915Y-119244562D01*
X165455380Y-119337924D01*
X165398385Y-119550629D01*
X165379193Y-119770000D01*
X165398385Y-119989371D01*
X165455380Y-120202076D01*
X165457705Y-120207061D01*
X165546118Y-120396666D01*
X165546121Y-120396671D01*
X165548444Y-120401653D01*
X165674751Y-120582038D01*
X165830462Y-120737749D01*
X166010846Y-120864056D01*
X166015828Y-120866379D01*
X166015833Y-120866382D01*
X166143268Y-120925805D01*
X166196553Y-120972722D01*
X166216014Y-121040999D01*
X166195472Y-121108959D01*
X166143268Y-121154195D01*
X166015834Y-121213618D01*
X166015829Y-121213621D01*
X166010847Y-121215944D01*
X166006340Y-121219100D01*
X166006338Y-121219101D01*
X165834973Y-121339092D01*
X165834970Y-121339094D01*
X165830462Y-121342251D01*
X165674751Y-121497962D01*
X165671594Y-121502470D01*
X165671592Y-121502473D01*
X165551601Y-121673838D01*
X165548444Y-121678347D01*
X165546121Y-121683329D01*
X165546118Y-121683334D01*
X165498915Y-121784562D01*
X165455380Y-121877924D01*
X165398385Y-122090629D01*
X165379193Y-122310000D01*
X135670549Y-122310000D01*
X123295405Y-109934856D01*
X123261379Y-109872544D01*
X123258500Y-109845761D01*
X123258500Y-102552817D01*
X165130014Y-102552817D01*
X165130595Y-102557837D01*
X165130595Y-102557841D01*
X165146423Y-102694631D01*
X165157915Y-102793956D01*
X165159291Y-102798820D01*
X165159292Y-102798823D01*
X165204976Y-102960266D01*
X165224010Y-103027532D01*
X165226144Y-103032108D01*
X165226146Y-103032114D01*
X165282946Y-103153922D01*
X165326599Y-103247536D01*
X165463044Y-103448307D01*
X165629832Y-103624681D01*
X165633858Y-103627759D01*
X165633859Y-103627760D01*
X165818654Y-103769047D01*
X165818658Y-103769050D01*
X165822674Y-103772120D01*
X166036609Y-103886831D01*
X166266131Y-103965862D01*
X166365478Y-103983022D01*
X166501426Y-104006504D01*
X166501432Y-104006505D01*
X166505336Y-104007179D01*
X166509297Y-104007359D01*
X166509298Y-104007359D01*
X166533006Y-104008436D01*
X166533025Y-104008436D01*
X166534425Y-104008500D01*
X166703501Y-104008500D01*
X166706009Y-104008298D01*
X166706014Y-104008298D01*
X166879424Y-103994346D01*
X166879429Y-103994345D01*
X166884465Y-103993940D01*
X166889373Y-103992734D01*
X166889376Y-103992734D01*
X167115292Y-103937244D01*
X167120206Y-103936037D01*
X167124858Y-103934062D01*
X167124862Y-103934061D01*
X167338998Y-103843165D01*
X167343656Y-103841188D01*
X167449537Y-103774511D01*
X167544788Y-103714528D01*
X167544791Y-103714526D01*
X167549067Y-103711833D01*
X167647922Y-103624681D01*
X167727358Y-103554650D01*
X167727361Y-103554647D01*
X167731155Y-103551302D01*
X167885234Y-103363722D01*
X168007341Y-103153922D01*
X168094333Y-102927298D01*
X168095368Y-102922345D01*
X168142940Y-102694631D01*
X168142940Y-102694627D01*
X168143974Y-102689680D01*
X168154986Y-102447183D01*
X168142098Y-102335797D01*
X168127667Y-102211071D01*
X168127666Y-102211067D01*
X168127085Y-102206044D01*
X168088017Y-102067978D01*
X168062366Y-101977331D01*
X168060990Y-101972468D01*
X168058856Y-101967892D01*
X168058854Y-101967886D01*
X167960538Y-101757046D01*
X167960536Y-101757042D01*
X167958401Y-101752464D01*
X167821956Y-101551693D01*
X167655168Y-101375319D01*
X167651141Y-101372240D01*
X167466346Y-101230953D01*
X167466342Y-101230950D01*
X167462326Y-101227880D01*
X167437705Y-101214678D01*
X167252852Y-101115561D01*
X167248391Y-101113169D01*
X167018869Y-101034138D01*
X166910773Y-101015467D01*
X166783574Y-100993496D01*
X166783568Y-100993495D01*
X166779664Y-100992821D01*
X166775703Y-100992641D01*
X166775702Y-100992641D01*
X166751994Y-100991564D01*
X166751975Y-100991564D01*
X166750575Y-100991500D01*
X166581499Y-100991500D01*
X166578991Y-100991702D01*
X166578986Y-100991702D01*
X166405576Y-101005654D01*
X166405571Y-101005655D01*
X166400535Y-101006060D01*
X166395627Y-101007266D01*
X166395624Y-101007266D01*
X166279507Y-101035787D01*
X166164794Y-101063963D01*
X166160142Y-101065938D01*
X166160138Y-101065939D01*
X166088709Y-101096259D01*
X165941344Y-101158812D01*
X165926352Y-101168253D01*
X165740212Y-101285472D01*
X165740209Y-101285474D01*
X165735933Y-101288167D01*
X165732139Y-101291512D01*
X165557642Y-101445350D01*
X165557639Y-101445353D01*
X165553845Y-101448698D01*
X165399766Y-101636278D01*
X165277659Y-101846078D01*
X165275846Y-101850801D01*
X165199587Y-102049465D01*
X165190667Y-102072702D01*
X165141026Y-102310320D01*
X165130014Y-102552817D01*
X123258500Y-102552817D01*
X123258500Y-98873783D01*
X123278502Y-98805662D01*
X123332158Y-98759169D01*
X123402432Y-98749065D01*
X123467012Y-98778559D01*
X123504333Y-98834848D01*
X123510339Y-98853331D01*
X123512938Y-98861331D01*
X123605798Y-99022169D01*
X123610216Y-99027076D01*
X123610217Y-99027077D01*
X123725501Y-99155113D01*
X123730068Y-99160185D01*
X123735410Y-99164066D01*
X123735412Y-99164068D01*
X123874976Y-99265467D01*
X123880318Y-99269348D01*
X123886346Y-99272032D01*
X123886348Y-99272033D01*
X124038589Y-99339815D01*
X124049981Y-99344887D01*
X124124141Y-99360650D01*
X124225185Y-99382128D01*
X124225189Y-99382128D01*
X124231642Y-99383500D01*
X124417362Y-99383500D01*
X124423815Y-99382128D01*
X124423819Y-99382128D01*
X124524863Y-99360650D01*
X124599023Y-99344887D01*
X124610415Y-99339815D01*
X124762656Y-99272033D01*
X124762658Y-99272032D01*
X124768686Y-99269348D01*
X124774028Y-99265467D01*
X124913592Y-99164068D01*
X124913594Y-99164066D01*
X124918936Y-99160185D01*
X124923503Y-99155113D01*
X125038787Y-99027077D01*
X125038788Y-99027076D01*
X125043206Y-99022169D01*
X125136066Y-98861331D01*
X125172543Y-98749065D01*
X125191416Y-98690981D01*
X125191416Y-98690980D01*
X125193456Y-98684702D01*
X125212869Y-98500000D01*
X125203698Y-98412740D01*
X125194146Y-98321862D01*
X125194146Y-98321861D01*
X125193456Y-98315298D01*
X125171777Y-98248575D01*
X125153162Y-98191284D01*
X125136066Y-98138669D01*
X125112700Y-98098197D01*
X125046507Y-97983549D01*
X125043206Y-97977831D01*
X125028430Y-97961420D01*
X124992733Y-97921775D01*
X124965366Y-97891381D01*
X124934649Y-97827374D01*
X124933002Y-97807071D01*
X124933002Y-96872638D01*
X124934080Y-96856192D01*
X124936760Y-96835839D01*
X124938252Y-96824502D01*
X124933002Y-96784622D01*
X124933002Y-96784617D01*
X124917340Y-96665652D01*
X124917340Y-96665651D01*
X124856026Y-96517626D01*
X124782980Y-96422431D01*
X124782976Y-96422427D01*
X124776562Y-96414068D01*
X124763518Y-96397068D01*
X124763515Y-96397065D01*
X124758489Y-96390515D01*
X124751934Y-96385485D01*
X124733123Y-96371050D01*
X124720732Y-96360183D01*
X123120405Y-94759856D01*
X123086379Y-94697544D01*
X123083500Y-94670761D01*
X123083500Y-94250000D01*
X154611633Y-94250000D01*
X154612323Y-94256565D01*
X154626291Y-94389457D01*
X154631046Y-94434702D01*
X154633086Y-94440980D01*
X154633086Y-94440981D01*
X154659748Y-94523039D01*
X154688436Y-94611331D01*
X154781296Y-94772169D01*
X154785714Y-94777076D01*
X154785715Y-94777077D01*
X154879336Y-94881054D01*
X154905566Y-94910185D01*
X154910908Y-94914066D01*
X154910910Y-94914068D01*
X155047183Y-95013076D01*
X155055816Y-95019348D01*
X155061844Y-95022032D01*
X155061846Y-95022033D01*
X155170743Y-95070517D01*
X155225479Y-95094887D01*
X155316309Y-95114193D01*
X155400683Y-95132128D01*
X155400687Y-95132128D01*
X155407140Y-95133500D01*
X155470761Y-95133500D01*
X155538882Y-95153502D01*
X155559856Y-95170405D01*
X157035685Y-96646234D01*
X157046552Y-96658625D01*
X157066013Y-96683987D01*
X157072563Y-96689013D01*
X157097925Y-96708474D01*
X157097928Y-96708477D01*
X157173481Y-96766451D01*
X157193124Y-96781524D01*
X157341149Y-96842838D01*
X157349334Y-96843916D01*
X157349336Y-96843916D01*
X157356714Y-96844887D01*
X157460115Y-96858500D01*
X157460116Y-96858500D01*
X157460126Y-96858501D01*
X157491811Y-96862672D01*
X157500000Y-96863750D01*
X157531693Y-96859578D01*
X157548136Y-96858500D01*
X166802930Y-96858500D01*
X166871051Y-96878502D01*
X166896566Y-96900190D01*
X166905566Y-96910185D01*
X166910908Y-96914066D01*
X166910910Y-96914068D01*
X166969138Y-96956373D01*
X167055816Y-97019348D01*
X167061844Y-97022032D01*
X167061846Y-97022033D01*
X167219448Y-97092202D01*
X167225479Y-97094887D01*
X167316309Y-97114193D01*
X167400683Y-97132128D01*
X167400687Y-97132128D01*
X167407140Y-97133500D01*
X167592860Y-97133500D01*
X167599313Y-97132128D01*
X167599317Y-97132128D01*
X167683691Y-97114193D01*
X167774521Y-97094887D01*
X167780552Y-97092202D01*
X167938154Y-97022033D01*
X167938156Y-97022032D01*
X167944184Y-97019348D01*
X168030862Y-96956373D01*
X168089090Y-96914068D01*
X168089092Y-96914066D01*
X168094434Y-96910185D01*
X168098856Y-96905274D01*
X168214285Y-96777077D01*
X168214286Y-96777076D01*
X168218704Y-96772169D01*
X168284259Y-96658625D01*
X168308260Y-96617054D01*
X168308261Y-96617053D01*
X168311564Y-96611331D01*
X168341451Y-96519348D01*
X168366914Y-96440981D01*
X168366914Y-96440980D01*
X168368954Y-96434702D01*
X168371367Y-96411749D01*
X168387677Y-96256565D01*
X168388367Y-96250000D01*
X168368954Y-96065298D01*
X168347738Y-96000000D01*
X168313606Y-95894954D01*
X168311564Y-95888669D01*
X168218704Y-95727831D01*
X168122962Y-95621498D01*
X168098856Y-95594726D01*
X168098855Y-95594725D01*
X168094434Y-95589815D01*
X168060690Y-95565298D01*
X167949526Y-95484533D01*
X167949525Y-95484532D01*
X167944184Y-95480652D01*
X167938156Y-95477968D01*
X167938154Y-95477967D01*
X167780552Y-95407798D01*
X167780551Y-95407798D01*
X167774521Y-95405113D01*
X167683691Y-95385807D01*
X167599317Y-95367872D01*
X167599313Y-95367872D01*
X167592860Y-95366500D01*
X167407140Y-95366500D01*
X167400687Y-95367872D01*
X167400683Y-95367872D01*
X167316309Y-95385807D01*
X167225479Y-95405113D01*
X167219450Y-95407797D01*
X167219448Y-95407798D01*
X167061847Y-95477967D01*
X167061845Y-95477968D01*
X167055817Y-95480652D01*
X167050476Y-95484532D01*
X167050475Y-95484533D01*
X166910910Y-95585932D01*
X166910908Y-95585934D01*
X166905566Y-95589815D01*
X166896568Y-95599809D01*
X166836124Y-95637049D01*
X166802930Y-95641500D01*
X157804239Y-95641500D01*
X157736118Y-95621498D01*
X157715144Y-95604595D01*
X156423185Y-94312636D01*
X156389159Y-94250324D01*
X156386970Y-94236711D01*
X156383308Y-94201864D01*
X156368954Y-94065298D01*
X156311564Y-93888669D01*
X156305387Y-93877969D01*
X156222005Y-93733549D01*
X156218704Y-93727831D01*
X156153374Y-93655274D01*
X156098856Y-93594726D01*
X156098855Y-93594725D01*
X156094434Y-93589815D01*
X156001328Y-93522169D01*
X155949526Y-93484533D01*
X155949525Y-93484532D01*
X155944184Y-93480652D01*
X155938156Y-93477968D01*
X155938154Y-93477967D01*
X155780552Y-93407798D01*
X155780551Y-93407798D01*
X155774521Y-93405113D01*
X155672839Y-93383500D01*
X155599317Y-93367872D01*
X155599313Y-93367872D01*
X155592860Y-93366500D01*
X155407140Y-93366500D01*
X155400687Y-93367872D01*
X155400683Y-93367872D01*
X155327161Y-93383500D01*
X155225479Y-93405113D01*
X155219450Y-93407797D01*
X155219448Y-93407798D01*
X155061847Y-93477967D01*
X155061845Y-93477968D01*
X155055817Y-93480652D01*
X155050476Y-93484532D01*
X155050475Y-93484533D01*
X154910910Y-93585932D01*
X154910908Y-93585934D01*
X154905566Y-93589815D01*
X154901145Y-93594725D01*
X154901144Y-93594726D01*
X154846627Y-93655274D01*
X154781296Y-93727831D01*
X154777995Y-93733549D01*
X154694614Y-93877969D01*
X154688436Y-93888669D01*
X154631046Y-94065298D01*
X154611633Y-94250000D01*
X123083500Y-94250000D01*
X123083500Y-90493281D01*
X123103502Y-90425160D01*
X123120404Y-90404186D01*
X123879184Y-89645405D01*
X123941497Y-89611380D01*
X123968280Y-89608500D01*
X124881954Y-89608500D01*
X124950075Y-89628502D01*
X124996568Y-89682158D01*
X125006672Y-89752432D01*
X124991074Y-89797498D01*
X124938436Y-89888669D01*
X124936394Y-89894954D01*
X124897746Y-90013902D01*
X124881046Y-90065298D01*
X124880356Y-90071861D01*
X124880356Y-90071862D01*
X124876208Y-90111331D01*
X124861633Y-90250000D01*
X124862323Y-90256565D01*
X124877792Y-90403738D01*
X124881046Y-90434702D01*
X124883086Y-90440980D01*
X124883086Y-90440981D01*
X124904478Y-90506820D01*
X124938436Y-90611331D01*
X124941739Y-90617053D01*
X124941740Y-90617054D01*
X124965158Y-90657615D01*
X125031296Y-90772169D01*
X125035714Y-90777076D01*
X125035715Y-90777077D01*
X125049313Y-90792179D01*
X125153540Y-90907935D01*
X125155566Y-90910185D01*
X125155155Y-90910555D01*
X125190085Y-90967250D01*
X125188368Y-91039378D01*
X125169818Y-91096471D01*
X125131046Y-91215798D01*
X125111633Y-91400500D01*
X125131046Y-91585202D01*
X125133086Y-91591480D01*
X125133086Y-91591481D01*
X125153814Y-91655274D01*
X125188436Y-91761831D01*
X125191739Y-91767553D01*
X125191740Y-91767554D01*
X125196055Y-91775028D01*
X125281296Y-91922669D01*
X125285714Y-91927576D01*
X125285715Y-91927577D01*
X125375751Y-92027572D01*
X125405566Y-92060685D01*
X125410908Y-92064566D01*
X125410910Y-92064568D01*
X125548046Y-92164203D01*
X125555816Y-92169848D01*
X125561844Y-92172532D01*
X125561846Y-92172533D01*
X125711695Y-92239250D01*
X125725479Y-92245387D01*
X125797931Y-92260787D01*
X125900683Y-92282628D01*
X125900687Y-92282628D01*
X125907140Y-92284000D01*
X125970761Y-92284000D01*
X126038882Y-92304002D01*
X126059856Y-92320905D01*
X126635185Y-92896234D01*
X126646052Y-92908625D01*
X126665513Y-92933987D01*
X126672063Y-92939013D01*
X126697421Y-92958471D01*
X126697437Y-92958485D01*
X126746805Y-92996366D01*
X126792624Y-93031524D01*
X126940649Y-93092838D01*
X126948834Y-93093916D01*
X126948836Y-93093916D01*
X126956214Y-93094887D01*
X127059615Y-93108500D01*
X127059616Y-93108500D01*
X127059626Y-93108501D01*
X127091311Y-93112672D01*
X127099500Y-93113750D01*
X127131193Y-93109578D01*
X127147636Y-93108500D01*
X129052930Y-93108500D01*
X129121051Y-93128502D01*
X129146566Y-93150190D01*
X129155566Y-93160185D01*
X129160908Y-93164066D01*
X129160910Y-93164068D01*
X129277409Y-93248709D01*
X129305816Y-93269348D01*
X129311844Y-93272032D01*
X129311846Y-93272033D01*
X129463851Y-93339710D01*
X129475479Y-93344887D01*
X129566310Y-93364194D01*
X129650683Y-93382128D01*
X129650687Y-93382128D01*
X129657140Y-93383500D01*
X129842860Y-93383500D01*
X129849313Y-93382128D01*
X129849317Y-93382128D01*
X129933691Y-93364193D01*
X130024521Y-93344887D01*
X130036149Y-93339710D01*
X130188154Y-93272033D01*
X130188156Y-93272032D01*
X130194184Y-93269348D01*
X130222591Y-93248709D01*
X130339090Y-93164068D01*
X130339092Y-93164066D01*
X130344434Y-93160185D01*
X130353432Y-93150192D01*
X130464285Y-93027077D01*
X130464286Y-93027076D01*
X130468704Y-93022169D01*
X130535585Y-92906328D01*
X130558260Y-92867054D01*
X130558261Y-92867053D01*
X130561564Y-92861331D01*
X130592712Y-92765467D01*
X130616914Y-92690981D01*
X130616914Y-92690980D01*
X130618954Y-92684702D01*
X130622047Y-92655279D01*
X130637677Y-92506565D01*
X130638367Y-92500000D01*
X130632621Y-92445331D01*
X130619644Y-92321862D01*
X130619644Y-92321861D01*
X130618954Y-92315298D01*
X130605891Y-92275093D01*
X130563605Y-92144950D01*
X130563604Y-92144948D01*
X130561564Y-92138669D01*
X130558261Y-92132949D01*
X130556395Y-92128757D01*
X130546960Y-92058390D01*
X130577065Y-91994093D01*
X130637154Y-91956279D01*
X130708147Y-91956954D01*
X130745562Y-91975571D01*
X130788222Y-92006565D01*
X130805816Y-92019348D01*
X130811844Y-92022032D01*
X130811846Y-92022033D01*
X130969448Y-92092202D01*
X130975479Y-92094887D01*
X131066310Y-92114194D01*
X131150683Y-92132128D01*
X131150687Y-92132128D01*
X131157140Y-92133500D01*
X131342860Y-92133500D01*
X131349313Y-92132128D01*
X131349317Y-92132128D01*
X131433690Y-92114194D01*
X131524521Y-92094887D01*
X131532167Y-92091483D01*
X131590590Y-92065471D01*
X131660957Y-92056037D01*
X131725254Y-92086143D01*
X131730934Y-92091483D01*
X132576815Y-92937364D01*
X132610841Y-92999676D01*
X132613029Y-93013284D01*
X132631046Y-93184702D01*
X132688436Y-93361331D01*
X132781296Y-93522169D01*
X132785714Y-93527076D01*
X132785715Y-93527077D01*
X132861774Y-93611549D01*
X132905566Y-93660185D01*
X132910908Y-93664066D01*
X132910910Y-93664068D01*
X133006543Y-93733549D01*
X133055816Y-93769348D01*
X133061844Y-93772032D01*
X133061846Y-93772033D01*
X133219448Y-93842202D01*
X133225479Y-93844887D01*
X133316309Y-93864193D01*
X133400683Y-93882128D01*
X133400687Y-93882128D01*
X133407140Y-93883500D01*
X133592860Y-93883500D01*
X133599313Y-93882128D01*
X133599317Y-93882128D01*
X133683690Y-93864194D01*
X133774521Y-93844887D01*
X133780552Y-93842202D01*
X133938154Y-93772033D01*
X133938156Y-93772032D01*
X133944184Y-93769348D01*
X133993457Y-93733549D01*
X134089090Y-93664068D01*
X134089092Y-93664066D01*
X134094434Y-93660185D01*
X134138226Y-93611549D01*
X134214285Y-93527077D01*
X134214286Y-93527076D01*
X134218704Y-93522169D01*
X134311564Y-93361331D01*
X134368954Y-93184702D01*
X134375974Y-93117905D01*
X134402987Y-93052249D01*
X134438243Y-93021993D01*
X134444184Y-93019348D01*
X134449526Y-93015467D01*
X134589090Y-92914068D01*
X134589092Y-92914066D01*
X134594434Y-92910185D01*
X134655646Y-92842202D01*
X134714285Y-92777077D01*
X134714286Y-92777076D01*
X134718704Y-92772169D01*
X134796682Y-92637108D01*
X134804010Y-92624415D01*
X134855393Y-92575422D01*
X134925106Y-92561986D01*
X134971796Y-92575907D01*
X135046081Y-92614990D01*
X135046085Y-92614992D01*
X135050229Y-92617172D01*
X135296985Y-92703344D01*
X135301578Y-92704216D01*
X135549180Y-92751224D01*
X135549183Y-92751224D01*
X135553769Y-92752095D01*
X135684354Y-92757226D01*
X135810270Y-92762174D01*
X135810276Y-92762174D01*
X135814938Y-92762357D01*
X135905543Y-92752434D01*
X136070102Y-92734412D01*
X136070107Y-92734411D01*
X136074755Y-92733902D01*
X136187511Y-92704216D01*
X136322989Y-92668548D01*
X136322991Y-92668547D01*
X136327512Y-92667357D01*
X136335168Y-92664068D01*
X136464505Y-92608500D01*
X136567657Y-92564182D01*
X136789914Y-92426646D01*
X136793477Y-92423629D01*
X136793482Y-92423626D01*
X136985834Y-92260787D01*
X136985835Y-92260786D01*
X136989400Y-92257768D01*
X137024975Y-92217203D01*
X137158652Y-92064774D01*
X137158656Y-92064769D01*
X137161734Y-92061259D01*
X137187156Y-92021737D01*
X137275844Y-91883855D01*
X137303128Y-91841437D01*
X137410478Y-91603129D01*
X137447453Y-91472028D01*
X137480155Y-91356076D01*
X137480156Y-91356073D01*
X137481425Y-91351572D01*
X137494500Y-91248789D01*
X137514011Y-91095421D01*
X137514011Y-91095417D01*
X137514409Y-91092291D01*
X137514842Y-91075786D01*
X137516743Y-91003160D01*
X137516826Y-91000000D01*
X137514392Y-90967250D01*
X137497802Y-90744000D01*
X137497801Y-90743996D01*
X137497456Y-90739348D01*
X137495250Y-90729595D01*
X137440803Y-90488980D01*
X137439772Y-90484423D01*
X137437492Y-90478559D01*
X137346735Y-90245176D01*
X137346734Y-90245173D01*
X137345042Y-90240823D01*
X137340828Y-90233449D01*
X137264959Y-90100707D01*
X137215346Y-90013902D01*
X137053533Y-89808643D01*
X136863158Y-89629557D01*
X136648404Y-89480576D01*
X136632896Y-89472928D01*
X136451553Y-89383500D01*
X136432167Y-89373940D01*
X136379918Y-89325872D01*
X136361895Y-89260934D01*
X136361895Y-85976341D01*
X136381897Y-85908220D01*
X136435553Y-85861727D01*
X136505827Y-85851623D01*
X136514081Y-85853092D01*
X136576606Y-85866382D01*
X136650683Y-85882128D01*
X136650687Y-85882128D01*
X136657140Y-85883500D01*
X136720761Y-85883500D01*
X136788882Y-85903502D01*
X136809856Y-85920405D01*
X138887038Y-87997587D01*
X138917776Y-88047746D01*
X138927763Y-88078483D01*
X138938436Y-88111331D01*
X139031296Y-88272169D01*
X139035714Y-88277076D01*
X139035715Y-88277077D01*
X139143274Y-88396533D01*
X139155566Y-88410185D01*
X139160908Y-88414066D01*
X139160910Y-88414068D01*
X139300474Y-88515467D01*
X139305816Y-88519348D01*
X139311844Y-88522032D01*
X139311846Y-88522033D01*
X139464087Y-88589815D01*
X139475479Y-88594887D01*
X139566309Y-88614193D01*
X139650683Y-88632128D01*
X139650687Y-88632128D01*
X139657140Y-88633500D01*
X139842860Y-88633500D01*
X139849313Y-88632128D01*
X139849317Y-88632128D01*
X139933691Y-88614193D01*
X140024521Y-88594887D01*
X140035913Y-88589815D01*
X140188154Y-88522033D01*
X140188156Y-88522032D01*
X140194184Y-88519348D01*
X140199526Y-88515467D01*
X140339090Y-88414068D01*
X140339092Y-88414066D01*
X140344434Y-88410185D01*
X140356726Y-88396533D01*
X140464285Y-88277077D01*
X140464286Y-88277076D01*
X140468704Y-88272169D01*
X140561564Y-88111331D01*
X140597240Y-88001531D01*
X140616914Y-87940981D01*
X140616914Y-87940980D01*
X140618954Y-87934702D01*
X140638367Y-87750000D01*
X140618954Y-87565298D01*
X140597738Y-87500000D01*
X140576289Y-87433987D01*
X140561564Y-87388669D01*
X140555033Y-87377356D01*
X140514341Y-87306876D01*
X140468704Y-87227831D01*
X140450720Y-87207857D01*
X140348856Y-87094726D01*
X140348855Y-87094725D01*
X140344434Y-87089815D01*
X140319723Y-87071861D01*
X140199526Y-86984533D01*
X140199525Y-86984532D01*
X140194184Y-86980652D01*
X140188156Y-86977968D01*
X140188154Y-86977967D01*
X140030552Y-86907798D01*
X140030551Y-86907798D01*
X140024521Y-86905113D01*
X139933691Y-86885807D01*
X139849317Y-86867872D01*
X139849313Y-86867872D01*
X139842860Y-86866500D01*
X139657140Y-86866500D01*
X139650687Y-86867872D01*
X139650674Y-86867873D01*
X139575535Y-86883845D01*
X139504745Y-86878444D01*
X139460243Y-86849694D01*
X137673185Y-85062636D01*
X137639159Y-85000324D01*
X137636970Y-84986711D01*
X137636205Y-84979426D01*
X137632902Y-84948005D01*
X137645674Y-84878167D01*
X137694177Y-84826320D01*
X137763009Y-84808926D01*
X137830319Y-84831508D01*
X137851848Y-84850525D01*
X137877039Y-84878502D01*
X137905566Y-84910185D01*
X137910908Y-84914066D01*
X137910910Y-84914068D01*
X138037389Y-85005960D01*
X138055816Y-85019348D01*
X138061844Y-85022032D01*
X138061846Y-85022033D01*
X138203542Y-85085120D01*
X138225479Y-85094887D01*
X138316309Y-85114193D01*
X138400683Y-85132128D01*
X138400687Y-85132128D01*
X138407140Y-85133500D01*
X138592860Y-85133500D01*
X138599313Y-85132128D01*
X138599317Y-85132128D01*
X138683691Y-85114193D01*
X138774521Y-85094887D01*
X138796458Y-85085120D01*
X138938154Y-85022033D01*
X138938156Y-85022032D01*
X138944184Y-85019348D01*
X138962611Y-85005960D01*
X139089090Y-84914068D01*
X139089092Y-84914066D01*
X139094434Y-84910185D01*
X139103432Y-84900191D01*
X139163876Y-84862951D01*
X139197070Y-84858500D01*
X140802930Y-84858500D01*
X140871051Y-84878502D01*
X140896566Y-84900190D01*
X140905566Y-84910185D01*
X140910908Y-84914066D01*
X140910910Y-84914068D01*
X141037389Y-85005960D01*
X141055816Y-85019348D01*
X141061844Y-85022032D01*
X141061846Y-85022033D01*
X141203542Y-85085120D01*
X141225479Y-85094887D01*
X141316309Y-85114193D01*
X141400683Y-85132128D01*
X141400687Y-85132128D01*
X141407140Y-85133500D01*
X141592860Y-85133500D01*
X141599313Y-85132128D01*
X141599317Y-85132128D01*
X141683691Y-85114193D01*
X141774521Y-85094887D01*
X141796458Y-85085120D01*
X141938154Y-85022033D01*
X141938156Y-85022032D01*
X141944184Y-85019348D01*
X141962611Y-85005960D01*
X142089090Y-84914068D01*
X142089092Y-84914066D01*
X142094434Y-84910185D01*
X142103432Y-84900192D01*
X142214285Y-84777077D01*
X142214286Y-84777076D01*
X142218704Y-84772169D01*
X142311564Y-84611331D01*
X142368954Y-84434702D01*
X142388367Y-84250000D01*
X142368954Y-84065298D01*
X142366913Y-84059015D01*
X142365855Y-84054040D01*
X142371255Y-83983249D01*
X142414070Y-83926615D01*
X142480707Y-83902120D01*
X142550009Y-83917540D01*
X142578196Y-83938745D01*
X144637990Y-85998539D01*
X144672016Y-86060851D01*
X144674895Y-86087634D01*
X144674895Y-89241382D01*
X144654893Y-89309503D01*
X144601647Y-89355807D01*
X144418743Y-89440127D01*
X144386557Y-89461229D01*
X144201590Y-89582499D01*
X144201585Y-89582503D01*
X144197677Y-89585065D01*
X144168194Y-89611380D01*
X144025100Y-89739096D01*
X144000462Y-89761086D01*
X143949915Y-89821862D01*
X143861527Y-89928138D01*
X143831431Y-89964324D01*
X143694296Y-90190314D01*
X143692490Y-90194622D01*
X143692489Y-90194623D01*
X143603098Y-90407798D01*
X143592072Y-90434091D01*
X143590921Y-90438623D01*
X143590920Y-90438626D01*
X143580395Y-90480069D01*
X143527003Y-90690301D01*
X143500519Y-90953314D01*
X143500743Y-90957980D01*
X143500743Y-90957985D01*
X143505898Y-91065298D01*
X143513202Y-91217352D01*
X143538538Y-91344726D01*
X143562092Y-91463136D01*
X143564773Y-91476616D01*
X143566352Y-91481014D01*
X143566354Y-91481021D01*
X143630681Y-91660185D01*
X143654099Y-91725410D01*
X143656316Y-91729536D01*
X143770976Y-91942929D01*
X143779217Y-91958267D01*
X143782012Y-91962011D01*
X143782014Y-91962013D01*
X143934314Y-92165967D01*
X143937380Y-92170073D01*
X143940687Y-92173351D01*
X143940692Y-92173357D01*
X144089696Y-92321065D01*
X144125113Y-92356174D01*
X144128880Y-92358936D01*
X144128881Y-92358937D01*
X144181519Y-92397533D01*
X144338291Y-92512483D01*
X144342426Y-92514659D01*
X144342430Y-92514661D01*
X144436554Y-92564182D01*
X144572231Y-92635565D01*
X144821795Y-92722716D01*
X144826388Y-92723588D01*
X145076910Y-92771151D01*
X145076913Y-92771151D01*
X145081499Y-92772022D01*
X145210146Y-92777077D01*
X145340970Y-92782218D01*
X145340976Y-92782218D01*
X145345638Y-92782401D01*
X145608410Y-92753622D01*
X145612921Y-92752434D01*
X145612923Y-92752434D01*
X145859519Y-92687511D01*
X145859521Y-92687510D01*
X145864042Y-92686320D01*
X145883086Y-92678138D01*
X146102624Y-92583817D01*
X146102626Y-92583816D01*
X146106918Y-92581972D01*
X146258306Y-92488290D01*
X146327727Y-92445331D01*
X146327729Y-92445330D01*
X146331702Y-92442871D01*
X146428022Y-92361331D01*
X146529891Y-92275093D01*
X146529893Y-92275091D01*
X146533458Y-92272073D01*
X146707751Y-92073329D01*
X146712623Y-92065756D01*
X146837573Y-91871498D01*
X146850754Y-91851006D01*
X146959325Y-91609988D01*
X146964545Y-91591481D01*
X146996597Y-91477831D01*
X147031078Y-91355570D01*
X147051658Y-91193802D01*
X147064040Y-91096471D01*
X147064040Y-91096465D01*
X147064438Y-91093340D01*
X147065001Y-91071862D01*
X147066799Y-91003160D01*
X147066882Y-91000000D01*
X147064310Y-90965383D01*
X147047638Y-90741036D01*
X147047637Y-90741032D01*
X147047292Y-90736384D01*
X146988952Y-90478559D01*
X146987259Y-90474205D01*
X146894837Y-90236542D01*
X146894836Y-90236540D01*
X146893144Y-90232189D01*
X146874415Y-90199419D01*
X146814520Y-90094626D01*
X146761973Y-90002687D01*
X146598320Y-89795094D01*
X146425952Y-89632946D01*
X146409186Y-89617174D01*
X146405780Y-89613970D01*
X146383350Y-89598410D01*
X146192421Y-89465958D01*
X146192416Y-89465955D01*
X146188583Y-89463296D01*
X146176137Y-89457158D01*
X145962167Y-89351640D01*
X145909918Y-89303572D01*
X145891895Y-89238634D01*
X145891895Y-85831531D01*
X145892973Y-85815085D01*
X145896067Y-85791583D01*
X145897145Y-85783395D01*
X145891895Y-85743517D01*
X145891895Y-85743510D01*
X145876233Y-85624545D01*
X145814919Y-85476520D01*
X145749109Y-85390755D01*
X145741872Y-85381323D01*
X145741869Y-85381320D01*
X145717382Y-85349408D01*
X145705309Y-85340144D01*
X145692016Y-85329943D01*
X145679625Y-85319076D01*
X141464315Y-81103766D01*
X141453448Y-81091375D01*
X141439013Y-81072563D01*
X141433987Y-81066013D01*
X141402075Y-81041526D01*
X141402072Y-81041523D01*
X141306876Y-80968476D01*
X141158851Y-80907162D01*
X141150664Y-80906084D01*
X141150663Y-80906084D01*
X141139458Y-80904609D01*
X141108262Y-80900502D01*
X141039885Y-80891500D01*
X141039882Y-80891500D01*
X141039874Y-80891499D01*
X141008189Y-80887328D01*
X141000000Y-80886250D01*
X140968307Y-80890422D01*
X140951864Y-80891500D01*
X139273239Y-80891500D01*
X139205118Y-80871498D01*
X139158625Y-80817842D01*
X139148521Y-80747568D01*
X139178015Y-80682988D01*
X139184144Y-80676405D01*
X141190144Y-78670405D01*
X141252456Y-78636379D01*
X141279239Y-78633500D01*
X141342860Y-78633500D01*
X141349313Y-78632128D01*
X141349317Y-78632128D01*
X141433691Y-78614193D01*
X141524521Y-78594887D01*
X141535913Y-78589815D01*
X141688154Y-78522033D01*
X141688156Y-78522032D01*
X141694184Y-78519348D01*
X141742103Y-78484533D01*
X141839090Y-78414068D01*
X141839092Y-78414066D01*
X141844434Y-78410185D01*
X141968704Y-78272169D01*
X142033441Y-78160041D01*
X142058260Y-78117054D01*
X142058261Y-78117053D01*
X142061564Y-78111331D01*
X142095604Y-78006565D01*
X142116914Y-77940981D01*
X142116914Y-77940980D01*
X142118954Y-77934702D01*
X142138367Y-77750000D01*
X142126394Y-77636082D01*
X142119644Y-77571862D01*
X142119644Y-77571861D01*
X142118954Y-77565298D01*
X142061564Y-77388669D01*
X142053107Y-77374020D01*
X141972005Y-77233549D01*
X141968704Y-77227831D01*
X141844434Y-77089815D01*
X141793218Y-77052604D01*
X141699526Y-76984533D01*
X141699525Y-76984532D01*
X141694184Y-76980652D01*
X141688156Y-76977968D01*
X141688154Y-76977967D01*
X141530552Y-76907798D01*
X141530551Y-76907798D01*
X141524521Y-76905113D01*
X141433691Y-76885807D01*
X141349317Y-76867872D01*
X141349313Y-76867872D01*
X141342860Y-76866500D01*
X141157140Y-76866500D01*
X141150687Y-76867872D01*
X141150683Y-76867872D01*
X141066309Y-76885807D01*
X140975479Y-76905113D01*
X140969450Y-76907797D01*
X140969448Y-76907798D01*
X140811847Y-76977967D01*
X140811845Y-76977968D01*
X140805817Y-76980652D01*
X140800476Y-76984532D01*
X140800475Y-76984533D01*
X140660910Y-77085932D01*
X140660908Y-77085934D01*
X140655566Y-77089815D01*
X140531296Y-77227831D01*
X140527995Y-77233549D01*
X140446894Y-77374020D01*
X140438436Y-77388669D01*
X140381046Y-77565298D01*
X140366869Y-77700188D01*
X140363030Y-77736711D01*
X140336017Y-77802368D01*
X140326815Y-77812636D01*
X138823595Y-79315856D01*
X138761283Y-79349882D01*
X138690468Y-79344817D01*
X138633632Y-79302270D01*
X138608821Y-79235750D01*
X138608500Y-79226761D01*
X138608500Y-77692929D01*
X138628502Y-77624808D01*
X138640864Y-77608619D01*
X138714285Y-77527077D01*
X138714286Y-77527076D01*
X138718704Y-77522169D01*
X138811564Y-77361331D01*
X138854024Y-77230652D01*
X138866914Y-77190981D01*
X138866914Y-77190980D01*
X138868954Y-77184702D01*
X138870049Y-77174289D01*
X138887677Y-77006565D01*
X138888367Y-77000000D01*
X138868954Y-76815298D01*
X138854897Y-76772033D01*
X138813606Y-76644954D01*
X138811564Y-76638669D01*
X138718704Y-76477831D01*
X138645431Y-76396453D01*
X138598856Y-76344726D01*
X138598855Y-76344725D01*
X138594434Y-76339815D01*
X138567228Y-76320048D01*
X138449526Y-76234533D01*
X138449525Y-76234532D01*
X138444184Y-76230652D01*
X138438156Y-76227968D01*
X138438154Y-76227967D01*
X138280552Y-76157798D01*
X138280551Y-76157798D01*
X138274521Y-76155113D01*
X138183691Y-76135807D01*
X138099317Y-76117872D01*
X138099313Y-76117872D01*
X138092860Y-76116500D01*
X137907140Y-76116500D01*
X137900687Y-76117872D01*
X137900683Y-76117872D01*
X137816309Y-76135807D01*
X137725479Y-76155113D01*
X137719450Y-76157797D01*
X137719448Y-76157798D01*
X137561847Y-76227967D01*
X137561845Y-76227968D01*
X137555817Y-76230652D01*
X137550476Y-76234532D01*
X137550475Y-76234533D01*
X137410910Y-76335932D01*
X137410908Y-76335934D01*
X137405566Y-76339815D01*
X137401145Y-76344725D01*
X137401144Y-76344726D01*
X137354569Y-76396453D01*
X137281296Y-76477831D01*
X137188436Y-76638669D01*
X137186394Y-76644954D01*
X137145104Y-76772033D01*
X137131046Y-76815298D01*
X137111633Y-77000000D01*
X137112323Y-77006565D01*
X137117162Y-77052604D01*
X137104390Y-77122443D01*
X137055888Y-77174289D01*
X137043101Y-77180882D01*
X136937347Y-77227967D01*
X136937345Y-77227968D01*
X136931317Y-77230652D01*
X136925976Y-77234532D01*
X136925975Y-77234533D01*
X136786410Y-77335932D01*
X136786408Y-77335934D01*
X136781066Y-77339815D01*
X136656796Y-77477831D01*
X136563936Y-77638669D01*
X136561894Y-77644954D01*
X136527763Y-77750000D01*
X136506546Y-77815298D01*
X136505856Y-77821861D01*
X136505856Y-77821862D01*
X136497127Y-77904912D01*
X136487133Y-78000000D01*
X136487823Y-78006565D01*
X136504321Y-78163528D01*
X136506546Y-78184702D01*
X136508586Y-78190980D01*
X136508586Y-78190981D01*
X136527051Y-78247811D01*
X136563936Y-78361331D01*
X136567239Y-78367053D01*
X136567240Y-78367054D01*
X136590764Y-78407798D01*
X136656796Y-78522169D01*
X136661214Y-78527076D01*
X136661215Y-78527077D01*
X136734636Y-78608619D01*
X136765353Y-78672626D01*
X136767000Y-78692929D01*
X136767000Y-78936377D01*
X136746998Y-79004498D01*
X136730095Y-79025472D01*
X134978766Y-80776801D01*
X134966375Y-80787668D01*
X134941013Y-80807129D01*
X134916526Y-80839041D01*
X134916523Y-80839044D01*
X134916517Y-80839052D01*
X134876273Y-80891499D01*
X134843476Y-80934240D01*
X134789190Y-81065298D01*
X134782162Y-81082266D01*
X134781085Y-81090450D01*
X134781084Y-81090452D01*
X134768144Y-81188745D01*
X134766500Y-81201231D01*
X134766500Y-81201236D01*
X134761250Y-81241116D01*
X134765258Y-81271557D01*
X134765422Y-81272806D01*
X134766500Y-81289252D01*
X134766500Y-83326864D01*
X134765422Y-83343307D01*
X134761250Y-83375000D01*
X134766500Y-83414880D01*
X134766500Y-83414885D01*
X134776473Y-83490639D01*
X134782162Y-83533851D01*
X134843476Y-83681876D01*
X134848503Y-83688427D01*
X134848504Y-83688429D01*
X134916520Y-83777069D01*
X134916526Y-83777075D01*
X134941013Y-83808987D01*
X134947568Y-83814017D01*
X134966379Y-83828452D01*
X134978770Y-83839319D01*
X135107990Y-83968539D01*
X135142016Y-84030851D01*
X135144895Y-84057634D01*
X135144895Y-89263405D01*
X135124893Y-89331526D01*
X135071646Y-89377831D01*
X135048137Y-89388669D01*
X134898467Y-89457668D01*
X134859689Y-89483092D01*
X134683799Y-89598410D01*
X134683794Y-89598414D01*
X134679886Y-89600976D01*
X134484889Y-89775018D01*
X134317758Y-89975970D01*
X134315329Y-89979973D01*
X134187598Y-90190468D01*
X134182166Y-90199419D01*
X134081092Y-90440455D01*
X134016754Y-90693783D01*
X134016286Y-90698434D01*
X134016285Y-90698438D01*
X134008861Y-90772169D01*
X133990568Y-90953839D01*
X133990792Y-90958505D01*
X133990792Y-90958510D01*
X133991576Y-90974828D01*
X133995621Y-91059019D01*
X133996426Y-91075786D01*
X133979715Y-91144788D01*
X133928352Y-91193802D01*
X133858644Y-91207266D01*
X133792723Y-91180906D01*
X133781476Y-91170927D01*
X130464315Y-87853766D01*
X130453448Y-87841375D01*
X130439013Y-87822563D01*
X130433987Y-87816013D01*
X130402075Y-87791526D01*
X130402072Y-87791523D01*
X130306876Y-87718476D01*
X130191175Y-87670551D01*
X130179167Y-87665577D01*
X130133748Y-87633478D01*
X130098853Y-87594723D01*
X130094434Y-87589815D01*
X130060690Y-87565298D01*
X129949522Y-87484530D01*
X129949520Y-87484529D01*
X129944184Y-87480652D01*
X129939197Y-87478432D01*
X129890495Y-87427354D01*
X129877179Y-87356449D01*
X129887677Y-87256566D01*
X129887677Y-87256565D01*
X129888367Y-87250000D01*
X129883455Y-87203269D01*
X129869644Y-87071861D01*
X129869644Y-87071859D01*
X129868954Y-87065298D01*
X129866914Y-87059019D01*
X129865541Y-87052558D01*
X129867031Y-87052241D01*
X129863742Y-87016446D01*
X129862672Y-87016446D01*
X129862672Y-87008189D01*
X129863750Y-87000000D01*
X129859578Y-86968307D01*
X129858500Y-86951864D01*
X129858500Y-79942929D01*
X129878502Y-79874808D01*
X129890864Y-79858619D01*
X129964285Y-79777077D01*
X129964286Y-79777076D01*
X129968704Y-79772169D01*
X130061564Y-79611331D01*
X130097279Y-79501411D01*
X130116914Y-79440981D01*
X130116914Y-79440980D01*
X130118954Y-79434702D01*
X130138367Y-79250000D01*
X130118954Y-79065298D01*
X130061564Y-78888669D01*
X129968704Y-78727831D01*
X129916998Y-78670405D01*
X129848856Y-78594726D01*
X129848855Y-78594725D01*
X129844434Y-78589815D01*
X129751328Y-78522169D01*
X129699526Y-78484533D01*
X129699525Y-78484532D01*
X129694184Y-78480652D01*
X129688156Y-78477968D01*
X129688154Y-78477967D01*
X129530552Y-78407798D01*
X129530551Y-78407798D01*
X129524521Y-78405113D01*
X129433690Y-78385806D01*
X129349317Y-78367872D01*
X129349313Y-78367872D01*
X129342860Y-78366500D01*
X129157140Y-78366500D01*
X129150685Y-78367872D01*
X129150676Y-78367873D01*
X129135698Y-78371057D01*
X129064907Y-78365656D01*
X129008274Y-78322840D01*
X128983780Y-78256202D01*
X128983500Y-78247811D01*
X128983500Y-77179239D01*
X129003502Y-77111118D01*
X129020405Y-77090144D01*
X130440144Y-75670405D01*
X130502456Y-75636379D01*
X130529239Y-75633500D01*
X130592860Y-75633500D01*
X130599313Y-75632128D01*
X130599317Y-75632128D01*
X130683690Y-75614194D01*
X130774521Y-75594887D01*
X130780552Y-75592202D01*
X130938154Y-75522033D01*
X130938156Y-75522032D01*
X130944184Y-75519348D01*
X130953735Y-75512409D01*
X131089090Y-75414068D01*
X131089092Y-75414066D01*
X131094434Y-75410185D01*
X131098856Y-75405274D01*
X131214285Y-75277077D01*
X131214286Y-75277076D01*
X131218704Y-75272169D01*
X131311564Y-75111331D01*
X131368954Y-74934702D01*
X131370655Y-74918523D01*
X131387677Y-74756565D01*
X131388367Y-74750000D01*
X131379278Y-74663528D01*
X131369644Y-74571862D01*
X131369644Y-74571861D01*
X131368954Y-74565298D01*
X131363417Y-74548255D01*
X131313606Y-74394954D01*
X131311564Y-74388669D01*
X131218704Y-74227831D01*
X131094434Y-74089815D01*
X130944184Y-73980652D01*
X130938156Y-73977968D01*
X130938154Y-73977967D01*
X130780552Y-73907798D01*
X130780551Y-73907798D01*
X130774521Y-73905113D01*
X130683690Y-73885806D01*
X130599317Y-73867872D01*
X130599313Y-73867872D01*
X130592860Y-73866500D01*
X130407140Y-73866500D01*
X130400687Y-73867872D01*
X130400683Y-73867872D01*
X130316310Y-73885806D01*
X130225479Y-73905113D01*
X130219450Y-73907797D01*
X130219448Y-73907798D01*
X130061847Y-73977967D01*
X130061845Y-73977968D01*
X130055817Y-73980652D01*
X130050476Y-73984532D01*
X130050475Y-73984533D01*
X129910910Y-74085932D01*
X129910908Y-74085934D01*
X129905566Y-74089815D01*
X129781296Y-74227831D01*
X129688436Y-74388669D01*
X129686394Y-74394954D01*
X129636584Y-74548255D01*
X129631046Y-74565298D01*
X129617528Y-74693919D01*
X129613030Y-74736711D01*
X129586017Y-74802368D01*
X129576815Y-74812636D01*
X127978766Y-76410685D01*
X127966375Y-76421552D01*
X127941013Y-76441013D01*
X127916526Y-76472925D01*
X127916523Y-76472928D01*
X127843476Y-76568124D01*
X127782162Y-76716149D01*
X127781084Y-76724336D01*
X127781084Y-76724337D01*
X127779609Y-76735542D01*
X127769109Y-76815298D01*
X127766500Y-76835115D01*
X127766500Y-76835120D01*
X127761250Y-76875000D01*
X127762328Y-76883188D01*
X127765422Y-76906690D01*
X127766500Y-76923136D01*
X127766500Y-83247811D01*
X127746498Y-83315932D01*
X127692842Y-83362425D01*
X127622568Y-83372529D01*
X127614302Y-83371057D01*
X127599324Y-83367873D01*
X127599315Y-83367872D01*
X127592860Y-83366500D01*
X127407140Y-83366500D01*
X127400687Y-83367872D01*
X127400683Y-83367872D01*
X127328624Y-83383189D01*
X127225479Y-83405113D01*
X127219450Y-83407797D01*
X127219448Y-83407798D01*
X127061847Y-83477967D01*
X127061845Y-83477968D01*
X127055817Y-83480652D01*
X127050476Y-83484532D01*
X127050475Y-83484533D01*
X126910910Y-83585932D01*
X126910908Y-83585934D01*
X126905566Y-83589815D01*
X126901145Y-83594725D01*
X126901144Y-83594726D01*
X126794191Y-83713510D01*
X126781296Y-83727831D01*
X126688436Y-83888669D01*
X126631046Y-84065298D01*
X126619984Y-84170551D01*
X126613030Y-84236711D01*
X126586017Y-84302368D01*
X126576815Y-84312636D01*
X126228766Y-84660685D01*
X126216375Y-84671552D01*
X126191013Y-84691013D01*
X126166526Y-84722925D01*
X126166523Y-84722928D01*
X126093476Y-84818124D01*
X126032162Y-84966149D01*
X126032162Y-84966150D01*
X126030414Y-84979426D01*
X126027663Y-85000324D01*
X126016500Y-85085115D01*
X126016500Y-85085120D01*
X126011250Y-85125000D01*
X126014169Y-85147169D01*
X126015422Y-85156690D01*
X126016500Y-85173136D01*
X126016500Y-85401817D01*
X125996498Y-85469938D01*
X125942842Y-85516431D01*
X125874055Y-85526739D01*
X125825369Y-85520329D01*
X125796286Y-85516500D01*
X125796273Y-85516499D01*
X125764588Y-85512328D01*
X125756399Y-85511250D01*
X125724706Y-85515422D01*
X125708263Y-85516500D01*
X120789260Y-85516500D01*
X120772814Y-85515422D01*
X120749304Y-85512327D01*
X120741116Y-85511249D01*
X120582265Y-85532162D01*
X120434240Y-85593476D01*
X120404235Y-85616500D01*
X120339053Y-85666515D01*
X120339037Y-85666529D01*
X120313682Y-85685984D01*
X120313679Y-85685987D01*
X120307129Y-85691013D01*
X120302099Y-85697568D01*
X120287664Y-85716379D01*
X120276797Y-85728770D01*
X118103766Y-87901801D01*
X118091375Y-87912668D01*
X118066013Y-87932129D01*
X118041526Y-87964041D01*
X118041523Y-87964044D01*
X118034875Y-87972708D01*
X117973679Y-88052460D01*
X117968476Y-88059240D01*
X117937901Y-88133054D01*
X117910592Y-88198985D01*
X117907162Y-88207265D01*
X117906102Y-88215315D01*
X117904538Y-88227194D01*
X117900621Y-88256947D01*
X117871898Y-88321874D01*
X117812633Y-88360965D01*
X117775699Y-88366500D01*
X117657140Y-88366500D01*
X117650687Y-88367872D01*
X117650683Y-88367872D01*
X117566310Y-88385806D01*
X117475479Y-88405113D01*
X117469450Y-88407797D01*
X117469448Y-88407798D01*
X117311847Y-88477967D01*
X117311845Y-88477968D01*
X117305817Y-88480652D01*
X117300476Y-88484532D01*
X117300475Y-88484533D01*
X117160910Y-88585932D01*
X117160908Y-88585934D01*
X117155566Y-88589815D01*
X117151145Y-88594725D01*
X117151144Y-88594726D01*
X117040693Y-88717395D01*
X117031296Y-88727831D01*
X116938436Y-88888669D01*
X116936394Y-88894954D01*
X116902263Y-89000000D01*
X116881046Y-89065298D01*
X116861633Y-89250000D01*
X116881046Y-89434702D01*
X116938436Y-89611331D01*
X116995813Y-89710710D01*
X117012550Y-89779703D01*
X116989330Y-89846795D01*
X116933523Y-89890682D01*
X116912890Y-89896954D01*
X116881447Y-89903638D01*
X116881442Y-89903640D01*
X116874981Y-89905013D01*
X116868952Y-89907697D01*
X116868950Y-89907698D01*
X116711349Y-89977867D01*
X116711347Y-89977868D01*
X116705319Y-89980552D01*
X116699978Y-89984432D01*
X116699977Y-89984433D01*
X116560412Y-90085832D01*
X116560410Y-90085834D01*
X116555068Y-90089715D01*
X116550647Y-90094625D01*
X116550646Y-90094626D01*
X116460609Y-90194623D01*
X116430798Y-90227731D01*
X116405142Y-90272169D01*
X116350680Y-90366500D01*
X116337938Y-90388569D01*
X116335896Y-90394854D01*
X116282818Y-90558213D01*
X116280548Y-90565198D01*
X116279858Y-90571761D01*
X116279858Y-90571762D01*
X116271249Y-90653671D01*
X116244236Y-90719327D01*
X116186014Y-90759957D01*
X116145939Y-90766500D01*
X115304739Y-90766500D01*
X115236618Y-90746498D01*
X115215644Y-90729595D01*
X114953752Y-90467703D01*
X114919726Y-90405391D01*
X114924791Y-90334576D01*
X114949209Y-90294300D01*
X114973043Y-90267830D01*
X115065903Y-90106992D01*
X115107858Y-89977867D01*
X115121253Y-89936642D01*
X115121253Y-89936641D01*
X115123293Y-89930363D01*
X115126805Y-89896954D01*
X115142016Y-89752226D01*
X115142706Y-89745661D01*
X115136032Y-89682158D01*
X115123983Y-89567523D01*
X115123983Y-89567522D01*
X115123293Y-89560959D01*
X115112400Y-89527432D01*
X115079908Y-89427434D01*
X115065903Y-89384330D01*
X115054729Y-89364975D01*
X114976344Y-89229210D01*
X114973043Y-89223492D01*
X114907469Y-89150664D01*
X114853195Y-89090387D01*
X114853194Y-89090386D01*
X114848773Y-89085476D01*
X114821001Y-89065298D01*
X114703865Y-88980194D01*
X114703864Y-88980193D01*
X114698523Y-88976313D01*
X114692495Y-88973629D01*
X114692486Y-88973624D01*
X114683248Y-88969511D01*
X114629154Y-88923530D01*
X114608500Y-88854406D01*
X114608500Y-88817429D01*
X114628502Y-88749308D01*
X114640864Y-88733119D01*
X114714285Y-88651577D01*
X114714286Y-88651576D01*
X114718704Y-88646669D01*
X114811564Y-88485831D01*
X114868954Y-88309202D01*
X114871531Y-88284685D01*
X114878190Y-88221329D01*
X114905203Y-88155672D01*
X114963425Y-88115043D01*
X115003500Y-88108500D01*
X116451864Y-88108500D01*
X116468307Y-88109578D01*
X116500000Y-88113750D01*
X116508189Y-88112672D01*
X116539874Y-88108501D01*
X116539884Y-88108500D01*
X116539885Y-88108500D01*
X116643286Y-88094887D01*
X116650664Y-88093916D01*
X116650666Y-88093916D01*
X116658851Y-88092838D01*
X116806876Y-88031524D01*
X116816398Y-88024218D01*
X116902072Y-87958477D01*
X116902075Y-87958474D01*
X116927434Y-87939015D01*
X116933987Y-87933987D01*
X116950346Y-87912668D01*
X116953452Y-87908621D01*
X116964319Y-87896230D01*
X117396234Y-87464315D01*
X117408625Y-87453448D01*
X117427437Y-87439013D01*
X117433987Y-87433987D01*
X117458474Y-87402075D01*
X117458478Y-87402071D01*
X117531524Y-87306876D01*
X117592838Y-87158851D01*
X117596351Y-87132163D01*
X117608500Y-87039885D01*
X117608500Y-87039880D01*
X117613750Y-87000000D01*
X117609578Y-86968307D01*
X117608500Y-86951864D01*
X117608500Y-86192929D01*
X117628502Y-86124808D01*
X117640864Y-86108619D01*
X117714285Y-86027077D01*
X117714286Y-86027076D01*
X117718704Y-86022169D01*
X117811564Y-85861331D01*
X117854024Y-85730652D01*
X117866914Y-85690981D01*
X117866914Y-85690980D01*
X117868954Y-85684702D01*
X117888367Y-85500000D01*
X117878048Y-85401817D01*
X117869644Y-85321862D01*
X117869644Y-85321861D01*
X117868954Y-85315298D01*
X117811564Y-85138669D01*
X117802611Y-85123161D01*
X117742674Y-85019348D01*
X117718704Y-84977831D01*
X117708187Y-84966150D01*
X117598856Y-84844726D01*
X117598855Y-84844725D01*
X117594434Y-84839815D01*
X117585038Y-84832988D01*
X117449526Y-84734533D01*
X117449525Y-84734532D01*
X117444184Y-84730652D01*
X117438156Y-84727968D01*
X117438154Y-84727967D01*
X117280552Y-84657798D01*
X117280551Y-84657798D01*
X117274521Y-84655113D01*
X117170741Y-84633054D01*
X117099317Y-84617872D01*
X117099313Y-84617872D01*
X117092860Y-84616500D01*
X116907140Y-84616500D01*
X116900687Y-84617872D01*
X116900683Y-84617872D01*
X116829259Y-84633054D01*
X116725479Y-84655113D01*
X116719450Y-84657797D01*
X116719448Y-84657798D01*
X116561847Y-84727967D01*
X116561845Y-84727968D01*
X116555817Y-84730652D01*
X116550476Y-84734532D01*
X116550475Y-84734533D01*
X116410910Y-84835932D01*
X116410908Y-84835934D01*
X116405566Y-84839815D01*
X116401145Y-84844725D01*
X116401144Y-84844726D01*
X116291814Y-84966150D01*
X116281296Y-84977831D01*
X116257326Y-85019348D01*
X116197390Y-85123161D01*
X116188436Y-85138669D01*
X116131046Y-85315298D01*
X116130356Y-85321861D01*
X116130356Y-85321862D01*
X116121952Y-85401817D01*
X116111633Y-85500000D01*
X116131046Y-85684702D01*
X116133086Y-85690980D01*
X116133086Y-85690981D01*
X116145976Y-85730652D01*
X116188436Y-85861331D01*
X116281296Y-86022169D01*
X116285714Y-86027076D01*
X116285715Y-86027077D01*
X116359136Y-86108619D01*
X116389853Y-86172626D01*
X116391500Y-86192929D01*
X116391500Y-86695761D01*
X116371498Y-86763882D01*
X116354595Y-86784856D01*
X116284856Y-86854595D01*
X116222544Y-86888621D01*
X116195761Y-86891500D01*
X113298136Y-86891500D01*
X113281693Y-86890422D01*
X113250000Y-86886250D01*
X113241811Y-86887328D01*
X113210126Y-86891499D01*
X113210117Y-86891500D01*
X113210115Y-86891500D01*
X113210109Y-86891501D01*
X113210107Y-86891501D01*
X113110543Y-86904609D01*
X113099336Y-86906084D01*
X113099334Y-86906085D01*
X113091149Y-86907162D01*
X113033983Y-86930841D01*
X113003387Y-86943514D01*
X112932797Y-86951103D01*
X112869310Y-86919324D01*
X112833083Y-86858265D01*
X112835336Y-86788169D01*
X112866914Y-86690981D01*
X112866914Y-86690980D01*
X112868954Y-86684702D01*
X112888367Y-86500000D01*
X112883863Y-86457148D01*
X112869644Y-86321862D01*
X112869644Y-86321861D01*
X112868954Y-86315298D01*
X112811564Y-86138669D01*
X112718704Y-85977831D01*
X112707436Y-85965316D01*
X112598856Y-85844726D01*
X112598855Y-85844725D01*
X112594434Y-85839815D01*
X112583033Y-85831531D01*
X112449526Y-85734533D01*
X112449525Y-85734532D01*
X112444184Y-85730652D01*
X112438156Y-85727968D01*
X112438154Y-85727967D01*
X112280552Y-85657798D01*
X112280551Y-85657798D01*
X112274521Y-85655113D01*
X112169231Y-85632733D01*
X112099317Y-85617872D01*
X112099313Y-85617872D01*
X112092860Y-85616500D01*
X111907140Y-85616500D01*
X111900687Y-85617872D01*
X111900683Y-85617872D01*
X111830769Y-85632733D01*
X111725479Y-85655113D01*
X111719450Y-85657797D01*
X111719448Y-85657798D01*
X111561847Y-85727967D01*
X111561845Y-85727968D01*
X111555817Y-85730652D01*
X111550476Y-85734532D01*
X111550475Y-85734533D01*
X111410910Y-85835932D01*
X111410908Y-85835934D01*
X111405566Y-85839815D01*
X111396568Y-85849809D01*
X111336124Y-85887049D01*
X111302930Y-85891500D01*
X110048144Y-85891500D01*
X110031698Y-85890422D01*
X110008188Y-85887327D01*
X110000000Y-85886249D01*
X109920574Y-85896706D01*
X109868950Y-85903502D01*
X109841149Y-85907162D01*
X109693124Y-85968476D01*
X109673481Y-85983549D01*
X109597937Y-86041515D01*
X109597921Y-86041529D01*
X109572566Y-86060984D01*
X109572563Y-86060987D01*
X109566013Y-86066013D01*
X109560983Y-86072568D01*
X109546548Y-86091379D01*
X109535681Y-86103770D01*
X106784856Y-88854595D01*
X106722544Y-88888621D01*
X106695761Y-88891500D01*
X103697070Y-88891500D01*
X103628949Y-88871498D01*
X103603434Y-88849810D01*
X103594434Y-88839815D01*
X103586508Y-88834056D01*
X103449526Y-88734533D01*
X103449525Y-88734532D01*
X103444184Y-88730652D01*
X103438156Y-88727968D01*
X103438154Y-88727967D01*
X103280552Y-88657798D01*
X103280551Y-88657798D01*
X103274521Y-88655113D01*
X103172839Y-88633500D01*
X103099317Y-88617872D01*
X103099313Y-88617872D01*
X103092860Y-88616500D01*
X102984500Y-88616500D01*
X102916379Y-88596498D01*
X102869886Y-88542842D01*
X102858500Y-88490500D01*
X102858500Y-83192929D01*
X102878502Y-83124808D01*
X102890864Y-83108619D01*
X102964285Y-83027077D01*
X102964286Y-83027076D01*
X102968704Y-83022169D01*
X103061564Y-82861331D01*
X103096555Y-82753639D01*
X103097737Y-82750000D01*
X123611633Y-82750000D01*
X123631046Y-82934702D01*
X123633086Y-82940980D01*
X123633086Y-82940981D01*
X123652721Y-83001411D01*
X123688436Y-83111331D01*
X123691739Y-83117053D01*
X123691740Y-83117054D01*
X123716452Y-83159856D01*
X123781296Y-83272169D01*
X123785714Y-83277076D01*
X123785715Y-83277077D01*
X123852560Y-83351316D01*
X123905566Y-83410185D01*
X123910908Y-83414066D01*
X123910910Y-83414068D01*
X124007897Y-83484533D01*
X124055816Y-83519348D01*
X124061844Y-83522032D01*
X124061846Y-83522033D01*
X124214087Y-83589815D01*
X124225479Y-83594887D01*
X124316310Y-83614194D01*
X124400683Y-83632128D01*
X124400687Y-83632128D01*
X124407140Y-83633500D01*
X124592860Y-83633500D01*
X124599313Y-83632128D01*
X124599317Y-83632128D01*
X124683690Y-83614194D01*
X124774521Y-83594887D01*
X124785913Y-83589815D01*
X124938154Y-83522033D01*
X124938156Y-83522032D01*
X124944184Y-83519348D01*
X124992103Y-83484533D01*
X125089090Y-83414068D01*
X125089092Y-83414066D01*
X125094434Y-83410185D01*
X125147440Y-83351316D01*
X125214285Y-83277077D01*
X125214286Y-83277076D01*
X125218704Y-83272169D01*
X125283548Y-83159856D01*
X125308260Y-83117054D01*
X125308261Y-83117053D01*
X125311564Y-83111331D01*
X125347279Y-83001411D01*
X125366914Y-82940981D01*
X125366914Y-82940980D01*
X125368954Y-82934702D01*
X125388367Y-82750000D01*
X125368954Y-82565298D01*
X125347738Y-82500000D01*
X125313606Y-82394954D01*
X125311564Y-82388669D01*
X125218704Y-82227831D01*
X125140864Y-82141381D01*
X125110147Y-82077374D01*
X125108500Y-82057071D01*
X125108500Y-81942929D01*
X125128502Y-81874808D01*
X125140864Y-81858619D01*
X125214285Y-81777077D01*
X125214286Y-81777076D01*
X125218704Y-81772169D01*
X125292005Y-81645208D01*
X125308260Y-81617054D01*
X125308261Y-81617053D01*
X125311564Y-81611331D01*
X125345604Y-81506565D01*
X125366914Y-81440981D01*
X125366914Y-81440980D01*
X125368954Y-81434702D01*
X125388367Y-81250000D01*
X125376394Y-81136082D01*
X125369644Y-81071862D01*
X125369644Y-81071861D01*
X125368954Y-81065298D01*
X125311564Y-80888669D01*
X125303107Y-80874020D01*
X125222005Y-80733549D01*
X125218704Y-80727831D01*
X125094434Y-80589815D01*
X124944184Y-80480652D01*
X124938156Y-80477968D01*
X124938154Y-80477967D01*
X124780552Y-80407798D01*
X124780551Y-80407798D01*
X124774521Y-80405113D01*
X124683691Y-80385807D01*
X124599317Y-80367872D01*
X124599313Y-80367872D01*
X124592860Y-80366500D01*
X124407140Y-80366500D01*
X124400687Y-80367872D01*
X124400683Y-80367872D01*
X124316309Y-80385807D01*
X124225479Y-80405113D01*
X124219450Y-80407797D01*
X124219448Y-80407798D01*
X124061847Y-80477967D01*
X124061845Y-80477968D01*
X124055817Y-80480652D01*
X124050476Y-80484532D01*
X124050475Y-80484533D01*
X123910910Y-80585932D01*
X123910908Y-80585934D01*
X123905566Y-80589815D01*
X123781296Y-80727831D01*
X123777995Y-80733549D01*
X123696894Y-80874020D01*
X123688436Y-80888669D01*
X123631046Y-81065298D01*
X123630356Y-81071861D01*
X123630356Y-81071862D01*
X123623606Y-81136082D01*
X123611633Y-81250000D01*
X123631046Y-81434702D01*
X123633086Y-81440980D01*
X123633086Y-81440981D01*
X123654396Y-81506565D01*
X123688436Y-81611331D01*
X123691739Y-81617053D01*
X123691740Y-81617054D01*
X123707995Y-81645208D01*
X123781296Y-81772169D01*
X123785714Y-81777076D01*
X123785715Y-81777077D01*
X123859136Y-81858619D01*
X123889853Y-81922626D01*
X123891500Y-81942929D01*
X123891500Y-82057071D01*
X123871498Y-82125192D01*
X123859137Y-82141380D01*
X123781296Y-82227831D01*
X123688436Y-82388669D01*
X123686394Y-82394954D01*
X123652263Y-82500000D01*
X123631046Y-82565298D01*
X123611633Y-82750000D01*
X103097737Y-82750000D01*
X103116914Y-82690981D01*
X103116914Y-82690980D01*
X103118954Y-82684702D01*
X103138367Y-82500000D01*
X103118954Y-82315298D01*
X103104897Y-82272033D01*
X103063606Y-82144954D01*
X103061564Y-82138669D01*
X103042378Y-82105437D01*
X102997136Y-82027077D01*
X102968704Y-81977831D01*
X102844434Y-81839815D01*
X102753544Y-81773779D01*
X102699526Y-81734533D01*
X102699525Y-81734532D01*
X102694184Y-81730652D01*
X102688156Y-81727968D01*
X102688154Y-81727967D01*
X102530552Y-81657798D01*
X102530551Y-81657798D01*
X102524521Y-81655113D01*
X102433690Y-81635806D01*
X102349317Y-81617872D01*
X102349313Y-81617872D01*
X102342860Y-81616500D01*
X102157140Y-81616500D01*
X102150687Y-81617872D01*
X102150683Y-81617872D01*
X102066310Y-81635806D01*
X101975479Y-81655113D01*
X101969450Y-81657797D01*
X101969448Y-81657798D01*
X101811847Y-81727967D01*
X101811845Y-81727968D01*
X101805817Y-81730652D01*
X101800476Y-81734532D01*
X101800475Y-81734533D01*
X101660910Y-81835932D01*
X101660908Y-81835934D01*
X101655566Y-81839815D01*
X101531296Y-81977831D01*
X101502864Y-82027077D01*
X101457623Y-82105437D01*
X101438436Y-82138669D01*
X101436394Y-82144954D01*
X101395104Y-82272033D01*
X101381046Y-82315298D01*
X101361633Y-82500000D01*
X101381046Y-82684702D01*
X101383086Y-82690980D01*
X101383086Y-82690981D01*
X101403445Y-82753639D01*
X101438436Y-82861331D01*
X101531296Y-83022169D01*
X101535714Y-83027076D01*
X101535715Y-83027077D01*
X101609136Y-83108619D01*
X101639853Y-83172626D01*
X101641500Y-83192929D01*
X101641500Y-88726761D01*
X101621498Y-88794882D01*
X101567842Y-88841375D01*
X101497568Y-88851479D01*
X101432988Y-88821985D01*
X101426405Y-88815856D01*
X101395405Y-88784856D01*
X101361379Y-88722544D01*
X101358500Y-88695761D01*
X101358500Y-87548136D01*
X101359578Y-87531690D01*
X101362672Y-87508188D01*
X101363750Y-87500000D01*
X101362672Y-87491811D01*
X101362672Y-87483554D01*
X101363742Y-87483554D01*
X101367031Y-87447759D01*
X101365541Y-87447442D01*
X101366915Y-87440977D01*
X101368954Y-87434702D01*
X101369727Y-87427354D01*
X101387677Y-87256565D01*
X101388367Y-87250000D01*
X101383455Y-87203269D01*
X101369644Y-87071862D01*
X101369644Y-87071861D01*
X101368954Y-87065298D01*
X101347738Y-87000000D01*
X101313606Y-86894954D01*
X101311564Y-86888669D01*
X101299558Y-86867873D01*
X101239518Y-86763882D01*
X101218704Y-86727831D01*
X101194093Y-86700497D01*
X101098856Y-86594726D01*
X101098855Y-86594725D01*
X101094434Y-86589815D01*
X100979851Y-86506565D01*
X100949526Y-86484533D01*
X100949525Y-86484532D01*
X100944184Y-86480652D01*
X100938156Y-86477968D01*
X100938154Y-86477967D01*
X100780552Y-86407798D01*
X100780551Y-86407798D01*
X100774521Y-86405113D01*
X100683691Y-86385807D01*
X100599317Y-86367872D01*
X100599313Y-86367872D01*
X100592860Y-86366500D01*
X100407140Y-86366500D01*
X100400687Y-86367872D01*
X100400683Y-86367872D01*
X100316309Y-86385807D01*
X100225479Y-86405113D01*
X100219450Y-86407797D01*
X100219448Y-86407798D01*
X100061847Y-86477967D01*
X100061845Y-86477968D01*
X100055817Y-86480652D01*
X100050476Y-86484532D01*
X100050475Y-86484533D01*
X99910910Y-86585932D01*
X99910908Y-86585934D01*
X99905566Y-86589815D01*
X99901145Y-86594725D01*
X99901144Y-86594726D01*
X99805908Y-86700497D01*
X99781296Y-86727831D01*
X99760482Y-86763882D01*
X99700443Y-86867873D01*
X99688436Y-86888669D01*
X99686394Y-86894954D01*
X99652263Y-87000000D01*
X99631046Y-87065298D01*
X99630356Y-87071861D01*
X99630356Y-87071862D01*
X99616545Y-87203269D01*
X99611633Y-87250000D01*
X99631046Y-87434702D01*
X99633086Y-87440980D01*
X99633086Y-87440981D01*
X99654923Y-87508188D01*
X99688436Y-87611331D01*
X99691739Y-87617053D01*
X99691740Y-87617054D01*
X99714571Y-87656598D01*
X99781296Y-87772169D01*
X99905566Y-87910185D01*
X99910908Y-87914066D01*
X99910910Y-87914068D01*
X100031293Y-88001531D01*
X100055816Y-88019348D01*
X100061852Y-88022035D01*
X100061853Y-88022036D01*
X100066752Y-88024218D01*
X100120846Y-88070199D01*
X100141500Y-88139323D01*
X100141500Y-88951864D01*
X100140422Y-88968307D01*
X100136250Y-89000000D01*
X100141500Y-89039880D01*
X100141500Y-89039885D01*
X100151587Y-89116500D01*
X100157162Y-89158851D01*
X100218476Y-89306876D01*
X100223503Y-89313427D01*
X100223504Y-89313429D01*
X100291520Y-89402069D01*
X100291526Y-89402075D01*
X100316013Y-89433987D01*
X100322568Y-89439017D01*
X100341379Y-89453452D01*
X100353770Y-89464319D01*
X101074536Y-90185085D01*
X101108562Y-90247397D01*
X101103497Y-90318212D01*
X101060950Y-90375048D01*
X101011638Y-90397426D01*
X100981945Y-90403738D01*
X100981940Y-90403740D01*
X100975479Y-90405113D01*
X100969450Y-90407797D01*
X100969448Y-90407798D01*
X100811847Y-90477967D01*
X100811845Y-90477968D01*
X100805817Y-90480652D01*
X100800476Y-90484532D01*
X100800475Y-90484533D01*
X100660910Y-90585932D01*
X100660908Y-90585934D01*
X100655566Y-90589815D01*
X100651145Y-90594725D01*
X100651144Y-90594726D01*
X100548984Y-90708187D01*
X100531296Y-90727831D01*
X100500822Y-90780613D01*
X100444405Y-90878331D01*
X100438436Y-90888669D01*
X100433040Y-90905276D01*
X100392480Y-91030109D01*
X100381046Y-91065298D01*
X100380356Y-91071861D01*
X100380356Y-91071862D01*
X100377767Y-91096498D01*
X100361633Y-91250000D01*
X100381046Y-91434702D01*
X100438436Y-91611331D01*
X100441739Y-91617053D01*
X100441740Y-91617054D01*
X100472058Y-91669566D01*
X100531296Y-91772169D01*
X100535714Y-91777076D01*
X100535715Y-91777077D01*
X100576040Y-91821862D01*
X100604358Y-91853312D01*
X100609136Y-91858619D01*
X100639853Y-91922626D01*
X100641500Y-91942929D01*
X100641500Y-94201864D01*
X100640422Y-94218307D01*
X100636250Y-94250000D01*
X100641500Y-94289880D01*
X100641500Y-94289885D01*
X100654609Y-94389457D01*
X100657162Y-94408851D01*
X100718476Y-94556876D01*
X100723503Y-94563427D01*
X100723504Y-94563429D01*
X100791520Y-94652069D01*
X100791526Y-94652075D01*
X100816013Y-94683987D01*
X100822568Y-94689017D01*
X100841379Y-94703452D01*
X100853770Y-94714319D01*
X102408453Y-96269002D01*
X102442479Y-96331314D01*
X102445358Y-96358097D01*
X102445358Y-98621838D01*
X102444280Y-98638281D01*
X102440108Y-98669974D01*
X102441186Y-98678163D01*
X102445358Y-98709854D01*
X102445358Y-98709861D01*
X102447893Y-98729118D01*
X102436953Y-98799267D01*
X102408298Y-98837830D01*
X102405566Y-98839815D01*
X102396568Y-98849809D01*
X102336124Y-98887049D01*
X102302930Y-98891500D01*
X93548144Y-98891500D01*
X93531698Y-98890422D01*
X93508188Y-98887327D01*
X93500000Y-98886249D01*
X93341149Y-98907162D01*
X93193124Y-98968476D01*
X93151593Y-99000344D01*
X93097937Y-99041515D01*
X93097921Y-99041529D01*
X93072566Y-99060984D01*
X93072563Y-99060987D01*
X93066013Y-99066013D01*
X93060983Y-99072568D01*
X93046548Y-99091379D01*
X93035681Y-99103770D01*
X85603766Y-106535685D01*
X85591375Y-106546552D01*
X85566013Y-106566013D01*
X85541526Y-106597925D01*
X85541523Y-106597928D01*
X85468476Y-106693124D01*
X85425202Y-106797597D01*
X85407162Y-106841150D01*
X85391500Y-106960115D01*
X85391500Y-106960120D01*
X85386250Y-107000000D01*
X85387328Y-107008188D01*
X85390422Y-107031690D01*
X85391500Y-107048136D01*
X85391500Y-132307071D01*
X85371498Y-132375192D01*
X85359137Y-132391380D01*
X85281296Y-132477831D01*
X85188436Y-132638669D01*
X85186394Y-132644954D01*
X85135802Y-132800662D01*
X85131046Y-132815298D01*
X85130356Y-132821861D01*
X85130356Y-132821862D01*
X85115599Y-132962263D01*
X85111633Y-133000000D01*
X65508500Y-133000000D01*
X65508500Y-107260699D01*
X66541500Y-107260699D01*
X66556391Y-107449903D01*
X66615495Y-107696091D01*
X66617388Y-107700662D01*
X66617389Y-107700664D01*
X66694228Y-107886169D01*
X66712384Y-107930002D01*
X66844672Y-108145876D01*
X67009102Y-108338398D01*
X67201624Y-108502828D01*
X67417498Y-108635116D01*
X67422068Y-108637009D01*
X67422072Y-108637011D01*
X67646836Y-108730111D01*
X67651409Y-108732005D01*
X67694229Y-108742285D01*
X67892784Y-108789954D01*
X67892790Y-108789955D01*
X67897597Y-108791109D01*
X68150000Y-108810974D01*
X68402403Y-108791109D01*
X68407210Y-108789955D01*
X68407216Y-108789954D01*
X68605771Y-108742285D01*
X68648591Y-108732005D01*
X68653164Y-108730111D01*
X68877928Y-108637011D01*
X68877932Y-108637009D01*
X68882502Y-108635116D01*
X69098376Y-108502828D01*
X69290898Y-108338398D01*
X69293093Y-108335828D01*
X69355024Y-108302010D01*
X69395414Y-108299868D01*
X69448467Y-108305631D01*
X69448471Y-108305631D01*
X69451866Y-108306000D01*
X71048134Y-108306000D01*
X71110316Y-108299245D01*
X71246705Y-108248115D01*
X71363261Y-108160761D01*
X71387579Y-108128313D01*
X71444436Y-108085799D01*
X71515254Y-108080773D01*
X71558680Y-108099298D01*
X71636601Y-108151659D01*
X71636610Y-108151664D01*
X71641262Y-108154790D01*
X71846967Y-108245088D01*
X71852418Y-108246397D01*
X71852422Y-108246398D01*
X72059954Y-108296222D01*
X72065411Y-108297532D01*
X72143079Y-108302010D01*
X72284083Y-108310140D01*
X72284086Y-108310140D01*
X72289690Y-108310463D01*
X72512715Y-108283475D01*
X72727435Y-108217418D01*
X72732415Y-108214848D01*
X72732419Y-108214846D01*
X72922081Y-108116954D01*
X72922082Y-108116954D01*
X72927064Y-108114382D01*
X73105292Y-107977623D01*
X73109063Y-107973478D01*
X73109067Y-107973475D01*
X73156480Y-107921369D01*
X73217121Y-107884446D01*
X73288096Y-107886169D01*
X73337358Y-107915683D01*
X73454799Y-108029492D01*
X73641262Y-108154790D01*
X73846967Y-108245088D01*
X73852418Y-108246397D01*
X73852422Y-108246398D01*
X74059954Y-108296222D01*
X74065411Y-108297532D01*
X74143079Y-108302010D01*
X74284083Y-108310140D01*
X74284086Y-108310140D01*
X74289690Y-108310463D01*
X74512715Y-108283475D01*
X74727435Y-108217418D01*
X74732415Y-108214848D01*
X74732419Y-108214846D01*
X74901278Y-108127691D01*
X74970985Y-108114222D01*
X75036909Y-108140577D01*
X75054879Y-108157827D01*
X75205889Y-108334637D01*
X75205894Y-108334642D01*
X75209102Y-108338398D01*
X75401624Y-108502828D01*
X75617498Y-108635116D01*
X75622068Y-108637009D01*
X75622072Y-108637011D01*
X75846836Y-108730111D01*
X75851409Y-108732005D01*
X75894229Y-108742285D01*
X76092784Y-108789954D01*
X76092790Y-108789955D01*
X76097597Y-108791109D01*
X76350000Y-108810974D01*
X76602403Y-108791109D01*
X76607210Y-108789955D01*
X76607216Y-108789954D01*
X76805771Y-108742285D01*
X76848591Y-108732005D01*
X76853164Y-108730111D01*
X77077928Y-108637011D01*
X77077932Y-108637009D01*
X77082502Y-108635116D01*
X77298376Y-108502828D01*
X77490898Y-108338398D01*
X77655328Y-108145876D01*
X77787616Y-107930002D01*
X77805773Y-107886169D01*
X77882611Y-107700664D01*
X77882612Y-107700662D01*
X77884505Y-107696091D01*
X77943609Y-107449903D01*
X77958500Y-107260699D01*
X77958500Y-105834301D01*
X77943609Y-105645097D01*
X77884505Y-105398909D01*
X77882611Y-105394336D01*
X77789511Y-105169572D01*
X77789509Y-105169568D01*
X77787616Y-105164998D01*
X77655328Y-104949124D01*
X77490898Y-104756602D01*
X77298376Y-104592172D01*
X77082502Y-104459884D01*
X77077932Y-104457991D01*
X77077928Y-104457989D01*
X76853164Y-104364889D01*
X76853162Y-104364888D01*
X76848591Y-104362995D01*
X76763968Y-104342679D01*
X76607216Y-104305046D01*
X76607210Y-104305045D01*
X76602403Y-104303891D01*
X76350000Y-104284026D01*
X76097597Y-104303891D01*
X76092790Y-104305045D01*
X76092784Y-104305046D01*
X75936032Y-104342679D01*
X75851409Y-104362995D01*
X75846838Y-104364888D01*
X75846836Y-104364889D01*
X75622072Y-104457989D01*
X75622068Y-104457991D01*
X75617498Y-104459884D01*
X75401624Y-104592172D01*
X75209102Y-104756602D01*
X75205894Y-104760358D01*
X75054617Y-104937480D01*
X74995166Y-104976289D01*
X74924172Y-104976795D01*
X74888534Y-104960233D01*
X74858738Y-104940210D01*
X74653033Y-104849912D01*
X74647582Y-104848603D01*
X74647578Y-104848602D01*
X74440046Y-104798778D01*
X74440045Y-104798778D01*
X74434589Y-104797468D01*
X74350525Y-104792621D01*
X74215917Y-104784860D01*
X74215914Y-104784860D01*
X74210310Y-104784537D01*
X73987285Y-104811525D01*
X73772565Y-104877582D01*
X73767585Y-104880152D01*
X73767581Y-104880154D01*
X73625790Y-104953338D01*
X73572936Y-104980618D01*
X73394708Y-105117377D01*
X73390937Y-105121522D01*
X73390933Y-105121525D01*
X73343520Y-105173631D01*
X73282879Y-105210554D01*
X73211904Y-105208831D01*
X73162642Y-105179317D01*
X73045201Y-105065508D01*
X72858738Y-104940210D01*
X72653033Y-104849912D01*
X72647582Y-104848603D01*
X72647578Y-104848602D01*
X72440046Y-104798778D01*
X72440045Y-104798778D01*
X72434589Y-104797468D01*
X72350525Y-104792621D01*
X72215917Y-104784860D01*
X72215914Y-104784860D01*
X72210310Y-104784537D01*
X71987285Y-104811525D01*
X71772565Y-104877582D01*
X71767585Y-104880152D01*
X71767581Y-104880154D01*
X71625790Y-104953338D01*
X71572936Y-104980618D01*
X71568488Y-104984031D01*
X71568482Y-104984035D01*
X71562986Y-104988252D01*
X71496766Y-105013852D01*
X71427217Y-104999587D01*
X71385458Y-104963856D01*
X71368641Y-104941418D01*
X71363261Y-104934239D01*
X71246705Y-104846885D01*
X71110316Y-104795755D01*
X71048134Y-104789000D01*
X69451866Y-104789000D01*
X69448471Y-104789369D01*
X69448467Y-104789369D01*
X69395414Y-104795132D01*
X69325531Y-104782603D01*
X69293240Y-104759345D01*
X69290898Y-104756602D01*
X69098376Y-104592172D01*
X68882502Y-104459884D01*
X68877932Y-104457991D01*
X68877928Y-104457989D01*
X68653164Y-104364889D01*
X68653162Y-104364888D01*
X68648591Y-104362995D01*
X68563968Y-104342679D01*
X68407216Y-104305046D01*
X68407210Y-104305045D01*
X68402403Y-104303891D01*
X68150000Y-104284026D01*
X67897597Y-104303891D01*
X67892790Y-104305045D01*
X67892784Y-104305046D01*
X67736032Y-104342679D01*
X67651409Y-104362995D01*
X67646838Y-104364888D01*
X67646836Y-104364889D01*
X67422072Y-104457989D01*
X67422068Y-104457991D01*
X67417498Y-104459884D01*
X67201624Y-104592172D01*
X67009102Y-104756602D01*
X66844672Y-104949124D01*
X66712384Y-105164998D01*
X66710491Y-105169568D01*
X66710489Y-105169572D01*
X66617389Y-105394336D01*
X66615495Y-105398909D01*
X66556391Y-105645097D01*
X66541500Y-105834301D01*
X66541500Y-107260699D01*
X65508500Y-107260699D01*
X65508500Y-97250000D01*
X67186502Y-97250000D01*
X67206457Y-97478087D01*
X67207881Y-97483400D01*
X67207881Y-97483402D01*
X67245876Y-97625198D01*
X67265716Y-97699243D01*
X67268039Y-97704224D01*
X67268039Y-97704225D01*
X67360151Y-97901762D01*
X67360154Y-97901767D01*
X67362477Y-97906749D01*
X67493802Y-98094300D01*
X67655700Y-98256198D01*
X67660208Y-98259355D01*
X67660211Y-98259357D01*
X67731136Y-98309019D01*
X67843251Y-98387523D01*
X67848233Y-98389846D01*
X67848238Y-98389849D01*
X68045775Y-98481961D01*
X68050757Y-98484284D01*
X68056065Y-98485706D01*
X68056067Y-98485707D01*
X68266598Y-98542119D01*
X68266600Y-98542119D01*
X68271913Y-98543543D01*
X68371480Y-98552254D01*
X68440149Y-98558262D01*
X68440156Y-98558262D01*
X68442873Y-98558500D01*
X68557127Y-98558500D01*
X68559844Y-98558262D01*
X68559851Y-98558262D01*
X68628520Y-98552254D01*
X68728087Y-98543543D01*
X68733400Y-98542119D01*
X68733402Y-98542119D01*
X68943933Y-98485707D01*
X68943935Y-98485706D01*
X68949243Y-98484284D01*
X68954225Y-98481961D01*
X69151762Y-98389849D01*
X69151767Y-98389846D01*
X69156749Y-98387523D01*
X69268864Y-98309019D01*
X69339789Y-98259357D01*
X69339792Y-98259355D01*
X69344300Y-98256198D01*
X69384405Y-98216093D01*
X69446717Y-98182067D01*
X69517532Y-98187132D01*
X69574368Y-98229679D01*
X69586064Y-98248574D01*
X69637747Y-98351334D01*
X69640173Y-98354863D01*
X69640176Y-98354869D01*
X69679950Y-98412740D01*
X69804445Y-98593881D01*
X69807332Y-98597054D01*
X69807333Y-98597055D01*
X69815611Y-98606152D01*
X70002518Y-98811560D01*
X70005807Y-98814310D01*
X70225009Y-98997592D01*
X70225014Y-98997596D01*
X70228301Y-99000344D01*
X70332986Y-99066013D01*
X70473976Y-99154456D01*
X70473980Y-99154458D01*
X70477616Y-99156739D01*
X70550293Y-99189554D01*
X70695097Y-99254936D01*
X70748951Y-99301199D01*
X70769245Y-99369233D01*
X70749535Y-99437439D01*
X70696079Y-99484161D01*
X70635007Y-99495503D01*
X70500000Y-99486654D01*
X70495881Y-99486924D01*
X70208686Y-99505747D01*
X70208679Y-99505748D01*
X70204574Y-99506017D01*
X70200541Y-99506819D01*
X70200535Y-99506820D01*
X69918253Y-99562970D01*
X69918247Y-99562972D01*
X69914203Y-99563776D01*
X69910294Y-99565103D01*
X69910290Y-99565104D01*
X69653251Y-99652357D01*
X69633855Y-99658941D01*
X69549349Y-99700615D01*
X69372031Y-99788058D01*
X69372026Y-99788061D01*
X69368327Y-99789885D01*
X69309405Y-99829256D01*
X69125593Y-99952074D01*
X69125588Y-99952078D01*
X69122162Y-99954367D01*
X69119068Y-99957081D01*
X69119062Y-99957085D01*
X68943125Y-100111379D01*
X68899573Y-100149573D01*
X68896864Y-100152662D01*
X68707085Y-100369062D01*
X68707081Y-100369068D01*
X68704367Y-100372162D01*
X68702078Y-100375588D01*
X68702074Y-100375593D01*
X68579256Y-100559405D01*
X68539885Y-100618327D01*
X68408941Y-100883855D01*
X68407616Y-100887760D01*
X68407615Y-100887761D01*
X68316383Y-101156524D01*
X68313776Y-101164203D01*
X68312972Y-101168247D01*
X68312970Y-101168253D01*
X68257186Y-101448698D01*
X68256017Y-101454574D01*
X68255748Y-101458679D01*
X68255747Y-101458686D01*
X68243821Y-101640646D01*
X68236654Y-101750000D01*
X68236924Y-101754119D01*
X68250935Y-101967886D01*
X68256017Y-102045426D01*
X68256819Y-102049459D01*
X68256820Y-102049465D01*
X68286998Y-102201177D01*
X68313776Y-102335797D01*
X68315103Y-102339706D01*
X68315104Y-102339710D01*
X68407615Y-102612239D01*
X68408941Y-102616145D01*
X68539885Y-102881673D01*
X68704367Y-103127838D01*
X68707081Y-103130932D01*
X68707085Y-103130938D01*
X68813007Y-103251718D01*
X68899573Y-103350427D01*
X68902662Y-103353136D01*
X69119062Y-103542915D01*
X69119068Y-103542919D01*
X69122162Y-103545633D01*
X69125588Y-103547922D01*
X69125593Y-103547926D01*
X69234958Y-103621001D01*
X69368327Y-103710115D01*
X69372026Y-103711939D01*
X69372031Y-103711942D01*
X69487829Y-103769047D01*
X69633855Y-103841059D01*
X69637760Y-103842384D01*
X69637761Y-103842385D01*
X69910290Y-103934896D01*
X69910294Y-103934897D01*
X69914203Y-103936224D01*
X69918247Y-103937028D01*
X69918253Y-103937030D01*
X70200535Y-103993180D01*
X70200541Y-103993181D01*
X70204574Y-103993983D01*
X70208679Y-103994252D01*
X70208686Y-103994253D01*
X70495881Y-104013076D01*
X70500000Y-104013346D01*
X70504119Y-104013076D01*
X70791314Y-103994253D01*
X70791321Y-103994252D01*
X70795426Y-103993983D01*
X70799459Y-103993181D01*
X70799465Y-103993180D01*
X71081747Y-103937030D01*
X71081753Y-103937028D01*
X71085797Y-103936224D01*
X71089706Y-103934897D01*
X71089710Y-103934896D01*
X71362239Y-103842385D01*
X71362240Y-103842384D01*
X71366145Y-103841059D01*
X71512171Y-103769047D01*
X71627969Y-103711942D01*
X71627974Y-103711939D01*
X71631673Y-103710115D01*
X71765042Y-103621001D01*
X71874407Y-103547926D01*
X71874412Y-103547922D01*
X71877838Y-103545633D01*
X71880932Y-103542919D01*
X71880938Y-103542915D01*
X72097338Y-103353136D01*
X72100427Y-103350427D01*
X72186993Y-103251718D01*
X72292915Y-103130938D01*
X72292919Y-103130932D01*
X72295633Y-103127838D01*
X72460115Y-102881673D01*
X72591059Y-102616145D01*
X72592385Y-102612239D01*
X72684896Y-102339710D01*
X72684897Y-102339706D01*
X72686224Y-102335797D01*
X72713002Y-102201177D01*
X72743180Y-102049465D01*
X72743181Y-102049459D01*
X72743983Y-102045426D01*
X72749066Y-101967886D01*
X72763076Y-101754119D01*
X72763346Y-101750000D01*
X72756179Y-101640646D01*
X72744253Y-101458686D01*
X72744252Y-101458679D01*
X72743983Y-101454574D01*
X72742815Y-101448698D01*
X72687030Y-101168253D01*
X72687028Y-101168247D01*
X72686224Y-101164203D01*
X72683618Y-101156524D01*
X72592385Y-100887761D01*
X72592384Y-100887760D01*
X72591059Y-100883855D01*
X72460115Y-100618327D01*
X72420744Y-100559405D01*
X72297926Y-100375593D01*
X72297922Y-100375588D01*
X72295633Y-100372162D01*
X72292919Y-100369068D01*
X72292915Y-100369062D01*
X72103136Y-100152662D01*
X72100427Y-100149573D01*
X72056875Y-100111379D01*
X71880938Y-99957085D01*
X71880932Y-99957081D01*
X71877838Y-99954367D01*
X71874412Y-99952078D01*
X71874407Y-99952074D01*
X71690595Y-99829256D01*
X71631673Y-99789885D01*
X71627974Y-99788061D01*
X71627969Y-99788058D01*
X71450651Y-99700615D01*
X71366145Y-99658941D01*
X71346749Y-99652357D01*
X71288673Y-99611520D01*
X71261894Y-99545767D01*
X71274915Y-99475975D01*
X71323602Y-99424302D01*
X71389229Y-99407060D01*
X71608940Y-99410512D01*
X71608946Y-99410512D01*
X71613231Y-99410579D01*
X71905408Y-99375222D01*
X72190082Y-99300539D01*
X72195888Y-99298134D01*
X74991500Y-99298134D01*
X74998255Y-99360316D01*
X75049385Y-99496705D01*
X75136739Y-99613261D01*
X75253295Y-99700615D01*
X75389684Y-99751745D01*
X75451866Y-99758500D01*
X79548134Y-99758500D01*
X79610316Y-99751745D01*
X79746705Y-99700615D01*
X79863261Y-99613261D01*
X79950615Y-99496705D01*
X80001745Y-99360316D01*
X80008500Y-99298134D01*
X80008500Y-98084500D01*
X80028502Y-98016379D01*
X80082158Y-97969886D01*
X80134500Y-97958500D01*
X93971088Y-97958500D01*
X93979658Y-97958792D01*
X94029776Y-97962209D01*
X94029780Y-97962209D01*
X94037352Y-97962725D01*
X94044829Y-97961420D01*
X94044830Y-97961420D01*
X94071308Y-97956799D01*
X94100303Y-97951738D01*
X94106821Y-97950777D01*
X94170242Y-97943102D01*
X94177343Y-97940419D01*
X94179952Y-97939778D01*
X94196262Y-97935315D01*
X94198798Y-97934550D01*
X94206284Y-97933243D01*
X94264800Y-97907556D01*
X94270904Y-97905065D01*
X94279646Y-97901762D01*
X94298563Y-97894614D01*
X94323548Y-97885173D01*
X94323549Y-97885172D01*
X94330656Y-97882487D01*
X94336919Y-97878183D01*
X94339285Y-97876946D01*
X94354097Y-97868701D01*
X94356351Y-97867368D01*
X94363305Y-97864315D01*
X94414002Y-97825413D01*
X94419332Y-97821541D01*
X94465720Y-97789661D01*
X94465725Y-97789656D01*
X94471981Y-97785357D01*
X94513436Y-97738829D01*
X94518416Y-97733554D01*
X95348990Y-96902980D01*
X95411888Y-96868828D01*
X95455405Y-96859578D01*
X95524521Y-96844887D01*
X95536221Y-96839678D01*
X95688154Y-96772033D01*
X95688156Y-96772032D01*
X95694184Y-96769348D01*
X95804756Y-96689013D01*
X95839090Y-96664068D01*
X95839092Y-96664066D01*
X95844434Y-96660185D01*
X95968704Y-96522169D01*
X96035948Y-96405700D01*
X96058260Y-96367054D01*
X96058261Y-96367053D01*
X96061564Y-96361331D01*
X96096471Y-96253898D01*
X96116914Y-96190981D01*
X96116914Y-96190980D01*
X96118954Y-96184702D01*
X96138367Y-96000000D01*
X96118954Y-95815298D01*
X96097738Y-95750000D01*
X96063606Y-95644954D01*
X96061564Y-95638669D01*
X96036194Y-95594726D01*
X95975381Y-95489396D01*
X95958500Y-95426396D01*
X95958500Y-90323604D01*
X95975381Y-90260604D01*
X96058260Y-90117054D01*
X96058261Y-90117053D01*
X96061564Y-90111331D01*
X96091902Y-90017960D01*
X96116914Y-89940981D01*
X96116914Y-89940980D01*
X96118954Y-89934702D01*
X96122075Y-89905013D01*
X96137677Y-89756565D01*
X96138367Y-89750000D01*
X96125597Y-89628502D01*
X96119644Y-89571862D01*
X96119644Y-89571861D01*
X96118954Y-89565298D01*
X96061564Y-89388669D01*
X96037149Y-89346380D01*
X95975381Y-89239396D01*
X95958500Y-89176396D01*
X95958500Y-83573604D01*
X95975381Y-83510604D01*
X96058260Y-83367054D01*
X96058261Y-83367053D01*
X96061564Y-83361331D01*
X96096711Y-83253160D01*
X96116914Y-83190981D01*
X96116914Y-83190980D01*
X96118954Y-83184702D01*
X96121566Y-83159856D01*
X96137677Y-83006565D01*
X96138367Y-83000000D01*
X96133863Y-82957148D01*
X96119644Y-82821862D01*
X96119644Y-82821861D01*
X96118954Y-82815298D01*
X96097738Y-82750000D01*
X96063606Y-82644954D01*
X96061564Y-82638669D01*
X95975381Y-82489396D01*
X95958500Y-82426396D01*
X95958500Y-76528927D01*
X95958792Y-76520358D01*
X95962210Y-76470225D01*
X95962210Y-76470221D01*
X95962726Y-76462648D01*
X95951736Y-76399681D01*
X95950775Y-76393165D01*
X95947615Y-76367054D01*
X95943102Y-76329758D01*
X95940419Y-76322657D01*
X95939778Y-76320048D01*
X95935309Y-76303715D01*
X95934548Y-76301195D01*
X95933243Y-76293717D01*
X95930191Y-76286764D01*
X95907559Y-76235204D01*
X95905068Y-76229099D01*
X95885175Y-76176456D01*
X95885173Y-76176452D01*
X95882487Y-76169344D01*
X95878184Y-76163083D01*
X95876947Y-76160717D01*
X95868720Y-76145937D01*
X95867369Y-76143652D01*
X95864315Y-76136695D01*
X95859695Y-76130675D01*
X95859692Y-76130669D01*
X95825421Y-76086009D01*
X95821541Y-76080668D01*
X95789661Y-76034280D01*
X95789656Y-76034275D01*
X95785357Y-76028019D01*
X95738829Y-75986564D01*
X95733554Y-75981584D01*
X95656575Y-75904605D01*
X95622549Y-75842293D01*
X95620360Y-75828676D01*
X95619644Y-75821863D01*
X95619644Y-75821862D01*
X95618954Y-75815298D01*
X95561564Y-75638669D01*
X95468704Y-75477831D01*
X95403374Y-75405274D01*
X95348856Y-75344726D01*
X95348855Y-75344725D01*
X95344434Y-75339815D01*
X95273492Y-75288272D01*
X95199526Y-75234533D01*
X95199525Y-75234532D01*
X95194184Y-75230652D01*
X95188156Y-75227968D01*
X95188154Y-75227967D01*
X95030552Y-75157798D01*
X95030551Y-75157798D01*
X95024521Y-75155113D01*
X94933690Y-75135806D01*
X94849317Y-75117872D01*
X94849313Y-75117872D01*
X94842860Y-75116500D01*
X94657140Y-75116500D01*
X94650687Y-75117872D01*
X94650683Y-75117872D01*
X94566310Y-75135806D01*
X94475479Y-75155113D01*
X94469450Y-75157797D01*
X94469448Y-75157798D01*
X94311847Y-75227967D01*
X94311845Y-75227968D01*
X94305817Y-75230652D01*
X94300476Y-75234532D01*
X94300475Y-75234533D01*
X94160910Y-75335932D01*
X94160908Y-75335934D01*
X94155566Y-75339815D01*
X94151145Y-75344725D01*
X94151144Y-75344726D01*
X94096627Y-75405274D01*
X94031296Y-75477831D01*
X93938436Y-75638669D01*
X93881046Y-75815298D01*
X93880356Y-75821861D01*
X93880356Y-75821862D01*
X93866137Y-75957148D01*
X93861633Y-76000000D01*
X93881046Y-76184702D01*
X93883086Y-76190980D01*
X93883086Y-76190981D01*
X93903289Y-76253160D01*
X93938436Y-76361331D01*
X94031296Y-76522169D01*
X94035714Y-76527076D01*
X94035715Y-76527077D01*
X94093789Y-76591575D01*
X94155566Y-76660185D01*
X94160908Y-76664066D01*
X94160910Y-76664068D01*
X94259286Y-76735542D01*
X94305816Y-76769348D01*
X94311844Y-76772032D01*
X94311846Y-76772033D01*
X94466749Y-76841000D01*
X94520845Y-76886980D01*
X94541500Y-76956107D01*
X94541500Y-82426396D01*
X94524619Y-82489396D01*
X94438436Y-82638669D01*
X94436394Y-82644954D01*
X94402263Y-82750000D01*
X94381046Y-82815298D01*
X94380356Y-82821861D01*
X94380356Y-82821862D01*
X94366137Y-82957148D01*
X94361633Y-83000000D01*
X94362323Y-83006565D01*
X94378435Y-83159856D01*
X94381046Y-83184702D01*
X94383086Y-83190980D01*
X94383086Y-83190981D01*
X94403289Y-83253160D01*
X94438436Y-83361331D01*
X94441739Y-83367053D01*
X94441740Y-83367054D01*
X94524619Y-83510604D01*
X94541500Y-83573604D01*
X94541500Y-89176396D01*
X94524619Y-89239396D01*
X94462852Y-89346380D01*
X94438436Y-89388669D01*
X94381046Y-89565298D01*
X94380356Y-89571861D01*
X94380356Y-89571862D01*
X94374403Y-89628502D01*
X94361633Y-89750000D01*
X94362323Y-89756565D01*
X94377926Y-89905013D01*
X94381046Y-89934702D01*
X94383086Y-89940980D01*
X94383086Y-89940981D01*
X94408098Y-90017960D01*
X94438436Y-90111331D01*
X94441739Y-90117053D01*
X94441740Y-90117054D01*
X94524619Y-90260604D01*
X94541500Y-90323604D01*
X94541500Y-95426396D01*
X94524619Y-95489396D01*
X94463807Y-95594726D01*
X94438436Y-95638669D01*
X94381046Y-95815298D01*
X94380356Y-95821862D01*
X94380356Y-95821863D01*
X94379640Y-95828676D01*
X94352630Y-95894334D01*
X94343425Y-95904605D01*
X93743435Y-96504595D01*
X93681123Y-96538621D01*
X93654340Y-96541500D01*
X88624800Y-96541500D01*
X88556679Y-96521498D01*
X88510186Y-96467842D01*
X88500082Y-96397568D01*
X88510605Y-96362251D01*
X88581959Y-96209230D01*
X88581961Y-96209225D01*
X88584284Y-96204243D01*
X88607647Y-96117054D01*
X88642119Y-95988402D01*
X88642119Y-95988400D01*
X88643543Y-95983087D01*
X88663498Y-95755000D01*
X88643543Y-95526913D01*
X88630428Y-95477967D01*
X88585707Y-95311067D01*
X88585706Y-95311065D01*
X88584284Y-95305757D01*
X88556347Y-95245846D01*
X88489849Y-95103238D01*
X88489846Y-95103233D01*
X88487523Y-95098251D01*
X88374070Y-94936224D01*
X88359357Y-94915211D01*
X88359355Y-94915208D01*
X88356198Y-94910700D01*
X88194300Y-94748802D01*
X88189792Y-94745645D01*
X88189789Y-94745643D01*
X88056160Y-94652075D01*
X88006749Y-94617477D01*
X88001767Y-94615154D01*
X88001762Y-94615151D01*
X87804225Y-94523039D01*
X87804224Y-94523039D01*
X87799243Y-94520716D01*
X87793935Y-94519294D01*
X87793933Y-94519293D01*
X87583402Y-94462881D01*
X87583400Y-94462881D01*
X87578087Y-94461457D01*
X87350000Y-94441502D01*
X87121913Y-94461457D01*
X87116600Y-94462881D01*
X87116598Y-94462881D01*
X86906067Y-94519293D01*
X86906065Y-94519294D01*
X86900757Y-94520716D01*
X86895776Y-94523039D01*
X86895775Y-94523039D01*
X86698238Y-94615151D01*
X86698233Y-94615154D01*
X86693251Y-94617477D01*
X86643840Y-94652075D01*
X86510211Y-94745643D01*
X86510208Y-94745645D01*
X86505700Y-94748802D01*
X86343802Y-94910700D01*
X86340645Y-94915208D01*
X86340643Y-94915211D01*
X86325930Y-94936224D01*
X86212477Y-95098251D01*
X86210154Y-95103233D01*
X86210151Y-95103238D01*
X86143653Y-95245846D01*
X86115716Y-95305757D01*
X86114294Y-95311065D01*
X86114293Y-95311067D01*
X86069572Y-95477967D01*
X86056457Y-95526913D01*
X86036502Y-95755000D01*
X86056457Y-95983087D01*
X86057881Y-95988400D01*
X86057881Y-95988402D01*
X86092354Y-96117054D01*
X86115716Y-96204243D01*
X86118039Y-96209225D01*
X86118041Y-96209230D01*
X86189395Y-96362251D01*
X86200056Y-96432442D01*
X86171076Y-96497255D01*
X86111656Y-96536111D01*
X86075200Y-96541500D01*
X85179002Y-96541500D01*
X85110881Y-96521498D01*
X85064388Y-96467842D01*
X85053658Y-96402657D01*
X85053675Y-96402495D01*
X85058500Y-96355400D01*
X85058500Y-95154600D01*
X85058163Y-95151350D01*
X85048238Y-95055692D01*
X85048237Y-95055688D01*
X85047526Y-95048834D01*
X85038585Y-95022033D01*
X84993868Y-94888002D01*
X84991550Y-94881054D01*
X84898478Y-94730652D01*
X84773303Y-94605695D01*
X84704735Y-94563429D01*
X84628968Y-94516725D01*
X84628966Y-94516724D01*
X84622738Y-94512885D01*
X84471980Y-94462881D01*
X84461389Y-94459368D01*
X84461387Y-94459368D01*
X84454861Y-94457203D01*
X84448025Y-94456503D01*
X84448022Y-94456502D01*
X84404969Y-94452091D01*
X84350400Y-94446500D01*
X83149600Y-94446500D01*
X83146354Y-94446837D01*
X83146350Y-94446837D01*
X83050692Y-94456762D01*
X83050688Y-94456763D01*
X83043834Y-94457474D01*
X83037298Y-94459655D01*
X83037296Y-94459655D01*
X83027627Y-94462881D01*
X82876054Y-94513450D01*
X82725652Y-94606522D01*
X82600695Y-94731697D01*
X82596855Y-94737927D01*
X82596854Y-94737928D01*
X82532466Y-94842385D01*
X82507885Y-94882262D01*
X82496956Y-94915211D01*
X82464407Y-95013346D01*
X82452203Y-95050139D01*
X82441500Y-95154600D01*
X82441500Y-96355400D01*
X82446387Y-96402497D01*
X82433523Y-96472317D01*
X82384952Y-96524099D01*
X82321060Y-96541500D01*
X80134500Y-96541500D01*
X80066379Y-96521498D01*
X80019886Y-96467842D01*
X80008500Y-96415500D01*
X80008500Y-95201866D01*
X80001745Y-95139684D01*
X79950615Y-95003295D01*
X79863261Y-94886739D01*
X79746705Y-94799385D01*
X79610316Y-94748255D01*
X79548134Y-94741500D01*
X75451866Y-94741500D01*
X75389684Y-94748255D01*
X75253295Y-94799385D01*
X75136739Y-94886739D01*
X75049385Y-95003295D01*
X74998255Y-95139684D01*
X74991500Y-95201866D01*
X74991500Y-99298134D01*
X72195888Y-99298134D01*
X72461988Y-99187912D01*
X72670592Y-99066013D01*
X72712389Y-99041589D01*
X72712390Y-99041588D01*
X72716092Y-99039425D01*
X72947694Y-98857827D01*
X72960399Y-98844717D01*
X73121799Y-98678163D01*
X73152506Y-98646476D01*
X73326741Y-98409285D01*
X73424259Y-98229679D01*
X73465122Y-98154418D01*
X73465123Y-98154416D01*
X73467172Y-98150642D01*
X73539777Y-97958500D01*
X73569685Y-97879351D01*
X73569686Y-97879347D01*
X73571203Y-97875333D01*
X73619358Y-97665076D01*
X73635949Y-97592637D01*
X73635950Y-97592633D01*
X73636907Y-97588453D01*
X73644246Y-97506227D01*
X73662849Y-97297776D01*
X73662849Y-97297774D01*
X73663069Y-97295310D01*
X73663544Y-97250000D01*
X73660928Y-97211628D01*
X73643819Y-96960650D01*
X73643818Y-96960644D01*
X73643527Y-96956373D01*
X73631893Y-96900192D01*
X73607317Y-96781524D01*
X73583845Y-96668180D01*
X73485603Y-96390753D01*
X73379611Y-96185398D01*
X73352583Y-96133033D01*
X73352583Y-96133032D01*
X73350618Y-96129226D01*
X73342064Y-96117054D01*
X73183856Y-95891948D01*
X73183855Y-95891947D01*
X73181389Y-95888438D01*
X72981048Y-95672844D01*
X72958936Y-95654745D01*
X72809450Y-95532393D01*
X72753300Y-95486435D01*
X72502361Y-95332660D01*
X72483706Y-95324471D01*
X72236802Y-95216087D01*
X72236798Y-95216086D01*
X72232874Y-95214363D01*
X71949826Y-95133735D01*
X71945584Y-95133131D01*
X71945578Y-95133130D01*
X71662705Y-95092871D01*
X71658454Y-95092266D01*
X71392715Y-95090875D01*
X71324701Y-95070517D01*
X71278490Y-95016619D01*
X71268754Y-94946293D01*
X71298585Y-94881867D01*
X71352871Y-94845565D01*
X71362242Y-94842384D01*
X71362244Y-94842383D01*
X71366145Y-94841059D01*
X71517435Y-94766451D01*
X71627969Y-94711942D01*
X71627974Y-94711939D01*
X71631673Y-94710115D01*
X71718545Y-94652069D01*
X71874407Y-94547926D01*
X71874412Y-94547922D01*
X71877838Y-94545633D01*
X71880932Y-94542919D01*
X71880938Y-94542915D01*
X72097338Y-94353136D01*
X72100427Y-94350427D01*
X72103136Y-94347338D01*
X72292915Y-94130938D01*
X72292919Y-94130932D01*
X72295633Y-94127838D01*
X72315919Y-94097479D01*
X72457821Y-93885106D01*
X72460115Y-93881673D01*
X72477580Y-93846259D01*
X72533162Y-93733549D01*
X72591059Y-93616145D01*
X72601315Y-93585932D01*
X72684896Y-93339710D01*
X72684897Y-93339706D01*
X72686224Y-93335797D01*
X72700214Y-93265467D01*
X72743180Y-93049465D01*
X72743181Y-93049459D01*
X72743983Y-93045426D01*
X72744688Y-93034684D01*
X72763076Y-92754119D01*
X72763346Y-92750000D01*
X72758636Y-92678138D01*
X72744253Y-92458686D01*
X72744252Y-92458679D01*
X72743983Y-92454574D01*
X72742145Y-92445331D01*
X72687030Y-92168253D01*
X72687028Y-92168247D01*
X72686224Y-92164203D01*
X72682081Y-92151996D01*
X72592385Y-91887761D01*
X72592384Y-91887760D01*
X72591059Y-91883855D01*
X72488724Y-91676340D01*
X72461942Y-91622031D01*
X72461939Y-91622026D01*
X72460115Y-91618327D01*
X72392044Y-91516451D01*
X72297926Y-91375593D01*
X72297922Y-91375588D01*
X72295633Y-91372162D01*
X72292919Y-91369068D01*
X72292915Y-91369062D01*
X72103136Y-91152662D01*
X72100427Y-91149573D01*
X72031511Y-91089135D01*
X71880938Y-90957085D01*
X71880932Y-90957081D01*
X71877838Y-90954367D01*
X71874412Y-90952078D01*
X71874407Y-90952074D01*
X71635106Y-90792179D01*
X71631673Y-90789885D01*
X71627974Y-90788061D01*
X71627969Y-90788058D01*
X71439182Y-90694959D01*
X71366145Y-90658941D01*
X71362239Y-90657615D01*
X71089710Y-90565104D01*
X71089706Y-90565103D01*
X71085797Y-90563776D01*
X71081753Y-90562972D01*
X71081747Y-90562970D01*
X70799465Y-90506820D01*
X70799459Y-90506819D01*
X70795426Y-90506017D01*
X70791321Y-90505748D01*
X70791314Y-90505747D01*
X70504119Y-90486924D01*
X70500000Y-90486654D01*
X70495881Y-90486924D01*
X70208686Y-90505747D01*
X70208679Y-90505748D01*
X70204574Y-90506017D01*
X70200541Y-90506819D01*
X70200535Y-90506820D01*
X69918253Y-90562970D01*
X69918247Y-90562972D01*
X69914203Y-90563776D01*
X69910294Y-90565103D01*
X69910290Y-90565104D01*
X69637761Y-90657615D01*
X69633855Y-90658941D01*
X69560818Y-90694959D01*
X69372031Y-90788058D01*
X69372026Y-90788061D01*
X69368327Y-90789885D01*
X69364894Y-90792179D01*
X69125593Y-90952074D01*
X69125588Y-90952078D01*
X69122162Y-90954367D01*
X69119068Y-90957081D01*
X69119062Y-90957085D01*
X68968489Y-91089135D01*
X68899573Y-91149573D01*
X68896864Y-91152662D01*
X68707085Y-91369062D01*
X68707081Y-91369068D01*
X68704367Y-91372162D01*
X68702078Y-91375588D01*
X68702074Y-91375593D01*
X68607956Y-91516451D01*
X68539885Y-91618327D01*
X68538061Y-91622026D01*
X68538058Y-91622031D01*
X68511276Y-91676340D01*
X68408941Y-91883855D01*
X68407616Y-91887760D01*
X68407615Y-91887761D01*
X68317920Y-92151996D01*
X68313776Y-92164203D01*
X68312972Y-92168247D01*
X68312970Y-92168253D01*
X68257856Y-92445331D01*
X68256017Y-92454574D01*
X68255748Y-92458679D01*
X68255747Y-92458686D01*
X68241364Y-92678138D01*
X68236654Y-92750000D01*
X68236924Y-92754119D01*
X68255313Y-93034684D01*
X68256017Y-93045426D01*
X68256819Y-93049459D01*
X68256820Y-93049465D01*
X68299786Y-93265467D01*
X68313776Y-93335797D01*
X68315103Y-93339706D01*
X68315104Y-93339710D01*
X68398685Y-93585932D01*
X68408941Y-93616145D01*
X68466838Y-93733549D01*
X68522421Y-93846259D01*
X68539885Y-93881673D01*
X68542179Y-93885106D01*
X68684082Y-94097479D01*
X68704367Y-94127838D01*
X68707081Y-94130932D01*
X68707085Y-94130938D01*
X68896864Y-94347338D01*
X68899573Y-94350427D01*
X68902662Y-94353136D01*
X69119062Y-94542915D01*
X69119068Y-94542919D01*
X69122162Y-94545633D01*
X69125588Y-94547922D01*
X69125593Y-94547926D01*
X69281455Y-94652069D01*
X69368327Y-94710115D01*
X69372026Y-94711939D01*
X69372031Y-94711942D01*
X69482565Y-94766451D01*
X69633855Y-94841059D01*
X69637760Y-94842384D01*
X69637761Y-94842385D01*
X69910290Y-94934896D01*
X69910294Y-94934897D01*
X69914203Y-94936224D01*
X69918247Y-94937028D01*
X69918253Y-94937030D01*
X70200535Y-94993180D01*
X70200541Y-94993181D01*
X70204574Y-94993983D01*
X70208679Y-94994252D01*
X70208686Y-94994253D01*
X70495881Y-95013076D01*
X70500000Y-95013346D01*
X70639266Y-95004218D01*
X70708549Y-95019722D01*
X70758452Y-95070222D01*
X70773130Y-95139684D01*
X70747924Y-95206056D01*
X70696941Y-95245846D01*
X70521714Y-95320586D01*
X70521707Y-95320590D01*
X70517772Y-95322268D01*
X70381641Y-95403741D01*
X70268918Y-95471204D01*
X70268914Y-95471207D01*
X70265236Y-95473408D01*
X70035549Y-95657422D01*
X70032605Y-95660524D01*
X70032601Y-95660528D01*
X69835911Y-95867796D01*
X69832961Y-95870905D01*
X69661220Y-96109908D01*
X69590327Y-96243802D01*
X69584981Y-96253898D01*
X69535428Y-96304741D01*
X69466254Y-96320723D01*
X69399420Y-96296769D01*
X69384532Y-96284034D01*
X69344300Y-96243802D01*
X69339792Y-96240645D01*
X69339789Y-96240643D01*
X69229773Y-96163609D01*
X69156749Y-96112477D01*
X69151767Y-96110154D01*
X69151762Y-96110151D01*
X68954225Y-96018039D01*
X68954224Y-96018039D01*
X68949243Y-96015716D01*
X68943935Y-96014294D01*
X68943933Y-96014293D01*
X68733402Y-95957881D01*
X68733400Y-95957881D01*
X68728087Y-95956457D01*
X68628520Y-95947746D01*
X68559851Y-95941738D01*
X68559844Y-95941738D01*
X68557127Y-95941500D01*
X68442873Y-95941500D01*
X68440156Y-95941738D01*
X68440149Y-95941738D01*
X68371480Y-95947746D01*
X68271913Y-95956457D01*
X68266600Y-95957881D01*
X68266598Y-95957881D01*
X68056067Y-96014293D01*
X68056065Y-96014294D01*
X68050757Y-96015716D01*
X68045776Y-96018039D01*
X68045775Y-96018039D01*
X67848238Y-96110151D01*
X67848233Y-96110154D01*
X67843251Y-96112477D01*
X67770227Y-96163609D01*
X67660211Y-96240643D01*
X67660208Y-96240645D01*
X67655700Y-96243802D01*
X67493802Y-96405700D01*
X67490645Y-96410208D01*
X67490643Y-96410211D01*
X67447156Y-96472317D01*
X67362477Y-96593251D01*
X67360154Y-96598233D01*
X67360151Y-96598238D01*
X67282172Y-96765467D01*
X67265716Y-96800757D01*
X67264294Y-96806065D01*
X67264293Y-96806067D01*
X67222872Y-96960650D01*
X67206457Y-97021913D01*
X67186502Y-97250000D01*
X65508500Y-97250000D01*
X65508500Y-86705151D01*
X68237296Y-86705151D01*
X68237520Y-86709817D01*
X68237520Y-86709822D01*
X68238385Y-86727831D01*
X68249480Y-86958798D01*
X68260947Y-87016446D01*
X68283965Y-87132163D01*
X68299021Y-87207857D01*
X68300600Y-87212255D01*
X68300602Y-87212262D01*
X68366645Y-87396207D01*
X68384831Y-87446858D01*
X68505025Y-87670551D01*
X68507820Y-87674294D01*
X68507822Y-87674297D01*
X68654171Y-87870282D01*
X68654176Y-87870288D01*
X68656963Y-87874020D01*
X68660272Y-87877300D01*
X68660277Y-87877306D01*
X68819035Y-88034684D01*
X68837307Y-88052797D01*
X68841069Y-88055555D01*
X68841072Y-88055558D01*
X68977611Y-88155672D01*
X69042094Y-88202953D01*
X69046229Y-88205129D01*
X69046233Y-88205131D01*
X69144719Y-88256947D01*
X69266827Y-88321191D01*
X69281274Y-88326236D01*
X69459918Y-88388621D01*
X69506568Y-88404912D01*
X69756050Y-88452278D01*
X69876532Y-88457011D01*
X70005125Y-88462064D01*
X70005130Y-88462064D01*
X70009793Y-88462247D01*
X70108774Y-88451407D01*
X70257569Y-88435112D01*
X70257575Y-88435111D01*
X70262222Y-88434602D01*
X70297307Y-88425365D01*
X70503273Y-88371138D01*
X70507793Y-88369948D01*
X70639741Y-88313259D01*
X70736807Y-88271557D01*
X70736810Y-88271555D01*
X70741110Y-88269708D01*
X70745090Y-88267245D01*
X70745094Y-88267243D01*
X70953064Y-88138547D01*
X70953066Y-88138545D01*
X70957047Y-88136082D01*
X70979524Y-88117054D01*
X71147289Y-87975031D01*
X71147291Y-87975029D01*
X71150862Y-87972006D01*
X71318295Y-87781084D01*
X71320873Y-87777077D01*
X71453141Y-87571442D01*
X71455669Y-87567512D01*
X71559967Y-87335980D01*
X71628896Y-87091575D01*
X71646670Y-86951864D01*
X71660545Y-86842798D01*
X71660545Y-86842792D01*
X71660943Y-86839667D01*
X71663291Y-86750000D01*
X71663057Y-86746851D01*
X71644818Y-86501411D01*
X71644817Y-86501407D01*
X71644472Y-86496759D01*
X71640828Y-86480652D01*
X71589459Y-86253639D01*
X71588428Y-86249082D01*
X71533805Y-86108619D01*
X71498084Y-86016762D01*
X71498083Y-86016760D01*
X71496391Y-86012409D01*
X71473823Y-85972923D01*
X71372702Y-85795997D01*
X71372700Y-85795995D01*
X71370383Y-85791940D01*
X71213171Y-85592517D01*
X71028209Y-85418523D01*
X70915226Y-85340144D01*
X70823393Y-85276437D01*
X70823390Y-85276435D01*
X70819561Y-85273779D01*
X70815384Y-85271719D01*
X70815377Y-85271715D01*
X70595996Y-85163528D01*
X70595992Y-85163527D01*
X70591810Y-85161464D01*
X70465901Y-85121160D01*
X70407121Y-85081342D01*
X70379199Y-85016067D01*
X70391000Y-84946058D01*
X70438778Y-84893543D01*
X70472234Y-84879310D01*
X70476575Y-84878167D01*
X70507793Y-84869948D01*
X70628418Y-84818124D01*
X70736807Y-84771557D01*
X70736813Y-84771554D01*
X70741110Y-84769708D01*
X70745090Y-84767245D01*
X70745094Y-84767243D01*
X70953064Y-84638547D01*
X70953066Y-84638545D01*
X70957047Y-84636082D01*
X70986284Y-84611331D01*
X71147289Y-84475031D01*
X71147291Y-84475029D01*
X71150862Y-84472006D01*
X71318295Y-84281084D01*
X71334067Y-84256565D01*
X71453141Y-84071442D01*
X71455669Y-84067512D01*
X71559967Y-83835980D01*
X71628896Y-83591575D01*
X71646382Y-83454126D01*
X71660545Y-83342798D01*
X71660545Y-83342792D01*
X71660943Y-83339667D01*
X71661279Y-83326864D01*
X71663208Y-83253160D01*
X71663291Y-83250000D01*
X71659958Y-83205151D01*
X76287296Y-83205151D01*
X76287520Y-83209817D01*
X76287520Y-83209822D01*
X76290515Y-83272169D01*
X76299480Y-83458798D01*
X76300393Y-83463386D01*
X76345157Y-83688429D01*
X76349021Y-83707857D01*
X76350600Y-83712255D01*
X76350602Y-83712262D01*
X76418768Y-83902120D01*
X76434831Y-83946858D01*
X76437048Y-83950984D01*
X76548173Y-84157798D01*
X76555025Y-84170551D01*
X76557820Y-84174294D01*
X76557822Y-84174297D01*
X76704171Y-84370282D01*
X76704176Y-84370288D01*
X76706963Y-84374020D01*
X76710272Y-84377300D01*
X76710277Y-84377306D01*
X76883990Y-84549509D01*
X76887307Y-84552797D01*
X76891069Y-84555555D01*
X76891072Y-84555558D01*
X77024977Y-84653741D01*
X77092094Y-84702953D01*
X77096229Y-84705129D01*
X77096233Y-84705131D01*
X77284137Y-84803992D01*
X77335109Y-84853411D01*
X77351272Y-84922544D01*
X77327493Y-84989440D01*
X77271322Y-85032860D01*
X77225469Y-85041500D01*
X76751866Y-85041500D01*
X76689684Y-85048255D01*
X76553295Y-85099385D01*
X76436739Y-85186739D01*
X76349385Y-85303295D01*
X76298255Y-85439684D01*
X76291500Y-85501866D01*
X76291500Y-87998134D01*
X76298255Y-88060316D01*
X76349385Y-88196705D01*
X76436739Y-88313261D01*
X76553295Y-88400615D01*
X76689684Y-88451745D01*
X76751866Y-88458500D01*
X79248134Y-88458500D01*
X79310316Y-88451745D01*
X79446705Y-88400615D01*
X79563261Y-88313261D01*
X79650615Y-88196705D01*
X79701745Y-88060316D01*
X79708500Y-87998134D01*
X79708500Y-85501866D01*
X79701745Y-85439684D01*
X79650615Y-85303295D01*
X79563261Y-85186739D01*
X79446705Y-85099385D01*
X79310316Y-85048255D01*
X79248134Y-85041500D01*
X78770964Y-85041500D01*
X78702843Y-85021498D01*
X78656350Y-84967842D01*
X78646246Y-84897568D01*
X78675740Y-84832988D01*
X78721225Y-84799733D01*
X78791110Y-84769708D01*
X78795090Y-84767245D01*
X78795094Y-84767243D01*
X79003064Y-84638547D01*
X79003066Y-84638545D01*
X79007047Y-84636082D01*
X79036284Y-84611331D01*
X79197289Y-84475031D01*
X79197291Y-84475029D01*
X79200862Y-84472006D01*
X79368295Y-84281084D01*
X79384067Y-84256565D01*
X79503141Y-84071442D01*
X79505669Y-84067512D01*
X79609967Y-83835980D01*
X79678896Y-83591575D01*
X79696382Y-83454126D01*
X79710545Y-83342798D01*
X79710545Y-83342792D01*
X79710943Y-83339667D01*
X79711279Y-83326864D01*
X79713208Y-83253160D01*
X79713291Y-83250000D01*
X79703850Y-83122951D01*
X79694818Y-83001411D01*
X79694817Y-83001407D01*
X79694472Y-82996759D01*
X79638428Y-82749082D01*
X79613392Y-82684702D01*
X79548084Y-82516762D01*
X79548083Y-82516760D01*
X79546391Y-82512409D01*
X79525866Y-82476498D01*
X79422702Y-82295997D01*
X79422700Y-82295995D01*
X79420383Y-82291940D01*
X79263171Y-82092517D01*
X79136038Y-81972923D01*
X79081610Y-81921722D01*
X79081608Y-81921720D01*
X79078209Y-81918523D01*
X78964752Y-81839815D01*
X78873393Y-81776437D01*
X78873390Y-81776435D01*
X78869561Y-81773779D01*
X78865384Y-81771719D01*
X78865377Y-81771715D01*
X78645996Y-81663528D01*
X78645992Y-81663527D01*
X78641810Y-81661464D01*
X78515901Y-81621160D01*
X78457121Y-81581342D01*
X78429199Y-81516067D01*
X78441000Y-81446058D01*
X78488778Y-81393543D01*
X78522234Y-81379310D01*
X78523929Y-81378864D01*
X78557793Y-81369948D01*
X78676353Y-81319011D01*
X78786807Y-81271557D01*
X78786810Y-81271555D01*
X78791110Y-81269708D01*
X78795090Y-81267245D01*
X78795094Y-81267243D01*
X79003064Y-81138547D01*
X79003066Y-81138545D01*
X79007047Y-81136082D01*
X79010624Y-81133054D01*
X79197289Y-80975031D01*
X79197291Y-80975029D01*
X79200862Y-80972006D01*
X79368295Y-80781084D01*
X79389854Y-80747568D01*
X79503141Y-80571442D01*
X79505669Y-80567512D01*
X79609967Y-80335980D01*
X79678896Y-80091575D01*
X79697806Y-79942929D01*
X79710545Y-79842798D01*
X79710545Y-79842792D01*
X79710943Y-79839667D01*
X79713291Y-79750000D01*
X79709612Y-79700497D01*
X79694818Y-79501411D01*
X79694817Y-79501407D01*
X79694472Y-79496759D01*
X79686182Y-79460120D01*
X79639459Y-79253639D01*
X79638428Y-79249082D01*
X79636232Y-79243435D01*
X79548084Y-79016762D01*
X79548083Y-79016760D01*
X79546391Y-79012409D01*
X79525866Y-78976498D01*
X79422702Y-78795997D01*
X79422700Y-78795995D01*
X79420383Y-78791940D01*
X79263171Y-78592517D01*
X79148380Y-78484533D01*
X79081610Y-78421722D01*
X79081608Y-78421720D01*
X79078209Y-78418523D01*
X79003218Y-78366500D01*
X78873393Y-78276437D01*
X78873390Y-78276435D01*
X78869561Y-78273779D01*
X78865384Y-78271719D01*
X78865377Y-78271715D01*
X78645996Y-78163528D01*
X78645992Y-78163527D01*
X78641810Y-78161464D01*
X78515901Y-78121160D01*
X78457121Y-78081342D01*
X78429199Y-78016067D01*
X78441000Y-77946058D01*
X78488778Y-77893543D01*
X78522234Y-77879310D01*
X78523929Y-77878864D01*
X78557793Y-77869948D01*
X78677212Y-77818642D01*
X78786807Y-77771557D01*
X78786810Y-77771555D01*
X78791110Y-77769708D01*
X78795090Y-77767245D01*
X78795094Y-77767243D01*
X79003064Y-77638547D01*
X79003066Y-77638545D01*
X79007047Y-77636082D01*
X79010624Y-77633054D01*
X79197289Y-77475031D01*
X79197291Y-77475029D01*
X79200862Y-77472006D01*
X79368295Y-77281084D01*
X79402549Y-77227831D01*
X79503141Y-77071442D01*
X79505669Y-77067512D01*
X79609967Y-76835980D01*
X79678896Y-76591575D01*
X79698050Y-76441013D01*
X79710545Y-76342798D01*
X79710545Y-76342792D01*
X79710943Y-76339667D01*
X79711203Y-76329758D01*
X79713208Y-76253160D01*
X79713291Y-76250000D01*
X79703370Y-76116500D01*
X79694818Y-76001411D01*
X79694817Y-76001407D01*
X79694472Y-75996759D01*
X79692166Y-75986565D01*
X79639459Y-75753639D01*
X79638428Y-75749082D01*
X79592947Y-75632128D01*
X79548084Y-75516762D01*
X79548083Y-75516760D01*
X79546391Y-75512409D01*
X79523823Y-75472923D01*
X79422702Y-75295997D01*
X79422700Y-75295995D01*
X79420383Y-75291940D01*
X79263171Y-75092517D01*
X79078209Y-74918523D01*
X79034483Y-74888189D01*
X78873393Y-74776437D01*
X78873390Y-74776435D01*
X78869561Y-74773779D01*
X78865384Y-74771719D01*
X78865377Y-74771715D01*
X78645996Y-74663528D01*
X78645992Y-74663527D01*
X78641810Y-74661464D01*
X78399960Y-74584047D01*
X78395355Y-74583297D01*
X78153935Y-74543980D01*
X78153934Y-74543980D01*
X78149323Y-74543229D01*
X78022364Y-74541567D01*
X77900083Y-74539966D01*
X77900080Y-74539966D01*
X77895406Y-74539905D01*
X77643787Y-74574149D01*
X77399993Y-74645208D01*
X77169380Y-74751522D01*
X77165471Y-74754085D01*
X76960928Y-74888189D01*
X76960923Y-74888193D01*
X76957015Y-74890755D01*
X76767562Y-75059848D01*
X76605183Y-75255087D01*
X76473447Y-75472182D01*
X76471638Y-75476496D01*
X76471637Y-75476498D01*
X76400998Y-75644954D01*
X76375246Y-75706365D01*
X76312738Y-75952490D01*
X76287296Y-76205151D01*
X76287520Y-76209817D01*
X76287520Y-76209822D01*
X76292438Y-76312207D01*
X76299480Y-76458798D01*
X76310948Y-76516451D01*
X76338562Y-76655274D01*
X76349021Y-76707857D01*
X76350600Y-76712255D01*
X76350602Y-76712262D01*
X76419350Y-76903741D01*
X76434831Y-76946858D01*
X76437048Y-76950984D01*
X76531651Y-77127049D01*
X76555025Y-77170551D01*
X76557820Y-77174294D01*
X76557822Y-77174297D01*
X76704171Y-77370282D01*
X76704176Y-77370288D01*
X76706963Y-77374020D01*
X76710272Y-77377300D01*
X76710277Y-77377306D01*
X76883990Y-77549509D01*
X76887307Y-77552797D01*
X76891069Y-77555555D01*
X76891072Y-77555558D01*
X77012460Y-77644563D01*
X77092094Y-77702953D01*
X77096229Y-77705129D01*
X77096233Y-77705131D01*
X77156257Y-77736711D01*
X77316827Y-77821191D01*
X77488781Y-77881240D01*
X77546497Y-77922581D01*
X77572701Y-77988565D01*
X77559072Y-78058241D01*
X77509936Y-78109487D01*
X77482497Y-78121160D01*
X77399993Y-78145208D01*
X77395740Y-78147168D01*
X77395739Y-78147169D01*
X77367818Y-78160041D01*
X77169380Y-78251522D01*
X77165471Y-78254085D01*
X76960928Y-78388189D01*
X76960923Y-78388193D01*
X76957015Y-78390755D01*
X76767562Y-78559848D01*
X76605183Y-78755087D01*
X76473447Y-78972182D01*
X76471638Y-78976496D01*
X76471637Y-78976498D01*
X76431648Y-79071862D01*
X76375246Y-79206365D01*
X76312738Y-79452490D01*
X76287296Y-79705151D01*
X76287520Y-79709817D01*
X76287520Y-79709822D01*
X76290515Y-79772169D01*
X76299480Y-79958798D01*
X76349021Y-80207857D01*
X76350600Y-80212255D01*
X76350602Y-80212262D01*
X76406472Y-80367872D01*
X76434831Y-80446858D01*
X76555025Y-80670551D01*
X76557820Y-80674294D01*
X76557822Y-80674297D01*
X76704171Y-80870282D01*
X76704176Y-80870288D01*
X76706963Y-80874020D01*
X76710272Y-80877300D01*
X76710277Y-80877306D01*
X76875934Y-81041523D01*
X76887307Y-81052797D01*
X76891069Y-81055555D01*
X76891072Y-81055558D01*
X77026311Y-81154719D01*
X77092094Y-81202953D01*
X77096229Y-81205129D01*
X77096233Y-81205131D01*
X77181515Y-81250000D01*
X77316827Y-81321191D01*
X77488781Y-81381240D01*
X77546497Y-81422581D01*
X77572701Y-81488565D01*
X77559072Y-81558241D01*
X77509936Y-81609487D01*
X77482497Y-81621160D01*
X77399993Y-81645208D01*
X77169380Y-81751522D01*
X77165471Y-81754085D01*
X76960928Y-81888189D01*
X76960923Y-81888193D01*
X76957015Y-81890755D01*
X76767562Y-82059848D01*
X76605183Y-82255087D01*
X76473447Y-82472182D01*
X76471638Y-82476496D01*
X76471637Y-82476498D01*
X76387083Y-82678138D01*
X76375246Y-82706365D01*
X76312738Y-82952490D01*
X76287296Y-83205151D01*
X71659958Y-83205151D01*
X71653850Y-83122951D01*
X71644818Y-83001411D01*
X71644817Y-83001407D01*
X71644472Y-82996759D01*
X71588428Y-82749082D01*
X71563392Y-82684702D01*
X71498084Y-82516762D01*
X71498083Y-82516760D01*
X71496391Y-82512409D01*
X71475866Y-82476498D01*
X71372702Y-82295997D01*
X71372700Y-82295995D01*
X71370383Y-82291940D01*
X71213171Y-82092517D01*
X71086038Y-81972923D01*
X71031610Y-81921722D01*
X71031608Y-81921720D01*
X71028209Y-81918523D01*
X70914752Y-81839815D01*
X70823393Y-81776437D01*
X70823390Y-81776435D01*
X70819561Y-81773779D01*
X70815384Y-81771719D01*
X70815377Y-81771715D01*
X70595996Y-81663528D01*
X70595992Y-81663527D01*
X70591810Y-81661464D01*
X70465901Y-81621160D01*
X70407121Y-81581342D01*
X70379199Y-81516067D01*
X70391000Y-81446058D01*
X70438778Y-81393543D01*
X70472234Y-81379310D01*
X70473929Y-81378864D01*
X70507793Y-81369948D01*
X70626353Y-81319011D01*
X70736807Y-81271557D01*
X70736810Y-81271555D01*
X70741110Y-81269708D01*
X70745090Y-81267245D01*
X70745094Y-81267243D01*
X70953064Y-81138547D01*
X70953066Y-81138545D01*
X70957047Y-81136082D01*
X70960624Y-81133054D01*
X71147289Y-80975031D01*
X71147291Y-80975029D01*
X71150862Y-80972006D01*
X71318295Y-80781084D01*
X71339854Y-80747568D01*
X71453141Y-80571442D01*
X71455669Y-80567512D01*
X71559967Y-80335980D01*
X71628896Y-80091575D01*
X71647806Y-79942929D01*
X71660545Y-79842798D01*
X71660545Y-79842792D01*
X71660943Y-79839667D01*
X71663291Y-79750000D01*
X71659612Y-79700497D01*
X71644818Y-79501411D01*
X71644817Y-79501407D01*
X71644472Y-79496759D01*
X71636182Y-79460120D01*
X71589459Y-79253639D01*
X71588428Y-79249082D01*
X71586232Y-79243435D01*
X71498084Y-79016762D01*
X71498083Y-79016760D01*
X71496391Y-79012409D01*
X71475866Y-78976498D01*
X71372702Y-78795997D01*
X71372700Y-78795995D01*
X71370383Y-78791940D01*
X71213171Y-78592517D01*
X71098380Y-78484533D01*
X71031610Y-78421722D01*
X71031608Y-78421720D01*
X71028209Y-78418523D01*
X70953218Y-78366500D01*
X70823393Y-78276437D01*
X70823390Y-78276435D01*
X70819561Y-78273779D01*
X70815376Y-78271715D01*
X70664896Y-78197506D01*
X70612647Y-78149437D01*
X70594681Y-78080752D01*
X70616700Y-78013256D01*
X70671716Y-77968380D01*
X70720625Y-77958500D01*
X71198134Y-77958500D01*
X71260316Y-77951745D01*
X71396705Y-77900615D01*
X71513261Y-77813261D01*
X71600615Y-77696705D01*
X71651745Y-77560316D01*
X71658500Y-77498134D01*
X71658500Y-75001866D01*
X71651745Y-74939684D01*
X71600615Y-74803295D01*
X71513261Y-74686739D01*
X71396705Y-74599385D01*
X71260316Y-74548255D01*
X71198134Y-74541500D01*
X68701866Y-74541500D01*
X68639684Y-74548255D01*
X68503295Y-74599385D01*
X68386739Y-74686739D01*
X68299385Y-74803295D01*
X68248255Y-74939684D01*
X68241500Y-75001866D01*
X68241500Y-77498134D01*
X68248255Y-77560316D01*
X68299385Y-77696705D01*
X68386739Y-77813261D01*
X68503295Y-77900615D01*
X68639684Y-77951745D01*
X68701866Y-77958500D01*
X69180719Y-77958500D01*
X69248840Y-77978502D01*
X69295333Y-78032158D01*
X69305437Y-78102432D01*
X69275943Y-78167012D01*
X69233471Y-78198926D01*
X69119380Y-78251522D01*
X69115471Y-78254085D01*
X68910928Y-78388189D01*
X68910923Y-78388193D01*
X68907015Y-78390755D01*
X68717562Y-78559848D01*
X68555183Y-78755087D01*
X68423447Y-78972182D01*
X68421638Y-78976496D01*
X68421637Y-78976498D01*
X68381648Y-79071862D01*
X68325246Y-79206365D01*
X68262738Y-79452490D01*
X68237296Y-79705151D01*
X68237520Y-79709817D01*
X68237520Y-79709822D01*
X68240515Y-79772169D01*
X68249480Y-79958798D01*
X68299021Y-80207857D01*
X68300600Y-80212255D01*
X68300602Y-80212262D01*
X68356472Y-80367872D01*
X68384831Y-80446858D01*
X68505025Y-80670551D01*
X68507820Y-80674294D01*
X68507822Y-80674297D01*
X68654171Y-80870282D01*
X68654176Y-80870288D01*
X68656963Y-80874020D01*
X68660272Y-80877300D01*
X68660277Y-80877306D01*
X68825934Y-81041523D01*
X68837307Y-81052797D01*
X68841069Y-81055555D01*
X68841072Y-81055558D01*
X68976311Y-81154719D01*
X69042094Y-81202953D01*
X69046229Y-81205129D01*
X69046233Y-81205131D01*
X69131515Y-81250000D01*
X69266827Y-81321191D01*
X69438781Y-81381240D01*
X69496497Y-81422581D01*
X69522701Y-81488565D01*
X69509072Y-81558241D01*
X69459936Y-81609487D01*
X69432497Y-81621160D01*
X69349993Y-81645208D01*
X69119380Y-81751522D01*
X69115471Y-81754085D01*
X68910928Y-81888189D01*
X68910923Y-81888193D01*
X68907015Y-81890755D01*
X68717562Y-82059848D01*
X68555183Y-82255087D01*
X68423447Y-82472182D01*
X68421638Y-82476496D01*
X68421637Y-82476498D01*
X68337083Y-82678138D01*
X68325246Y-82706365D01*
X68262738Y-82952490D01*
X68237296Y-83205151D01*
X68237520Y-83209817D01*
X68237520Y-83209822D01*
X68240515Y-83272169D01*
X68249480Y-83458798D01*
X68250393Y-83463386D01*
X68295157Y-83688429D01*
X68299021Y-83707857D01*
X68300600Y-83712255D01*
X68300602Y-83712262D01*
X68368768Y-83902120D01*
X68384831Y-83946858D01*
X68387048Y-83950984D01*
X68498173Y-84157798D01*
X68505025Y-84170551D01*
X68507820Y-84174294D01*
X68507822Y-84174297D01*
X68654171Y-84370282D01*
X68654176Y-84370288D01*
X68656963Y-84374020D01*
X68660272Y-84377300D01*
X68660277Y-84377306D01*
X68833990Y-84549509D01*
X68837307Y-84552797D01*
X68841069Y-84555555D01*
X68841072Y-84555558D01*
X68974977Y-84653741D01*
X69042094Y-84702953D01*
X69046229Y-84705129D01*
X69046233Y-84705131D01*
X69162784Y-84766451D01*
X69266827Y-84821191D01*
X69438781Y-84881240D01*
X69496497Y-84922581D01*
X69522701Y-84988565D01*
X69509072Y-85058241D01*
X69459936Y-85109487D01*
X69432497Y-85121160D01*
X69349993Y-85145208D01*
X69345740Y-85147168D01*
X69345739Y-85147169D01*
X69317818Y-85160041D01*
X69119380Y-85251522D01*
X69115471Y-85254085D01*
X68910928Y-85388189D01*
X68910923Y-85388193D01*
X68907015Y-85390755D01*
X68852195Y-85439684D01*
X68748582Y-85532162D01*
X68717562Y-85559848D01*
X68555183Y-85755087D01*
X68423447Y-85972182D01*
X68421638Y-85976496D01*
X68421637Y-85976498D01*
X68350998Y-86144954D01*
X68325246Y-86206365D01*
X68262738Y-86452490D01*
X68237296Y-86705151D01*
X65508500Y-86705151D01*
X65508500Y-71212615D01*
X65528502Y-71144494D01*
X65582158Y-71098001D01*
X65602526Y-71090739D01*
X65642579Y-71080231D01*
X65695411Y-71066371D01*
X65699371Y-71064731D01*
X65699376Y-71064729D01*
X65847246Y-71003479D01*
X65969415Y-70952875D01*
X66225482Y-70803242D01*
X66458871Y-70620241D01*
X66665266Y-70407258D01*
X66667799Y-70403810D01*
X66667803Y-70403805D01*
X66838307Y-70171691D01*
X66840845Y-70168236D01*
X66912223Y-70036775D01*
X66980311Y-69911372D01*
X66980312Y-69911370D01*
X66982361Y-69907596D01*
X67055111Y-69715069D01*
X67085677Y-69634179D01*
X67085678Y-69634175D01*
X67087195Y-69630161D01*
X67092644Y-69606369D01*
X67127351Y-69544433D01*
X67190032Y-69511093D01*
X67215464Y-69508500D01*
X171365500Y-69508500D01*
X171433621Y-69528502D01*
G37*
%TD.AperFunction*%
%TD*%
M02*
