%TF.GenerationSoftware,KiCad,Pcbnew,(6.0.9)*%
%TF.CreationDate,2023-01-24T23:05:38+01:00*%
%TF.ProjectId,Projekt,50726f6a-656b-4742-9e6b-696361645f70,rev?*%
%TF.SameCoordinates,Original*%
%TF.FileFunction,Soldermask,Bot*%
%TF.FilePolarity,Negative*%
%FSLAX46Y46*%
G04 Gerber Fmt 4.6, Leading zero omitted, Abs format (unit mm)*
G04 Created by KiCad (PCBNEW (6.0.9)) date 2023-01-24 23:05:38*
%MOMM*%
%LPD*%
G01*
G04 APERTURE LIST*
G04 Aperture macros list*
%AMRoundRect*
0 Rectangle with rounded corners*
0 $1 Rounding radius*
0 $2 $3 $4 $5 $6 $7 $8 $9 X,Y pos of 4 corners*
0 Add a 4 corners polygon primitive as box body*
4,1,4,$2,$3,$4,$5,$6,$7,$8,$9,$2,$3,0*
0 Add four circle primitives for the rounded corners*
1,1,$1+$1,$2,$3*
1,1,$1+$1,$4,$5*
1,1,$1+$1,$6,$7*
1,1,$1+$1,$8,$9*
0 Add four rect primitives between the rounded corners*
20,1,$1+$1,$2,$3,$4,$5,0*
20,1,$1+$1,$4,$5,$6,$7,0*
20,1,$1+$1,$6,$7,$8,$9,0*
20,1,$1+$1,$8,$9,$2,$3,0*%
G04 Aperture macros list end*
%ADD10R,2.400000X2.400000*%
%ADD11C,2.400000*%
%ADD12C,2.500000*%
%ADD13C,2.540000*%
%ADD14R,1.850000X1.850000*%
%ADD15C,1.850000*%
%ADD16RoundRect,0.250000X-0.550000X-0.550000X0.550000X-0.550000X0.550000X0.550000X-0.550000X0.550000X0*%
%ADD17C,1.600000*%
%ADD18R,4.000000X4.000000*%
%ADD19C,3.300000*%
%ADD20C,3.500000*%
%ADD21O,2.200000X3.500000*%
%ADD22R,1.500000X2.500000*%
%ADD23O,1.500000X2.500000*%
%ADD24C,2.000000*%
%ADD25R,1.500000X1.500000*%
%ADD26C,1.500000*%
G04 APERTURE END LIST*
D10*
%TO.C,J2*%
X69950000Y-76250000D03*
D11*
X69950000Y-79750000D03*
X69950000Y-83250000D03*
X69950000Y-86750000D03*
%TD*%
D10*
%TO.C,J1*%
X78000000Y-86750000D03*
D11*
X78000000Y-83250000D03*
X78000000Y-79750000D03*
X78000000Y-76250000D03*
%TD*%
D12*
%TO.C,BT1*%
X135753395Y-91000000D03*
D13*
X145283395Y-91000000D03*
%TD*%
D14*
%TO.C,PS1*%
X68500000Y-139605000D03*
D15*
X71040000Y-139605000D03*
X76120000Y-139605000D03*
X78660000Y-139605000D03*
X81200000Y-139605000D03*
%TD*%
D16*
%TO.C,J4*%
X83750000Y-95755000D03*
D17*
X87350000Y-95755000D03*
%TD*%
%TO.C,J5*%
X68500000Y-97250000D03*
D18*
X77500000Y-97250000D03*
D19*
X71500000Y-97250000D03*
D20*
X70500000Y-101750000D03*
X70500000Y-92750000D03*
%TD*%
D21*
%TO.C,SW7*%
X68150000Y-106547500D03*
X76350000Y-106547500D03*
D22*
X70250000Y-106547500D03*
D23*
X72250000Y-106547500D03*
X74250000Y-106547500D03*
%TD*%
D24*
%TO.C,U4*%
X166642500Y-102500000D03*
X91642500Y-134500000D03*
D25*
X91642500Y-109610000D03*
D26*
X91642500Y-112150000D03*
X91642500Y-114690000D03*
X91642500Y-117230000D03*
X91642500Y-119770000D03*
X91642500Y-122310000D03*
X91642500Y-124850000D03*
X91642500Y-127390000D03*
X166642500Y-109610000D03*
X166642500Y-112150000D03*
X166642500Y-114690000D03*
X166642500Y-117230000D03*
X166642500Y-119770000D03*
X166642500Y-122310000D03*
X166642500Y-124850000D03*
X166642500Y-127390000D03*
%TD*%
M02*
